<svg width="24" height="24" viewBox="0 0 24 24" fill="none" xmlns="http://www.w3.org/2000/svg">
<path d="M6.18229 15.448C6.94739 16.9569 8.04958 17.9845 9.48888 18.5309C10.9207 19.0493 12.5062 19.0754 14.2455 18.6094C16.658 17.9629 18.2344 16.6085 18.9747 14.546L23.3061 15.7306C22.0495 19.3446 19.3873 21.6966 15.3196 22.7865C11.8972 23.7036 8.85584 23.406 6.19562 21.8939C3.52789 20.3536 1.76557 17.9845 0.908655 14.7865C0.0667757 11.6445 0.401918 8.74346 1.91408 6.08324C3.41873 3.39497 5.79812 1.61486 9.05227 0.742918C12.1381 -0.083927 14.9523 0.319604 17.4948 1.95351C20.0653 3.5799 21.764 5.93601 22.5909 9.02184C22.7187 9.49874 22.8317 10.145 22.9299 10.9605L6.18229 15.448ZM5.148 11.7563L17.5194 8.44141C16.7523 6.81286 15.6911 5.7141 14.336 5.14513C13.0089 4.56864 11.602 4.47959 10.1152 4.87798C8.43198 5.32899 7.15335 6.1677 6.27929 7.39412C5.40522 8.62054 5.02813 10.0746 5.148 11.7563Z" fill="#4C5EFE"/>
</svg>
