<svg width="36" height="37" viewBox="0 0 36 37" fill="none" xmlns="http://www.w3.org/2000/svg">
<circle opacity="0.15" cx="18" cy="18.0996" r="18" fill="#4C5EFE"/>
<g clip-path="url(#clip0_244_2267)">
<path d="M12.1667 11.4355H15.5L17.1667 15.6022L15.0833 16.8522C15.9758 18.6618 17.4404 20.1264 19.25 21.0189L20.5 18.9355L24.6667 20.6022V23.9355C24.6667 24.3776 24.4911 24.8015 24.1785 25.1141C23.866 25.4266 23.442 25.6022 23 25.6022C19.7494 25.4047 16.6835 24.0243 14.3807 21.7215C12.0779 19.4188 10.6975 16.3528 10.5 13.1022C10.5 12.6602 10.6756 12.2363 10.9882 11.9237C11.3007 11.6111 11.7246 11.4355 12.1667 11.4355Z" fill="#4C5EFE"/>
</g>
<defs>
<clipPath id="clip0_244_2267">
<rect width="20" height="20" fill="white" transform="translate(8 8.09961)"/>
</clipPath>
</defs>
</svg>
