<svg width="36" height="37" viewBox="0 0 36 37" fill="none" xmlns="http://www.w3.org/2000/svg">
<circle opacity="0.15" cx="18" cy="18.0996" r="18" fill="#4C5EFE"/>
<g clip-path="url(#clip0_244_2258)">
<path fill-rule="evenodd" clip-rule="evenodd" d="M19.1809 25.516L22.7168 21.9802C23.6491 21.0478 24.284 19.86 24.5412 18.5668C24.7984 17.2736 24.6664 15.9331 24.1618 14.715C23.6572 13.4968 22.8027 12.4556 21.7064 11.7231C20.6101 10.9906 19.3211 10.5996 18.0026 10.5996C16.6841 10.5996 15.3952 10.9906 14.2988 11.7231C13.2025 12.4556 12.348 13.4968 11.8434 14.715C11.3388 15.9331 11.2068 17.2736 11.464 18.5668C11.7212 19.86 12.3561 21.0478 13.2884 21.9802L16.8251 25.516C17.1376 25.8282 17.5613 26.0036 18.003 26.0036C18.4448 26.0036 18.8684 25.8282 19.1809 25.516ZM20.5 17.2637C20.5 18.6444 19.3807 19.7637 18 19.7637C16.6193 19.7637 15.5 18.6444 15.5 17.2637C15.5 15.883 16.6193 14.7637 18 14.7637C19.3807 14.7637 20.5 15.883 20.5 17.2637Z" fill="#4C5EFE"/>
</g>
<defs>
<clipPath id="clip0_244_2258">
<rect width="20" height="20" fill="white" transform="translate(8 8.09961)"/>
</clipPath>
</defs>
</svg>
