<svg width="69" height="48" viewBox="0 0 69 48" fill="none" xmlns="http://www.w3.org/2000/svg">
<path d="M36.3698 11.7983C28.1257 13.8728 19.8688 18.8993 14.1794 24.8339C11.0246 28.271 8.3861 32.1555 6.33129 36.3881C5.22674 38.5351 4.2391 40.7484 3.37212 43.0194C3.10062 43.6903 2.64939 46.6797 1.89261 46.7357C-0.652267 46.9231 3.16566 36.9423 3.65682 35.9068C5.72184 31.5287 8.08181 27.2065 11.2611 23.5707C16.5929 17.4711 23.8401 11.9164 31.7329 9.23482C36.3317 7.67228 40.916 6.05775 45.9169 5.55894C48.0249 5.3491 50.1701 5.3394 52.3241 5.52996C53.8581 5.64867 55.3936 5.86073 56.9219 6.16493C58.0432 6.40671 59.4213 7.27623 60.5005 7.32907C59.6813 5.53111 57.2687 4.24085 56.2897 2.43308C55.1247 0.277737 57.0967 0.585228 58.4409 1.52081C60.5329 3.09862 62.5418 4.78856 64.457 6.58172C66.1321 8.04902 68.5931 9.56432 67.4634 11.7688C66.466 13.6909 64.6298 15.1998 63.2537 16.7849C62.3241 17.8577 60.9178 20.7352 59.1146 20.4789C53.4828 19.675 62.8198 12.7428 63.2193 11.9725C62.3595 11.6263 61.3168 11.6678 60.4206 11.4663C59.1227 11.1702 57.8577 10.6986 56.5575 10.4099C54.0737 9.86702 51.5686 9.56359 49.0786 9.50402C44.6462 9.42219 40.335 10.1992 36.385 11.7918C33.3853 12.547 36.9154 11.5734 36.3698 11.7983Z" fill="#4C5EFE" stroke="#4C5EFE"/>
</svg>
