<svg width="36" height="37" viewBox="0 0 36 37" fill="none" xmlns="http://www.w3.org/2000/svg">
<circle opacity="0.15" cx="18" cy="18.0996" r="18" fill="#4C5EFE"/>
<g clip-path="url(#clip0_244_2249)">
<path fill-rule="evenodd" clip-rule="evenodd" d="M12.1667 12.2637H23.8333C24.5807 12.2637 25.2132 12.7556 25.4246 13.4333C25.3545 13.444 25.2856 13.4698 25.2226 13.5117L18 18.3268L10.7774 13.5117C10.7144 13.4698 10.6455 13.444 10.5754 13.4333C10.7868 12.7556 11.4193 12.2637 12.1667 12.2637ZM10.5 14.5287V22.2637C10.5 23.1841 11.2462 23.9303 12.1667 23.9303H23.8333C24.7538 23.9303 25.5 23.1841 25.5 22.2637V14.5287L18.2773 19.3438C18.1094 19.4557 17.8906 19.4557 17.7226 19.3438L10.5 14.5287Z" fill="#4C5EFE"/>
</g>
<defs>
<clipPath id="clip0_244_2249">
<rect width="20" height="20" fill="white" transform="translate(8 8.09961)"/>
</clipPath>
</defs>
</svg>
