<svg width="196" height="221" viewBox="0 0 196 221" fill="none" xmlns="http://www.w3.org/2000/svg">
<path d="M-20.5121 249.782C0.075324 262.624 21.2297 267.058 42.9511 263.085C64.372 258.823 84.0276 247.378 101.918 228.751C126.734 202.914 136.032 174.591 129.813 143.782L191.769 126.181C203.163 179.866 187.94 228.49 146.1 272.053C110.896 308.706 71.3573 327.622 27.4835 328.801C-16.6908 329.692 -55.9027 313.69 -90.1523 280.795C-123.801 248.477 -141.215 210.381 -142.395 166.507C-143.874 122.344 -127.878 82.8381 -94.4058 47.9876C-62.6647 14.9398 -25.128 -0.989901 18.2043 0.198425C61.8252 1.08632 100.16 17.4008 133.207 49.1419C138.315 54.0473 144.497 61.1407 151.755 70.422L-20.5121 249.782ZM-60.6023 212.143L66.6506 79.6512C45.1499 65.3541 23.9718 59.7416 3.11611 62.8138C-17.451 65.5855 -35.3813 74.9329 -50.6748 90.8559C-67.9881 108.882 -77.4587 128.665 -79.0866 150.205C-80.7144 171.744 -74.553 192.39 -60.6023 212.143Z" fill="#4C5EFE" fill-opacity="0.08"/>
</svg>
