<svg width="81" height="80" viewBox="0 0 81 80" fill="none" xmlns="http://www.w3.org/2000/svg">
<path d="M21.5651 26.6873C23.1171 24.6285 22.6391 21.7501 20.4976 20.2581C18.356 18.7662 15.3619 19.2257 13.81 21.2845C12.2581 23.3432 12.736 26.2217 14.8776 27.7136C17.0191 29.2056 20.0132 28.7461 21.5651 26.6873Z" fill="#2A2941"/>
<path d="M17.6824 19.3759C18.8679 19.4064 19.9998 19.8577 20.8599 20.6427C21.72 21.4277 22.2475 22.491 22.3407 23.6276C22.4339 24.7642 22.0863 25.8938 21.3649 26.7987C20.6434 27.7036 19.5991 28.3199 18.4332 28.5287C18.1805 28.5669 17.9251 28.5865 17.6693 28.5874C16.4803 28.5609 15.3438 28.1111 14.48 27.3251C13.6163 26.5391 13.0866 25.473 12.9937 24.3331C12.9008 23.1932 13.2512 22.0607 13.9771 21.155C14.7029 20.2493 15.7526 19.6348 16.9228 19.4305C17.1742 19.3937 17.4281 19.3754 17.6824 19.3759ZM17.6824 17.6973C17.336 17.6972 16.9902 17.7225 16.6478 17.7728C15.0437 18.0449 13.6027 18.882 12.6061 20.1206C11.6095 21.3593 11.1289 22.9105 11.2582 24.4715C11.3875 26.0325 12.1173 27.4912 13.3052 28.5626C14.4931 29.6341 16.0537 30.2414 17.6824 30.2661C18.0303 30.2647 18.3776 30.2381 18.7213 30.1864C20.3209 29.9095 21.7562 29.0705 22.748 27.8328C23.7399 26.595 24.2175 25.0468 24.088 23.4893C23.9584 21.9317 23.2309 20.4762 22.047 19.4057C20.8631 18.3352 19.3074 17.7262 17.6824 17.6973Z" fill="#2A2941"/>
<path d="M31.2757 48.303L34.7417 55.8989L38.8844 54.023L35.1826 45.9068C35.1826 45.9068 34.3401 44.6478 33.5762 44.4044L30.084 43.2671L23.9028 29.7163L17.8481 32.2678L19.1141 35.0502L18.5553 46.7503C18.5408 46.9275 18.5635 47.1058 18.6221 47.2744C18.6807 47.443 18.774 47.5986 18.8964 47.7319C19.0187 47.8651 19.1678 47.9734 19.3345 48.0502C19.5013 48.127 19.6824 48.1708 19.8672 48.1789C20.0519 48.1871 20.2364 48.1595 20.4098 48.0977C20.5832 48.0359 20.742 47.9413 20.8765 47.8193C21.0111 47.6974 21.1188 47.5507 21.1933 47.388C21.2677 47.2252 21.3073 47.0498 21.3098 46.872L21.611 40.5058L24.1385 46.0453L23.5492 46.2929L32.0222 64.8754L36.2172 63.1087L29.1411 47.5812L31.2757 48.303Z" fill="#2A2941"/>
<path d="M23.9072 29.7166L30.0885 43.2674L33.5807 44.4047C34.3446 44.6565 35.1871 45.9071 35.1871 45.9071L38.8888 54.0233L34.7462 55.8992L31.2802 48.3033L29.1499 47.6067L36.226 63.1341L32.031 64.9009L23.558 46.3183L24.1473 46.0707L21.6111 40.506L21.3055 46.8555C21.2877 47.1947 21.1351 47.5144 20.8792 47.7486C20.6234 47.9829 20.2838 48.1138 19.9305 48.1145H19.865C19.5006 48.0971 19.1582 47.9416 18.9127 47.682C18.6673 47.4225 18.5388 47.08 18.5554 46.7296L19.1186 35.0505L17.8526 32.2681L23.9072 29.7166ZM24.8065 27.505L23.2088 28.1764L17.1498 30.7322L15.5521 31.4078L16.2506 32.9438L17.355 35.3652L16.8093 46.6708C16.79 47.0652 16.8516 47.4594 16.9908 47.8308C17.1299 48.2022 17.3439 48.5437 17.6203 48.8356C17.8968 49.1275 18.2304 49.3641 18.6021 49.532C18.9738 49.7 19.3762 49.7958 19.7864 49.8141H19.9349C20.468 49.8151 20.9925 49.6844 21.458 49.4345C21.9235 49.1847 22.3144 48.8241 22.5933 48.3873L30.429 65.5639L31.1318 67.1041L32.7294 66.4284L36.9201 64.6617L38.5222 63.986L37.8193 62.4501L35.5188 57.4141L39.6266 55.555L41.1675 54.8584L40.4822 53.3602L36.7804 45.244L36.7237 45.1223L36.6495 45.009C36.2959 44.4844 35.3399 43.2254 34.1394 42.831L31.3806 41.9287L25.5093 29.0535L24.8065 27.4966V27.505Z" fill="#2A2941"/>
<path d="M42.9702 33.2753L46.7331 41.0977L36.7847 45.5167L40.7789 53.8302L31.7559 57.4309L36.3656 67.2719L55.2759 58.8661L66.6692 53.805L62.1206 44.3459L54.3636 28.21L42.9702 33.2753Z" fill="#2A2941"/>
<path d="M54.3506 28.2098L62.1077 44.3458L66.6563 53.8049L55.2629 58.866L36.3526 67.2592L31.7429 57.4182L40.7659 53.8175L36.7717 45.504L46.7201 41.085L42.9572 33.2625L54.3506 28.2098ZM55.2236 25.9814L53.6391 26.6865L42.2457 31.7518L40.6611 32.4526L41.3945 33.976L44.424 40.2709L36.0601 43.9849L34.4668 44.7025L35.2002 46.2258L38.4305 52.9404L31.0881 55.878L29.4249 56.5411L30.1627 58.1148L34.7767 67.9558L35.5014 69.5002L37.0991 68.791L56.0094 60.3978L67.4027 55.3367L68.9873 54.6316L68.254 53.0957L63.7054 43.6365L55.9483 27.4964L55.2236 25.9814Z" fill="#2A2941"/>
<path d="M29.298 42.0044L25.1044 43.7725L33.5794 62.3508L37.773 60.5827L29.298 42.0044Z" fill="#32EDBB"/>
<path d="M33.131 63.4694L23.964 43.3509L29.748 40.9253L38.915 61.0438L33.131 63.4694ZM26.2558 44.2154L34.0303 61.2578L36.6233 60.1667L28.8487 43.1201L26.2558 44.2154Z" fill="#2A2941"/>
<path d="M46.4319 28.9316L49.9503 36.2463L40.9317 40.254L45.7073 50.1832L37.6447 53.6748L40.8051 60.4816L57.9388 52.8648L68.2626 48.2779L64.0109 39.4315L56.7514 24.3447L46.4319 28.9316Z" fill="white"/>
<path d="M40.1503 62.1604L35.916 53.0412L43.9656 49.558L39.1943 39.6373L48.2086 35.6337L44.6902 28.3358L57.4062 22.6704L70 48.8992L40.1503 62.1604ZM39.3733 54.3086L41.4599 58.8031L66.5253 47.6654L56.0966 26.0151L48.1519 29.5444L51.6703 36.8633L42.656 40.8669L47.436 50.8086L39.3733 54.3086Z" fill="#2A2941"/>
<path d="M39.6196 16.9408L30.946 34.9868L32.5311 35.6909L41.2047 17.645L39.6196 16.9408Z" fill="#2A2941"/>
<path d="M36.4092 18.7843L41.9662 21.1008L42.6341 12.7202L36.4092 18.7843Z" fill="#2A2941"/>
<path d="M42.7432 22.3428L34.8857 19.0653L43.673 10.5L42.7432 22.3428ZM37.9414 18.5029L41.2067 19.8626L41.5995 14.94L37.9414 18.5029Z" fill="#2A2941"/>
<path d="M19.2363 26.0569C21.8811 26.0569 24.025 23.9958 24.025 21.4533C24.025 18.9107 21.8811 16.8496 19.2363 16.8496C16.5916 16.8496 14.4476 18.9107 14.4476 21.4533C14.4476 23.9958 16.5916 26.0569 19.2363 26.0569Z" fill="#FEC34E"/>
<path d="M19.2407 16.8451C20.4301 16.8708 21.5671 17.3199 22.4317 18.1056C23.2962 18.8912 23.8265 19.9574 23.92 21.0975C24.0135 22.2376 23.6634 23.3705 22.9376 24.2766C22.2118 25.1828 21.162 25.7977 19.9916 26.0021C19.7389 26.0403 19.4835 26.0599 19.2277 26.0609C18.0386 26.0343 16.9022 25.5845 16.0384 24.7985C15.1746 24.0126 14.645 22.9464 14.5521 21.8065C14.4592 20.6666 14.8096 19.5342 15.5355 18.6285C16.2613 17.7227 17.311 17.1082 18.4812 16.9039C18.7324 16.8657 18.9864 16.8461 19.2407 16.8451ZM19.2407 15.1665C18.8943 15.1679 18.5484 15.1945 18.2062 15.2462C16.603 15.5179 15.1625 16.3539 14.1657 17.5913C13.169 18.8287 12.6874 20.3786 12.8149 21.9389C12.9425 23.4991 13.6701 24.9577 14.8557 26.0301C16.0413 27.1026 17.6 27.712 19.2277 27.7395C19.5756 27.738 19.9228 27.7113 20.2666 27.6598C21.8701 27.388 23.3108 26.5516 24.3075 25.3138C25.3042 24.076 25.7854 22.5256 25.6573 20.9651C25.5291 19.4047 24.8008 17.946 23.6144 16.8739C22.4281 15.8018 20.8688 15.1931 19.2407 15.1665Z" fill="#2A2941"/>
<path d="M25.4595 27.1775L19.403 29.731L25.7619 43.6704L31.8184 41.117L25.4595 27.1775Z" fill="#A694FE"/>
<path d="M25.3128 44.7863L18.2542 29.3092L25.9108 26.082L32.9607 41.5591L25.3128 44.7863ZM20.5546 30.1737L26.2295 42.5747L30.6864 40.6946L25.0116 28.2936L20.5546 30.1737Z" fill="#2A2941"/>
<path fill-rule="evenodd" clip-rule="evenodd" d="M40.4385 51.4968L36.7367 43.3806C36.7367 43.3806 35.8942 42.1216 35.1303 41.8782L29.9356 40.1996C29.651 40.1066 29.3501 40.0684 29.0501 40.0872C28.7502 40.106 28.457 40.1815 28.1874 40.3094C27.9178 40.4372 27.677 40.6149 27.4789 40.8322C27.2808 41.0496 27.1292 41.3024 27.0327 41.5761C26.8385 42.1287 26.8801 42.7329 27.1485 43.256C27.4169 43.7792 27.8902 44.1786 28.4645 44.3668L32.8298 45.7937L36.2915 53.3895L40.4385 51.4968Z" fill="#32EDBB"/>
<path d="M35.8549 54.4971L32.1837 46.4522L28.1808 45.1429C27.7878 45.0142 27.425 44.8124 27.1132 44.5489C26.8014 44.2855 26.5466 43.9655 26.3634 43.6074C26.1801 43.2493 26.0721 42.86 26.0454 42.4617C26.0187 42.0634 26.0738 41.664 26.2077 41.2862C26.3415 40.9084 26.5515 40.5597 26.8255 40.2599C27.0996 39.9601 27.4323 39.7152 27.8049 39.5391C28.5572 39.1833 29.4257 39.1295 30.2193 39.3894L35.4096 41.068C36.4136 41.3953 37.2998 42.6585 37.47 42.9061L37.5355 43.0236L41.5778 51.891L35.8549 54.4971ZM29.1979 40.9253C28.902 40.9246 28.6133 41.0133 28.3728 41.179C28.1323 41.3447 27.9521 41.579 27.8577 41.8486C27.7388 42.1893 27.7636 42.5612 27.9268 42.8845C28.0901 43.2078 28.3787 43.4567 28.7308 43.5776L33.4758 45.1219L36.7323 52.2561L39.2947 51.0979L35.964 43.7958C35.6842 43.3508 35.3038 42.9722 34.8509 42.6879L29.6562 40.9883C29.5077 40.9446 29.3531 40.9234 29.1979 40.9253Z" fill="#2A2941"/>
<path d="M23.446 32.335C23.4813 31.6034 22.8929 30.9829 22.1319 30.949C21.3708 30.9151 20.7254 31.4808 20.6901 32.2124L20.1121 44.2186C20.0769 44.9502 20.6652 45.5708 21.4263 45.6046C22.1873 45.6385 22.8328 45.0728 22.868 44.3412L23.446 32.335Z" fill="#72A3FB"/>
<path d="M22.0475 30.9499H22.1086C22.2892 30.958 22.4664 31.0003 22.6301 31.0743C22.7937 31.1483 22.9406 31.2526 23.0622 31.3812C23.1838 31.5099 23.2779 31.6603 23.339 31.8239C23.4001 31.9876 23.427 32.1612 23.4182 32.3348L22.842 44.3413C22.8241 44.6805 22.6715 45.0002 22.4156 45.2344C22.1598 45.4687 21.8202 45.5996 21.4669 45.6003H21.4014C21.2208 45.5922 21.0436 45.5499 20.8799 45.4759C20.7163 45.4019 20.5694 45.2976 20.4478 45.169C20.3262 45.0403 20.2321 44.8899 20.171 44.7263C20.1099 44.5626 20.083 44.389 20.0918 44.2154L20.668 32.2047C20.686 31.8648 20.8392 31.5445 21.096 31.3101C21.3527 31.0758 21.6934 30.9453 22.0475 30.9457M22.0475 29.2671C21.243 29.2653 20.469 29.5626 19.8873 30.0968C19.3056 30.631 18.9612 31.3607 18.9263 32.1334L18.3457 44.1398C18.3258 44.5341 18.3871 44.9283 18.5261 45.2997C18.6651 45.6711 18.879 46.0125 19.1557 46.3042C19.4323 46.5959 19.7662 46.8322 20.1381 46.9994C20.51 47.1667 20.9126 47.2617 21.3228 47.2789H21.4713C22.275 47.2796 23.0479 46.9819 23.6287 46.4478C24.2094 45.9137 24.5532 45.1845 24.5881 44.4126L25.1686 32.4062C25.2054 31.6107 24.9127 30.8337 24.3547 30.2453C23.7967 29.6569 23.0188 29.3052 22.1915 29.2671H22.0475Z" fill="#2A2941"/>
</svg>
