<svg width="81" height="80" viewBox="0 0 81 80" fill="none" xmlns="http://www.w3.org/2000/svg">
<path fill-rule="evenodd" clip-rule="evenodd" d="M21.5258 47.9803C16.6616 45.3672 14.7725 39.0389 14.9772 33.0728C25.6502 29.4679 35.174 24.2574 42.5097 15.2373C50.1445 22.3054 53.3243 29.9245 53.6077 42.5966C40.4318 40.8493 30.4672 44.0134 21.5258 47.9803Z" fill="#2A2941"/>
<path fill-rule="evenodd" clip-rule="evenodd" d="M15.5107 38.3149C15.5107 38.3149 10.1585 40.3141 11.8586 44.2968C13.5587 48.2795 18.6591 45.4303 18.6591 45.4303C17.1149 43.3098 16.0415 40.8839 15.5107 38.3149Z" fill="#2A2941"/>
<path fill-rule="evenodd" clip-rule="evenodd" d="M26.6083 45.7622C29.2924 50.6393 31.0284 55.9807 31.7244 61.504L41.2482 57.2223C38.4502 52.8754 36.2328 48.1813 34.6524 43.2593C31.9116 43.9024 29.2227 44.7495 26.6083 45.7937V45.7622Z" fill="#2A2941"/>
<path fill-rule="evenodd" clip-rule="evenodd" d="M43.7019 18.0144C43.7019 18.0144 54.0128 13.8586 57.5075 22.6268C60.7818 30.8756 50.8487 35.5037 50.8487 35.5037C50.0616 32.1821 47.2123 22.3277 43.7019 18.0144Z" fill="#A694FE"/>
<path fill-rule="evenodd" clip-rule="evenodd" d="M43.2941 16.9995L41.9088 17.5504L42.8533 18.7153C46.2693 22.9183 49.0084 32.5366 49.7797 35.7637L50.0946 37.0703L51.3225 36.5036C53.1402 35.5982 54.7905 34.3898 56.2024 32.9302C57.6326 31.5975 58.6219 29.8601 59.0383 27.9501C59.4546 26.0401 59.278 24.0485 58.5322 22.2415C57.8647 20.3502 56.6124 18.7203 54.9567 17.5882C53.301 16.4562 51.3279 15.8806 49.3233 15.9448C47.2665 15.9311 45.2241 16.2884 43.2941 16.9995ZM45.498 18.5736C46.7319 18.2569 48.0021 18.1033 49.276 18.1171C50.8423 18.0601 52.3858 18.5041 53.6824 19.3846C54.979 20.265 55.961 21.536 56.4858 23.0129C57.063 24.431 57.1929 25.9916 56.858 27.4856C56.5232 28.9796 55.7397 30.3356 54.6125 31.3718C53.7079 32.3113 52.6869 33.1312 51.5743 33.8117C50.232 28.4859 48.1887 23.3618 45.498 18.5736Z" fill="#2A2941"/>
<path fill-rule="evenodd" clip-rule="evenodd" d="M23.4439 44.1322C18.5797 41.519 16.6906 35.1908 16.8953 29.2246C27.5682 25.604 37.0921 20.4092 44.4278 11.3892C52.0625 18.4572 55.2424 26.0606 55.5258 38.7327C42.3499 37.0011 32.3853 40.1652 23.4439 44.1322Z" fill="white"/>
<path fill-rule="evenodd" clip-rule="evenodd" d="M22.9244 45.0874L23.3967 45.355L23.9004 45.1347C32.6686 41.2307 42.46 38.1138 55.3841 39.8297L56.6591 39.9871V38.712C56.36 25.662 53.07 17.8383 45.2148 10.5655L44.3491 9.7627L43.6092 10.6757C36.3994 19.5384 27.0488 24.623 16.5647 28.1649L15.8563 28.4168V29.1724C15.6359 35.5636 17.7768 42.2854 22.9874 45.0874H22.9244ZM23.5226 42.8836C19.5399 40.4279 17.9657 35.1385 17.9815 30.0067C28.1822 26.4648 37.3282 21.4116 44.5222 12.9898C51.0708 19.3809 53.9673 26.4018 54.3766 37.4841C41.7831 36.0988 32.1806 39.0583 23.5226 42.8836Z" fill="#2A2941"/>
<path fill-rule="evenodd" clip-rule="evenodd" d="M17.2591 34.5259C17.2591 34.5259 11.8912 36.5093 13.5913 40.492C15.2914 44.4747 20.3918 41.6254 20.3918 41.6254C18.8505 39.509 17.7772 37.089 17.2434 34.5259H17.2591Z" fill="#4C5EFD"/>
<path fill-rule="evenodd" clip-rule="evenodd" d="M18.3273 34.3058L18.0911 33.0308L16.8633 33.4872C15.8421 33.8959 14.8953 34.4704 14.0612 35.1874C13.1986 35.8309 12.5816 36.7498 12.3125 37.7918C12.0434 38.8339 12.1383 39.9367 12.5815 40.9174C12.8989 41.7297 13.4593 42.4242 14.1863 42.906C14.9132 43.3878 15.7711 43.6334 16.6429 43.6092C18.1153 43.5803 19.5645 43.2368 20.8932 42.6017L22.0581 42.0193L21.271 40.9646C19.8319 38.977 18.8287 36.708 18.3273 34.3058ZM16.5012 36.1161C17.0097 37.8655 17.751 39.5386 18.7051 41.0906C18.3002 41.2233 17.8839 41.3182 17.4615 41.3739C16.9046 41.522 16.3136 41.471 15.7905 41.2295C15.2673 40.9881 14.845 40.5714 14.5965 40.0516C14.3781 39.4998 14.3492 38.8912 14.5145 38.3212C14.6797 37.7513 15.0298 37.2525 15.5095 36.9032C15.8197 36.6351 16.1514 36.393 16.5012 36.1791V36.1161Z" fill="#2A2941"/>
<path fill-rule="evenodd" clip-rule="evenodd" d="M28.7004 42.0468C31.3874 46.9227 33.1236 52.2647 33.8165 57.7887L43.2617 53.5069C40.4635 49.1658 38.246 44.4767 36.6658 39.5596C33.9211 40.1882 31.2311 41.0358 28.6217 42.0941L28.7004 42.0468Z" fill="white"/>
<path fill-rule="evenodd" clip-rule="evenodd" d="M28.2917 41.0294L27.1741 41.486L27.7093 42.5564C30.3338 47.2873 32.0327 52.4749 32.7152 57.8418L32.8569 59.416L44.9781 53.9535L44.2855 52.8831C41.5441 48.62 39.3741 44.0155 37.8313 39.1876L37.5165 38.2432L36.5404 38.4636C33.7374 39.1056 30.9897 39.9688 28.3232 41.0452L28.2917 41.0294ZM30.228 42.6036C32.1292 41.893 34.0685 41.2887 36.0367 40.7933C37.4744 45.0475 39.3803 49.1287 41.7195 52.9618L34.7301 56.1101C33.9434 51.4056 32.4243 46.8535 30.228 42.6193V42.6036Z" fill="#2A2941"/>
<path fill-rule="evenodd" clip-rule="evenodd" d="M19.5253 28.1178C19.6792 33.649 21.7555 38.9536 25.397 43.1198C25.6057 43.3285 25.8889 43.4458 26.1841 43.4458C26.4793 43.4458 26.7624 43.3285 26.9712 43.1198C27.1799 42.911 27.2972 42.6279 27.2972 42.3327C27.2972 42.0375 27.1799 41.7543 26.9712 41.5456C23.7163 37.8025 21.8633 33.0448 21.7292 28.0863C21.7292 27.7941 21.613 27.5138 21.4064 27.3071C21.1997 27.1005 20.9195 26.9844 20.6272 26.9844C20.335 26.9844 20.0547 27.1005 19.8481 27.3071C19.6414 27.5138 19.5253 27.7941 19.5253 28.0863V28.1178Z" fill="#2A2941"/>
<path fill-rule="evenodd" clip-rule="evenodd" d="M52.3153 66.1511L47.7974 55.1318L50.4105 53.8725L49.4817 51.5112C54.6765 51.0547 64.7513 50.3621 66.0736 53.3216C67.3959 56.2811 61.3511 64.8131 57.3841 69.2366L54.8025 64.9863L52.3153 66.1196V66.1511Z" fill="#2A2941"/>
<path fill-rule="evenodd" clip-rule="evenodd" d="M43.2783 59.5656C45.5077 57.7422 48.0237 56.3007 50.7242 55.2995L51.7474 54.9059L50.9446 52.8438L49.9214 53.2531C46.9994 54.3368 44.2762 55.8952 41.8615 57.8654L41.0272 58.5738L42.4283 60.274L43.2783 59.5656Z" fill="#2A2941"/>
<path fill-rule="evenodd" clip-rule="evenodd" d="M45.1245 62.0835C47.195 60.6222 49.4709 59.4763 51.8778 58.6833L52.901 58.2897L52.1453 56.2275L51.1221 56.6053C48.52 57.4756 46.0592 58.7219 43.8179 60.3046L42.9364 60.9501L44.2272 62.7289L45.1245 62.0835Z" fill="#2A2941"/>
<path fill-rule="evenodd" clip-rule="evenodd" d="M46.7964 64.787C48.8055 63.6404 50.9463 62.7418 53.1719 62.1109L54.2266 61.7803L53.5497 59.6709L52.4949 60.0173C50.1048 60.6987 47.8056 61.6658 45.6472 62.898L44.7028 63.4804L45.8519 65.3537L46.7964 64.787Z" fill="#2A2941"/>
<path fill-rule="evenodd" clip-rule="evenodd" d="M53.9028 62.9027L49.3849 51.8834L51.998 50.6083L50.4239 46.4053C55.6187 45.9645 66.3074 46.8146 67.7399 50.0574C69.1724 53.3002 62.7655 61.5174 58.7985 65.9409L56.4687 61.7378L53.9815 62.8712L53.9028 62.9027Z" fill="white"/>
<path fill-rule="evenodd" clip-rule="evenodd" d="M47.9701 51.3908L53.3223 64.3936L55.9198 63.1972L58.5172 67.9198L59.5404 66.7706C62.941 63.1335 65.8227 59.0438 68.1039 54.6179C68.9199 53.121 69.1231 51.3659 68.6706 49.7222C68.2309 48.9909 67.6491 48.355 66.9597 47.8522C66.2703 47.3493 65.4871 46.9896 64.6565 46.7942C59.9807 45.5108 55.1198 45.037 50.2841 45.3932L48.8202 45.5349L50.599 50.1472L47.9701 51.4381V51.3908ZM54.4872 61.4341L50.8037 52.4612L53.3853 51.2019L51.937 47.4553C55.9888 47.2785 60.0429 47.7461 63.9481 48.8406C64.6179 49.0522 65.2581 49.3484 65.8529 49.7222C66.1877 49.9146 66.4608 50.1986 66.64 50.5408C66.8343 51.1124 66.8343 51.7322 66.64 52.3039C66.3329 53.3496 65.8995 54.3541 65.3491 55.2949C63.5411 58.4208 61.4322 61.3627 59.0524 64.0787L56.88 60.3479L54.5187 61.4341H54.4872Z" fill="#2A2941"/>
<path fill-rule="evenodd" clip-rule="evenodd" d="M57.1003 52.6294C57.7641 52.6294 58.4007 52.8931 58.8701 53.3625C59.3395 53.8319 59.6032 54.4685 59.6032 55.1323C59.6032 55.7961 59.3395 56.4328 58.8701 56.9022C58.4007 57.3716 57.7641 57.6353 57.1003 57.6353C56.4365 57.6353 55.7998 57.3716 55.3304 56.9022C54.861 56.4328 54.5973 55.7961 54.5973 55.1323C54.5973 54.4685 54.861 53.8319 55.3304 53.3625C55.7998 52.8931 56.4365 52.6294 57.1003 52.6294Z" fill="#A694FE"/>
<path fill-rule="evenodd" clip-rule="evenodd" d="M57.0869 51.5216C56.3719 51.5154 55.6713 51.7218 55.074 52.1148C54.4767 52.5078 54.0097 53.0696 53.7325 53.7287C53.4553 54.3877 53.3804 55.1143 53.5172 55.816C53.654 56.5178 53.9963 57.1631 54.5008 57.6698C55.0053 58.1765 55.649 58.5217 56.3502 58.6616C57.0513 58.8014 57.7782 58.7297 58.4385 58.4554C59.0988 58.1811 59.6626 57.7166 60.0582 57.121C60.4538 56.5255 60.6634 55.8257 60.6603 55.1107C60.6603 54.1615 60.2843 53.2511 59.6146 52.5784C58.9449 51.9058 58.0361 51.5258 57.0869 51.5216ZM57.0869 53.7254C57.2674 53.7254 57.446 53.7614 57.6124 53.8314C57.7787 53.9014 57.9294 54.0039 58.0555 54.133C58.1816 54.2621 58.2807 54.415 58.3468 54.5829C58.413 54.7508 58.4449 54.9303 58.4407 55.1107C58.4345 55.377 58.3499 55.6356 58.1974 55.8541C58.0449 56.0725 57.8314 56.2412 57.5835 56.3388C57.3357 56.4365 57.0645 56.4588 56.804 56.4031C56.5435 56.3474 56.3052 56.216 56.119 56.0255C55.9328 55.835 55.807 55.5937 55.7572 55.332C55.7075 55.0703 55.7361 54.7998 55.8394 54.5542C55.9428 54.3087 56.1162 54.099 56.3381 53.9516C56.56 53.8042 56.8205 53.7255 57.0869 53.7254Z" fill="#2A2941"/>
<path fill-rule="evenodd" clip-rule="evenodd" d="M59.6064 47.8578C62.2353 49.92 63.9039 54.7055 63.9669 57.8382C63.9669 58.1304 64.083 58.4106 64.2896 58.6173C64.4963 58.8239 64.7766 58.94 65.0688 58.94C65.3611 58.94 65.6413 58.8239 65.848 58.6173C66.0546 58.4106 66.1707 58.1304 66.1707 57.8382C66.1707 54.1388 64.0613 48.5661 60.9759 46.1576C60.8612 46.0642 60.7288 45.9948 60.5867 45.9537C60.4446 45.9125 60.2956 45.9004 60.1487 45.918C60.0018 45.9356 59.86 45.9826 59.7316 46.0563C59.6033 46.1299 59.4911 46.2286 59.4018 46.3465C59.2382 46.5775 59.1683 46.862 59.2063 47.1425C59.2443 47.423 59.3873 47.6786 59.6064 47.8578Z" fill="#2A2941"/>
</svg>
