<svg width="125" height="48" viewBox="0 0 125 48" fill="none" xmlns="http://www.w3.org/2000/svg">
<path d="M41.2964 25.3104H36.6093L31.9597 18.8985L27.2726 25.3104H22.548L29.5974 15.6737L22.9229 6.56196H27.6101L31.9222 12.4865L36.2343 6.56196H40.959L34.2845 15.7112L41.2964 25.3104Z" fill="#2A2941"/>
<path d="M57.5101 6.56196H61.5597V25.3104H57.5101V22.6107C55.9852 24.7355 53.7979 25.7979 50.9481 25.7979C48.3733 25.7979 46.1735 24.848 44.3486 22.9481C42.5238 21.0233 41.6114 18.686 41.6114 15.9362C41.6114 13.1614 42.5238 10.8241 44.3486 8.92427C46.1735 7.02443 48.3733 6.0745 50.9481 6.0745C53.7979 6.0745 55.9852 7.12442 57.5101 9.22425V6.56196ZM47.3484 20.2483C48.4733 21.3733 49.8857 21.9357 51.5855 21.9357C53.2854 21.9357 54.6978 21.3733 55.8227 20.2483C56.9476 19.0984 57.5101 17.6611 57.5101 15.9362C57.5101 14.2113 56.9476 12.7865 55.8227 11.6615C54.6978 10.5116 53.2854 9.93669 51.5855 9.93669C49.8857 9.93669 48.4733 10.5116 47.3484 11.6615C46.2235 12.7865 45.661 14.2113 45.661 15.9362C45.661 17.6611 46.2235 19.0984 47.3484 20.2483Z" fill="#2A2941"/>
<path d="M81.1287 1.2499L85.1784 0V25.3104H81.1287V22.6107C79.6039 24.7355 77.4165 25.7979 74.5668 25.7979C71.992 25.7979 69.7922 24.848 67.9673 22.9481C66.1424 21.0233 65.23 18.686 65.23 15.9362C65.23 13.1614 66.1424 10.8241 67.9673 8.92427C69.7922 7.02443 71.992 6.0745 74.5668 6.0745C77.4165 6.0745 79.6039 7.12442 81.1287 9.22425V1.2499ZM70.9671 20.2483C72.092 21.3733 73.5044 21.9357 75.2042 21.9357C76.9041 21.9357 78.3165 21.3733 79.4414 20.2483C80.5663 19.0984 81.1287 17.6611 81.1287 15.9362C81.1287 14.2113 80.5663 12.7865 79.4414 11.6615C78.3165 10.5116 76.9041 9.93669 75.2042 9.93669C73.5044 9.93669 72.092 10.5116 70.9671 11.6615C69.8421 12.7865 69.2797 14.2113 69.2797 15.9362C69.2797 17.6611 69.8421 19.0984 70.9671 20.2483Z" fill="#2A2941"/>
<path d="M98.7479 25.7979C95.9981 25.7979 93.6608 24.848 91.736 22.9481C89.8111 21.0483 88.8487 18.711 88.8487 15.9362C88.8487 13.1614 89.8111 10.8241 91.736 8.92427C93.6608 7.02443 95.9981 6.0745 98.7479 6.0745C101.523 6.0745 103.86 7.02443 105.76 8.92427C107.685 10.8241 108.647 13.1614 108.647 15.9362C108.647 18.711 107.685 21.0483 105.76 22.9481C103.86 24.848 101.523 25.7979 98.7479 25.7979ZM94.5857 20.1734C95.7106 21.2983 97.098 21.8607 98.7479 21.8607C100.398 21.8607 101.785 21.2983 102.91 20.1734C104.035 19.0484 104.597 17.6361 104.597 15.9362C104.597 14.2363 104.035 12.824 102.91 11.699C101.785 10.5741 100.398 10.0117 98.7479 10.0117C97.098 10.0117 95.7106 10.5741 94.5857 11.699C93.4608 12.824 92.8984 14.2363 92.8984 15.9362C92.8984 17.6361 93.4608 19.0484 94.5857 20.1734Z" fill="#2A2941"/>
<path d="M122.404 10.4616H117.755V19.4609C117.755 20.2358 117.93 20.7983 118.28 21.1483C118.63 21.4732 119.142 21.6607 119.817 21.7107C120.517 21.7357 121.379 21.7232 122.404 21.6732V25.3104C119.305 25.6854 117.08 25.4229 115.73 24.523C114.38 23.5981 113.705 21.9107 113.705 19.4609V10.4616H110.255V6.56196H113.705V1.2624L117.755 0.062495V6.56196H122.404V10.4616Z" fill="#2A2941"/>
<path d="M7.48128 19.1553C8.13982 20.454 9.08851 21.3385 10.3274 21.8088C11.5598 22.255 12.9245 22.2775 14.4215 21.8764C16.4981 21.32 17.855 20.1541 18.4921 18.3789L22.2203 19.3985C21.1387 22.5092 18.8473 24.5337 15.3461 25.4718C12.4003 26.2611 9.78249 26.005 7.49275 24.7034C5.19654 23.3777 3.67965 21.3385 2.94207 18.5859C2.21744 15.8815 2.50591 13.3844 3.80748 11.0947C5.10258 8.78082 7.15061 7.24862 9.95156 6.49811C12.6076 5.78641 15.0299 6.13374 17.2183 7.5401C19.4309 8.93999 20.893 10.968 21.6047 13.6241C21.7147 14.0345 21.812 14.5908 21.8965 15.2927L7.48128 19.1553ZM6.59102 15.9777L17.2395 13.1245C16.5792 11.7227 15.6659 10.777 14.4995 10.2872C13.3572 9.79104 12.1462 9.71439 10.8664 10.0573C9.41766 10.4455 8.3171 11.1674 7.56476 12.223C6.81242 13.2786 6.48784 14.5302 6.59102 15.9777Z" fill="#2A2941"/>
<path d="M7.48127 19.1531C8.13982 20.4518 9.08851 21.3363 10.3274 21.8066C11.5598 22.2528 12.9245 22.2753 14.4215 21.8742C16.4981 21.3178 17.855 20.1519 18.4921 18.3767L22.2203 19.3963C21.1387 22.507 18.8473 24.5315 15.3461 25.4696C12.4003 26.2589 9.78249 26.0028 7.49275 24.7013C5.19654 23.3755 3.67965 21.3363 2.94207 18.5837C2.21744 15.8793 2.50591 13.3823 3.80748 11.0925C5.10258 8.77863 7.15061 7.24643 9.95156 6.49592C12.6076 5.78422 15.0299 6.13155 17.2183 7.53791C19.4309 8.9378 20.893 10.9658 21.6047 13.6219C21.7147 14.0323 21.812 14.5886 21.8965 15.2906L7.48127 19.1531ZM6.59102 15.9755L17.2395 13.1223C16.5792 11.7205 15.6659 10.7748 14.4994 10.2851C13.3572 9.78885 12.1462 9.7122 10.8664 10.0551C9.41765 10.4433 8.3171 11.1652 7.56476 12.2208C6.81242 13.2765 6.48784 14.528 6.59102 15.9755Z" fill="#4C5EFE"/>
<path d="M10.6841 35.8001V34.4471H12.7422V43.9753H10.6841V42.6033C9.90914 43.6831 8.79751 44.2231 7.34921 44.2231C6.04066 44.2231 4.92268 43.7403 3.99526 42.7748C3.06784 41.8092 2.60413 40.6214 2.60413 39.2112C2.60413 37.801 3.06784 36.6132 3.99526 35.6476C4.92268 34.6821 6.04066 34.1993 7.34921 34.1993C8.79751 34.1993 9.90914 34.7329 10.6841 35.8001ZM5.51978 41.4027C6.09148 41.9744 6.80928 42.2603 7.67317 42.2603C8.53707 42.2603 9.25487 41.9744 9.82657 41.4027C10.3983 40.8183 10.6841 40.0878 10.6841 39.2112C10.6841 38.3346 10.3983 37.6104 9.82657 37.0388C9.25487 36.4543 8.53707 36.1621 7.67317 36.1621C6.80928 36.1621 6.09148 36.4543 5.51978 37.0388C4.94808 37.6104 4.66224 38.3346 4.66224 39.2112C4.66224 40.0751 4.94808 40.8056 5.51978 41.4027Z" fill="#2A2941"/>
<path d="M19.6385 44.2231C18.2029 44.2231 17.0023 43.7403 16.0368 42.7748C15.0839 41.7965 14.6075 40.6087 14.6075 39.2112C14.6075 37.7883 15.0839 36.6004 16.0368 35.6476C17.0023 34.6821 18.2029 34.1993 19.6385 34.1993C20.5659 34.1993 21.4107 34.4216 22.173 34.8663C22.9353 35.311 23.5069 35.9081 23.8881 36.6576L22.1158 37.6867C21.8998 37.2293 21.5695 36.8736 21.1249 36.6195C20.6929 36.3527 20.1911 36.2193 19.6194 36.2193C18.7809 36.2193 18.0758 36.5052 17.5041 37.0769C16.9451 37.6613 16.6656 38.3727 16.6656 39.2112C16.6656 40.0497 16.9451 40.7611 17.5041 41.3455C18.0758 41.9172 18.7809 42.2031 19.6194 42.2031C20.1784 42.2031 20.6802 42.076 21.1249 41.8219C21.5822 41.5552 21.9253 41.1931 22.1539 40.7357L23.9262 41.7457C23.5197 42.508 22.9289 43.1114 22.1539 43.5561C21.3917 44.0008 20.5532 44.2231 19.6385 44.2231Z" fill="#2A2941"/>
<path d="M32.8113 35.8001V34.4471H34.8694V43.9753H32.8113V42.6033C32.0364 43.6831 30.9247 44.2231 29.4764 44.2231C28.1679 44.2231 27.0499 43.7403 26.1225 42.7748C25.195 41.8092 24.7313 40.6214 24.7313 39.2112C24.7313 37.801 25.195 36.6132 26.1225 35.6476C27.0499 34.6821 28.1679 34.1993 29.4764 34.1993C30.9247 34.1993 32.0364 34.7329 32.8113 35.8001ZM27.647 41.4027C28.2187 41.9744 28.9365 42.2603 29.8004 42.2603C30.6643 42.2603 31.3821 41.9744 31.9538 41.4027C32.5255 40.8183 32.8113 40.0878 32.8113 39.2112C32.8113 38.3346 32.5255 37.6104 31.9538 37.0388C31.3821 36.4543 30.6643 36.1621 29.8004 36.1621C28.9365 36.1621 28.2187 36.4543 27.647 37.0388C27.0753 37.6104 26.7894 38.3346 26.7894 39.2112C26.7894 40.0751 27.0753 40.8056 27.647 41.4027Z" fill="#2A2941"/>
<path d="M44.8147 35.8001V30.6357H46.8728V43.9753H44.8147V42.6033C44.0398 43.6831 42.9281 44.2231 41.4798 44.2231C40.1713 44.2231 39.0533 43.7403 38.1259 42.7748C37.1984 41.8092 36.7347 40.6214 36.7347 39.2112C36.7347 37.801 37.1984 36.6132 38.1259 35.6476C39.0533 34.6821 40.1713 34.1993 41.4798 34.1993C42.9281 34.1993 44.0398 34.7329 44.8147 35.8001ZM39.6504 41.4027C40.2221 41.9744 40.9399 42.2603 41.8038 42.2603C42.6677 42.2603 43.3855 41.9744 43.9572 41.4027C44.5289 40.8183 44.8147 40.0878 44.8147 39.2112C44.8147 38.3346 44.5289 37.6104 43.9572 37.0388C43.3855 36.4543 42.6677 36.1621 41.8038 36.1621C40.9399 36.1621 40.2221 36.4543 39.6504 37.0388C39.0787 37.6104 38.7929 38.3346 38.7929 39.2112C38.7929 40.0751 39.0787 40.8056 39.6504 41.4027Z" fill="#2A2941"/>
<path d="M58.4761 40.0878H50.8915C51.044 40.7992 51.387 41.3519 51.9206 41.7457C52.4669 42.1396 53.1402 42.3365 53.9406 42.3365C55.0205 42.3365 55.8399 41.9426 56.3989 41.155L58.0949 42.1459C57.1675 43.5307 55.7764 44.2231 53.9215 44.2231C52.3843 44.2231 51.1329 43.753 50.1674 42.8129C49.2146 41.8601 48.7381 40.6595 48.7381 39.2112C48.7381 37.801 49.2082 36.6132 50.1483 35.6476C51.0758 34.6821 52.2827 34.1993 53.7691 34.1993C55.1539 34.1993 56.2973 34.6884 57.1993 35.6667C58.1013 36.6449 58.5523 37.8328 58.5523 39.2303C58.5523 39.4843 58.5269 39.7702 58.4761 40.0878ZM50.8725 38.4108H56.4751C56.3354 37.6613 56.0178 37.0832 55.5223 36.6767C55.0395 36.2701 54.4488 36.0669 53.75 36.0669C52.9878 36.0669 52.3525 36.2765 51.8444 36.6957C51.3362 37.115 51.0122 37.6867 50.8725 38.4108Z" fill="#2A2941"/>
<path d="M70.7681 34.1993C71.848 34.1993 72.7183 34.5487 73.3789 35.2474C74.0395 35.9462 74.3698 36.8863 74.3698 38.0678V43.9753H72.3117V38.2012C72.3117 37.5533 72.1466 37.0451 71.8162 36.6767C71.4859 36.3082 71.0349 36.124 70.4632 36.124C69.8153 36.124 69.3071 36.34 68.9387 36.772C68.5703 37.1912 68.3861 37.8137 68.3861 38.6395V43.9753H66.328V38.2012C66.328 37.5406 66.1692 37.0324 65.8515 36.6767C65.5466 36.3082 65.1083 36.124 64.5366 36.124C63.9014 36.124 63.3869 36.34 62.9931 36.772C62.6119 37.2039 62.4214 37.8264 62.4214 38.6395V43.9753H60.3633V34.4471H62.4214V35.5905C63.0312 34.663 63.9395 34.1993 65.1464 34.1993C66.3661 34.1993 67.2681 34.7011 67.8525 35.7048C68.475 34.7011 69.4469 34.1993 70.7681 34.1993Z" fill="#2A2941"/>
<path d="M80.3692 41.3646L82.8085 34.4471H85L81.3411 44.2802C80.4264 46.7449 78.8765 47.9137 76.6913 47.7867V45.8619C77.3265 45.9001 77.841 45.7667 78.2349 45.4618C78.6287 45.1568 78.959 44.6677 79.2258 43.9944L79.3211 43.8038L75.2811 34.4471H77.5298L80.3692 41.3646Z" fill="#2A2941"/>
</svg>
