<svg width="81" height="80" viewBox="0 0 81 80" fill="none" xmlns="http://www.w3.org/2000/svg">
<path fill-rule="evenodd" clip-rule="evenodd" d="M23.381 52.6094L20.4727 62.9745L26.1363 61.1158L29.8318 65.9703L32.9588 55.0367L23.381 52.6094Z" fill="#2A2941"/>
<path fill-rule="evenodd" clip-rule="evenodd" d="M48.9037 42.25L58.241 47.2358L52.9492 50.1442L53.802 56.2888L44.0273 51.0407L48.9037 42.2938V42.25Z" fill="#2A2941"/>
<path fill-rule="evenodd" clip-rule="evenodd" d="M15.0939 45.4263C14.0005 42.9991 15.5968 40.2219 15.5312 37.7947C15.4656 35.3674 13.9131 32.7434 14.744 30.8409C15.728 28.5449 18.5052 27.9544 20.1452 26.2706C21.7853 24.5868 22.6599 21.3505 24.5187 20.5633C26.8584 19.6011 29.3732 21.2193 31.7786 21.2193C34.184 21.2193 36.8736 19.6886 38.9291 20.5852C40.9847 21.4817 41.8594 24.4994 43.565 26.2051C45.2706 27.9107 48.0915 28.3917 49.1193 30.7971C50.147 33.2025 48.4633 35.5641 48.507 37.9695C48.5507 40.3749 50.2126 43.2615 49.3817 45.1858C48.5507 47.1101 45.8829 48.0504 44.0898 49.6686C42.2967 51.2867 41.6844 54.4137 39.4321 55.4633C37.1798 56.5129 34.4901 54.7854 32.0847 54.7854C29.6793 54.7854 27.2739 56.338 25.0216 55.4633C22.7693 54.5886 22.1351 51.5709 20.4732 49.8653C18.8113 48.1596 16.0998 47.6786 14.9845 45.4918L15.0939 45.4263Z" fill="#2A2941"/>
<path d="M32.0387 50.2648C38.681 50.2648 44.0657 44.8312 44.0657 38.1285C44.0657 31.4258 38.681 25.9922 32.0387 25.9922C25.3964 25.9922 20.0117 31.4258 20.0117 38.1285C20.0117 44.8312 25.3964 50.2648 32.0387 50.2648Z" fill="#2A2941"/>
<path fill-rule="evenodd" clip-rule="evenodd" d="M29.5429 31.6202L33.3697 34.3317L38.0056 33.5008L36.5842 37.8742L38.7709 42.0071H34.0695L30.7894 45.4184L29.3024 41.045L25.082 39.0114L28.8651 36.2123L29.5211 31.5547L29.5429 31.6202Z" fill="#2A2941"/>
<path fill-rule="evenodd" clip-rule="evenodd" d="M29.0873 47.3359L26.2227 57.2419L31.602 55.4705L35.1445 60.1065L38.1403 49.6976L29.0873 47.3359Z" fill="#32EDBB"/>
<path fill-rule="evenodd" clip-rule="evenodd" d="M41.1778 47.9456L27.4014 44.3594L22.6562 61.0222L30.8127 58.3326L36.2139 65.4612L41.1778 47.9456ZM29.0852 47.3333L26.2206 57.2392L31.5999 55.4678L35.1424 60.1038L38.1382 49.695L29.0852 47.3333Z" fill="#2A2941"/>
<path fill-rule="evenodd" clip-rule="evenodd" d="M53.3882 37.4531L62.2881 42.2202L57.2587 44.9755L58.0678 50.8359L48.7305 45.8502L53.3882 37.4531Z" fill="#32EDBB"/>
<path fill-rule="evenodd" clip-rule="evenodd" d="M67.4195 42.1738L52.3967 34.1484L45.3555 46.7878L61.1436 55.2285L59.8316 46.3285L67.4195 42.1738ZM53.3807 37.4504L62.2807 42.2174L57.2512 44.9946L58.0603 50.855L48.723 45.8475L53.3807 37.4504Z" fill="#2A2941"/>
<path fill-rule="evenodd" clip-rule="evenodd" d="M21.1755 40.4911C20.1259 38.1732 21.6566 35.5272 21.6128 33.2093C21.5691 30.8914 20.0603 28.3766 20.8256 26.6491C21.7878 24.4624 24.4337 23.9157 26.0081 22.2757C27.5826 20.6356 28.4135 17.5961 30.3816 16.8308C32.3496 16.0654 35.0174 17.465 37.3135 17.465C39.6096 17.465 42.168 15.9998 44.1361 16.8526C46.1041 17.7055 46.9351 20.6139 48.5095 22.232C50.0839 23.8502 52.8829 24.4187 53.8232 26.6055C54.7635 28.7922 53.1891 31.1538 53.2328 33.428C53.2766 35.7022 54.8729 38.5012 54.0856 40.338C53.2984 42.1749 50.7181 43.0714 49.0343 44.7115C47.3505 46.3515 46.7164 49.2599 44.6609 50.2658C42.6054 51.2717 39.9376 49.6097 37.6415 49.6097C35.3454 49.6097 33.0494 51.0968 30.8845 50.2658C28.7197 49.4349 28.1293 46.5484 26.5111 44.9302C24.8929 43.312 22.1595 42.6341 21.1755 40.4911Z" fill="#FEC34E"/>
<path fill-rule="evenodd" clip-rule="evenodd" d="M18.9399 41.5108V41.6856V41.5108C19.5393 42.7775 20.4875 43.847 21.6733 44.594C22.7205 45.1564 23.7221 45.7999 24.6691 46.5183C25.4705 47.5692 26.201 48.6723 26.8558 49.8203C27.5791 50.975 28.6295 51.8885 29.8735 52.4444C31.1494 52.9028 32.5283 52.9937 33.8533 52.7068C35.0464 52.3523 36.2684 52.1034 37.5052 51.9632C38.8158 52.1237 40.1105 52.3944 41.3757 52.7723C42.7745 53.086 44.2367 52.9482 45.5523 52.3787C46.8139 51.7477 47.8686 50.769 48.5918 49.5579C49.13 48.4378 49.8138 47.3936 50.6255 46.4526C51.6343 45.6563 52.6934 44.9258 53.7962 44.2659C54.8721 43.5146 55.7257 42.4873 56.2672 41.292C56.7522 39.9976 56.8285 38.5857 56.4859 37.2466C56.0897 35.9762 55.8044 34.6739 55.6331 33.3542C55.77 32.1043 56.0113 30.8682 56.3547 29.6586C56.6573 28.299 56.5352 26.8793 56.0048 25.5914C55.422 24.3023 54.471 23.2143 53.2714 22.4644C52.1611 21.8771 51.107 21.189 50.1225 20.4088C49.3007 19.4036 48.5689 18.3279 47.9358 17.1943C47.1949 16.0359 46.141 15.111 44.8963 14.5266C43.6225 14.0312 42.232 13.9171 40.8946 14.1985C39.6485 14.5442 38.3758 14.7856 37.0897 14.9201C35.8168 14.7704 34.5587 14.5145 33.3285 14.1548C31.9564 13.8721 30.5326 13.978 29.2175 14.4609C27.982 15.054 26.9479 15.997 26.2435 17.1725C25.6025 18.3358 24.8713 19.4471 24.0568 20.4963C23.1087 21.2731 22.0913 21.9612 21.0173 22.5518C19.87 23.2872 18.9648 24.3444 18.4151 25.5914C17.9738 26.8523 17.928 28.2179 18.2839 29.5055C18.6473 30.7373 18.9177 31.9946 19.093 33.2668C18.9587 34.6089 18.7248 35.9392 18.3932 37.2466C18.1246 38.7202 18.2918 40.2401 18.8743 41.6201L18.9399 41.5108ZM21.1266 40.4829C20.077 38.165 21.6077 35.519 21.564 33.2011C21.5202 30.8832 20.0114 28.3685 20.7767 26.6409C21.7389 24.4542 24.3848 23.9075 25.9593 22.2675C27.5337 20.6275 28.3647 17.5879 30.3327 16.8226C32.3008 16.0572 34.9686 17.4568 37.2646 17.4568C39.5607 17.4568 42.1191 15.9916 44.0872 16.8445C46.0552 17.6973 46.8862 20.6057 48.4606 22.2239C50.0351 23.842 52.8341 24.4106 53.7744 26.5973C54.7147 28.784 53.1402 31.1457 53.184 33.4199C53.2277 35.6941 54.824 38.493 54.0368 40.308C53.2496 42.1229 50.6692 43.0632 48.9855 44.6814C47.3017 46.2996 46.6675 49.2299 44.612 50.2358C42.5565 51.2416 39.8887 49.5798 37.5926 49.5798C35.2966 49.5798 33.0005 51.0667 30.8357 50.2358C28.6708 49.4048 28.0804 46.5183 26.4622 44.9002C24.844 43.282 22.1544 42.6259 21.1703 40.4829H21.1266Z" fill="#2A2941"/>
<path d="M37.3514 45.1011C43.6918 45.1011 48.8317 39.9123 48.8317 33.5115C48.8317 27.1108 43.6918 21.9219 37.3514 21.9219C31.011 21.9219 25.8711 27.1108 25.8711 33.5115C25.8711 39.9123 31.011 45.1011 37.3514 45.1011Z" fill="white"/>
<path fill-rule="evenodd" clip-rule="evenodd" d="M34.9704 27.3125L38.6222 29.8928L42.9956 29.0837L41.6399 33.4572L43.8266 37.3933H39.3438L36.2168 40.6514L34.7954 36.4092L30.75 34.463L34.38 31.7953L34.9704 27.3125Z" fill="#A694FE"/>
</svg>
