<svg width="81" height="80" viewBox="0 0 81 80" fill="none" xmlns="http://www.w3.org/2000/svg">
<path fill-rule="evenodd" clip-rule="evenodd" d="M28.5597 20.9228L34.6169 21.9943L40.0837 19.0859L44.9382 22.8471H51.1048L53.6414 28.467L59.0863 31.2879L58.7146 37.4544L62.2133 42.5057L58.9988 47.7976L59.7423 53.9204L54.4286 57.0911L52.2419 62.886L46.0753 63.3233L41.4613 67.4562L35.8414 64.9634L29.8498 66.4941L26.0449 61.6833L20.0533 60.2619L18.9599 54.1828L14.346 50.1374L16.1828 44.2332L13.9961 38.4822L18.3695 34.1087L19.113 27.9859L24.9953 26.0834L28.5597 20.9228Z" fill="#2A2941"/>
<path fill-rule="evenodd" clip-rule="evenodd" d="M31.7007 28.5534C33.631 27.8046 35.6905 27.4456 37.7604 27.497C39.8302 27.5485 41.8693 28.0093 43.76 28.8531C45.6508 29.6968 47.3557 30.9066 48.7764 32.4127C50.197 33.9189 51.3053 35.6915 52.0372 37.6283C53.7473 41.4598 53.88 45.8105 52.4068 49.7391C50.9335 53.6678 47.9728 56.8584 44.165 58.6208C42.2361 59.3701 40.1779 59.7302 38.1091 59.6802C36.0403 59.6302 34.0019 59.1712 32.1114 58.3296C30.2208 57.4881 28.5156 56.2805 27.094 54.7767C25.6724 53.2729 24.5626 51.5026 23.8285 49.5677C22.1176 45.7331 21.9842 41.3792 23.4573 37.447C24.9303 33.5148 27.8914 30.3201 31.7007 28.5534Z" fill="#2A2941"/>
<path fill-rule="evenodd" clip-rule="evenodd" d="M60.3892 29.875L12.5 50.124L16.6985 60.3142L64.6096 40.0433L60.3892 29.875Z" fill="#2A2941"/>
<path d="M21.9979 56.1092L20.008 56.962C19.9001 57.0232 19.7793 57.058 19.6554 57.0636C19.5315 57.0692 19.408 57.0454 19.2951 56.9943C19.1821 56.9431 19.0828 56.866 19.0053 56.7692C18.9278 56.6724 18.8742 56.5586 18.849 56.4372L16.6623 51.2766C16.5709 51.0447 16.5709 50.7868 16.6623 50.5549C16.7171 50.445 16.7939 50.3475 16.8879 50.2685C16.982 50.1895 17.0912 50.1307 17.209 50.0957L19.3957 49.1991C19.668 49.0718 19.9542 48.9764 20.2485 48.9149C20.4798 48.8721 20.717 48.8721 20.9483 48.9149C21.145 48.9573 21.3359 49.0234 21.5168 49.1117C21.6951 49.2105 21.8573 49.3359 21.9979 49.4834C22.1372 49.6459 22.2481 49.8307 22.3259 50.0301C22.4661 50.3508 22.5057 50.7065 22.4393 51.0501C22.3729 51.3937 22.2037 51.7091 21.9541 51.9544C22.3644 51.8715 22.7908 51.9385 23.1559 52.1431C23.521 52.3477 23.8006 52.6764 23.9441 53.0696C24.1126 53.4312 24.1661 53.8357 24.0971 54.2286C24.0421 54.6048 23.8744 54.9556 23.6161 55.2345C23.435 55.4222 23.229 55.5841 23.0038 55.7156L21.9979 56.1092ZM20.6421 53.0915L19.2645 53.6819L20.0954 55.6937L21.5168 55.0814C22.4133 54.7097 22.7195 54.1849 22.4571 53.507C22.4093 53.3535 22.3212 53.2158 22.202 53.1081C22.0827 53.0003 21.9367 52.9266 21.7792 52.8947C21.389 52.8438 20.9925 52.9124 20.6421 53.0915ZM18.1274 50.9048L18.849 52.6761L20.0736 52.1731C20.3347 52.0739 20.5783 51.9336 20.7952 51.7576C20.9498 51.607 21.0433 51.4045 21.0576 51.1891C21.0983 51.0313 21.0983 50.8658 21.0576 50.708C21.0124 50.5634 20.9265 50.4349 20.8102 50.338C20.6938 50.241 20.5519 50.1797 20.4016 50.1613C20.0057 50.1853 19.6189 50.2895 19.2645 50.4674L18.1274 50.9048Z" fill="#2A2941"/>
<path d="M28.6651 49.8259L28.2059 50.0227L29.1024 52.2094C29.1938 52.4413 29.1938 52.6992 29.1024 52.9311C29.0711 53.0248 29.0196 53.1106 28.9516 53.1824C28.8836 53.2542 28.8007 53.3102 28.7088 53.3465C28.6184 53.3963 28.5168 53.4224 28.4136 53.4224C28.3104 53.4224 28.2088 53.3963 28.1184 53.3465C27.9143 53.2197 27.76 53.0268 27.681 52.7999L25.4943 47.508C25.4029 47.2761 25.4029 47.0182 25.4943 46.7864C25.5468 46.6749 25.6229 46.5761 25.7173 46.4968C25.8117 46.4175 25.9221 46.3596 26.041 46.3272L28.2277 45.4087C28.4758 45.2959 28.7315 45.2009 28.9931 45.1245C29.2107 45.0939 29.4315 45.0939 29.6491 45.1245C29.8896 45.1332 30.1266 45.1851 30.3488 45.2775C30.5746 45.3903 30.7812 45.5379 30.9611 45.7149C31.1322 45.9111 31.2723 46.1324 31.3766 46.3709C31.5481 46.8216 31.5481 47.3197 31.3766 47.7704C31.1825 48.2586 30.8378 48.6722 30.3926 48.9512C30.714 49 31.0246 49.1035 31.311 49.2574C31.6271 49.4182 31.9273 49.6085 32.2076 49.8259C32.4695 50.0033 32.7115 50.2086 32.9292 50.4382C33.0642 50.5601 33.182 50.6999 33.2791 50.8537C33.301 50.9546 33.301 51.059 33.2791 51.1598C33.2624 51.2715 33.2172 51.3769 33.1478 51.466C33.0713 51.5692 32.9642 51.6457 32.8417 51.6846C32.7062 51.7253 32.5617 51.7253 32.4262 51.6846C32.2929 51.6489 32.167 51.5897 32.0545 51.5097C31.8776 51.3988 31.7095 51.2745 31.5515 51.1379L30.6331 50.4382C30.3683 50.221 30.0827 50.0305 29.7803 49.8697C29.5992 49.7676 29.3974 49.7077 29.1899 49.6947C28.9713 49.7089 28.7567 49.7606 28.5557 49.8478L28.6651 49.8259ZM28.2277 46.6333L27.0032 47.1363L27.7904 49.0387L28.9712 48.5358C29.246 48.4274 29.5037 48.2801 29.7366 48.0984C29.9158 47.9747 30.0531 47.7992 30.1302 47.5955C30.1921 47.3812 30.1921 47.1537 30.1302 46.9394C30.0511 46.7672 29.9309 46.6171 29.7803 46.5021C29.6262 46.3963 29.4423 46.3427 29.2555 46.349C28.8835 46.3748 28.5198 46.4712 28.184 46.6333H28.2277Z" fill="#2A2941"/>
<path d="M40.8455 47.2141L40.1895 46.4925L37.5217 47.6296V48.6355C37.5595 48.9112 37.5595 49.1907 37.5217 49.4664C37.495 49.5482 37.4494 49.6224 37.3886 49.6832C37.3278 49.744 37.2535 49.7896 37.1718 49.8163C37.0894 49.8537 36.9999 49.8731 36.9094 49.8731C36.8189 49.8731 36.7294 49.8537 36.647 49.8163C36.5648 49.7858 36.4896 49.7391 36.4257 49.679C36.3619 49.6189 36.3107 49.5466 36.2753 49.4664C36.2527 49.3656 36.2527 49.2611 36.2753 49.1603C36.2753 49.051 36.2753 48.876 36.2753 48.6792L36.1222 43.5185C36.1222 43.3655 36.1222 43.1905 36.1222 42.9719C36.1103 42.7971 36.1103 42.6218 36.1222 42.447C36.1515 42.2941 36.2192 42.1511 36.319 42.0316C36.4179 41.8845 36.5647 41.7763 36.7345 41.7254C36.8983 41.6749 37.0736 41.6749 37.2374 41.7254C37.3859 41.7434 37.5282 41.7959 37.6529 41.8785L38.0028 42.1628L38.4183 42.622L41.9607 46.3175C42.166 46.5046 42.3363 46.7268 42.4637 46.9736C42.4968 47.0533 42.5138 47.1387 42.5138 47.225C42.5138 47.3113 42.4968 47.3968 42.4637 47.4765C42.436 47.5662 42.3881 47.6484 42.3237 47.7166C42.2592 47.7849 42.1799 47.8374 42.0919 47.8701H41.7858C41.707 47.8915 41.624 47.8915 41.5453 47.8701C41.4306 47.8074 41.3272 47.7261 41.2391 47.6296L40.8455 47.2141ZM37.4342 46.4269L39.4023 45.5959L37.2155 43.1905L37.4342 46.4269Z" fill="#2A2941"/>
<path d="M45.044 39.1349L49.2862 42.087L47.6025 38.0197C47.5222 37.8008 47.5222 37.5606 47.6025 37.3418C47.6278 37.2543 47.6724 37.1735 47.7329 37.1054C47.7934 37.0373 47.8684 36.9836 47.9523 36.9482C48.0385 36.9102 48.1316 36.8906 48.2257 36.8906C48.3198 36.8906 48.4129 36.9102 48.499 36.9482C48.6852 37.0794 48.8295 37.2616 48.9145 37.473L51.1012 42.8742C51.3418 43.4646 51.2324 43.8801 50.7513 44.0769H50.4015C50.2931 44.0976 50.1818 44.0976 50.0735 44.0769L49.7236 43.9019L49.3737 43.6614L45.2189 40.7312L46.8808 44.7548C46.9509 44.9678 46.9509 45.1977 46.8808 45.4108C46.8498 45.4994 46.8006 45.5807 46.7364 45.6493C46.6723 45.718 46.5945 45.7725 46.5082 45.8096C46.4218 45.8466 46.3287 45.8652 46.2348 45.8643C46.1408 45.8635 46.0481 45.843 45.9624 45.8044C45.7725 45.6824 45.6327 45.4961 45.5688 45.2796L43.3821 39.9877C43.3038 39.8079 43.2593 39.6151 43.2509 39.4192C43.2429 39.2558 43.289 39.0944 43.3821 38.96C43.4673 38.8184 43.5985 38.7103 43.7538 38.6538C43.8594 38.6134 43.9762 38.6134 44.0818 38.6538C44.1753 38.6315 44.2727 38.6315 44.3661 38.6538C44.477 38.6952 44.5803 38.7543 44.6723 38.8288L45.044 39.1349Z" fill="#2A2941"/>
<path d="M53.1128 34.8748L54.8404 34.1532C55.2261 33.9848 55.6295 33.8601 56.043 33.7815C56.4127 33.7384 56.7874 33.7834 57.1364 33.9127C57.649 34.1264 58.1096 34.4479 58.4869 34.8554C58.8642 35.2629 59.1494 35.7468 59.3231 36.2743C59.4736 36.6496 59.5907 37.0374 59.673 37.4333C59.7261 37.7811 59.7261 38.135 59.673 38.4829C59.6476 38.8219 59.5663 39.1544 59.4325 39.4669C59.3277 39.6986 59.1876 39.9126 59.017 40.1011C58.8409 40.2916 58.6427 40.4605 58.4266 40.604L57.6394 40.9976L55.9118 41.7411C55.7261 41.8227 55.524 41.8601 55.3214 41.8504C55.1744 41.827 55.0416 41.7489 54.9497 41.6318C54.8285 41.4725 54.7326 41.2955 54.6654 41.107L52.4787 36.0775C52.3873 35.8456 52.3873 35.5877 52.4787 35.3559C52.5428 35.2342 52.6328 35.1281 52.7424 35.0449C52.8519 34.9618 52.9784 34.9038 53.1128 34.8748ZM54.075 35.7714L55.9993 40.4291L57.0052 39.9917L57.53 39.7512L57.8799 39.5107C57.9865 39.4014 58.075 39.2759 58.1423 39.1389C58.2767 38.7618 58.3306 38.3607 58.3005 37.9614C58.2704 37.5622 58.1569 37.1737 57.9674 36.821C57.779 36.2871 57.4638 35.8068 57.0489 35.4215C56.7615 35.1994 56.4061 35.0835 56.043 35.0935C55.6643 35.1349 55.2949 35.2383 54.9497 35.3996L54.075 35.7714Z" fill="#2A2941"/>
<path fill-rule="evenodd" clip-rule="evenodd" d="M31.8778 16.09L37.7383 17.0959L43.0301 14.2969L47.7097 17.905H53.6795L56.1286 23.2624L61.3986 25.974L61.0268 31.8563L64.4162 36.6889L61.333 41.784L62.0327 47.6444L56.9158 50.7277L54.7291 56.2819L48.7812 56.6755L44.4077 60.6335L38.9847 58.2719L33.1899 59.737L29.5162 55.1011L23.7214 53.7453L22.6499 47.9505L18.2764 44.08L20.0695 38.4164L17.8828 32.9059L22.1032 28.7074L22.8467 22.8251L28.5322 21.0101L31.8778 16.09Z" fill="#FEC34E"/>
<path fill-rule="evenodd" clip-rule="evenodd" d="M32.2354 14.1867L30.9453 13.968L27.206 19.3474L20.9082 21.3373L20.121 27.8975L15.4414 32.5552L17.7812 38.6343L15.7913 44.8008L20.7333 49.1743L21.9141 55.5813L28.3212 57.0902L32.3666 62.1853L38.7737 60.5671L44.7654 63.1912L49.6855 58.8177L56.2456 58.3804L58.5854 52.2794L64.2272 48.8463L63.44 42.3954L66.8731 36.7756L63.1776 31.2432L63.5712 24.683L57.7326 21.7091L55.0429 15.783H48.4828L43.2346 12L37.418 15.0833L32.2354 14.1867ZM31.8856 16.1985L37.746 17.2044L43.0378 14.4054L47.7174 18.0135H53.6872L56.1363 23.3709L61.4063 26.0825L61.0346 31.9648L64.424 36.7974L61.3407 41.8925L62.0405 47.7529L56.9235 50.8362L54.7368 56.3905L48.7889 56.7841L44.4155 60.742L38.9924 58.3804L33.1976 59.8455L29.5239 55.2096L23.7291 53.8539L22.6576 48.0591L18.2842 44.1885L20.0773 38.5249L17.8905 33.0144L22.1109 28.8159L22.8544 22.9336L28.5399 21.1186L31.8856 16.1985Z" fill="#2A2941"/>
<path fill-rule="evenodd" clip-rule="evenodd" d="M34.9198 23.3659C37.7323 22.0078 40.8874 21.5244 43.9774 21.9782C47.0675 22.4319 49.9504 23.8019 52.2537 25.9112C54.557 28.0205 56.1748 30.7721 56.898 33.8104C57.6212 36.8487 57.4166 40.0341 56.3105 42.9548C55.2045 45.8756 53.2479 48.3976 50.6937 50.1948C48.1394 51.992 45.1048 52.9819 41.9821 53.0365C38.8594 53.0911 35.7921 52.2079 33.1766 50.5011C30.561 48.7943 28.5175 46.3423 27.31 43.4619C25.6848 39.7841 25.5719 35.6145 26.9959 31.8542C28.4198 28.0938 31.2662 25.0448 34.9198 23.3659Z" fill="white"/>
<path fill-rule="evenodd" clip-rule="evenodd" d="M34.1304 21.4911C30.8211 22.7018 27.9501 24.8756 25.8871 27.7324C23.8241 30.5893 22.6637 33.9983 22.5552 37.5204C22.4468 41.0426 23.3953 44.5165 25.2786 47.4949C27.1619 50.4732 29.8937 52.8195 33.1222 54.2316C36.3507 55.6437 39.928 56.0569 43.3934 55.4179C46.8588 54.779 50.0536 53.1172 52.5663 50.6466C55.0789 48.176 56.7943 45.0097 57.4916 41.5555C58.1889 38.1014 57.8361 34.5176 56.4787 31.2657C54.8055 27.0106 51.5136 23.5924 47.3245 21.7602C43.1354 19.928 38.3907 19.8312 34.1304 21.4911ZM34.9176 23.3717C37.7301 22.0136 40.8852 21.5302 43.9752 21.9839C47.0653 22.4376 49.9483 23.8076 52.2516 25.9169C54.5549 28.0262 56.1726 30.7778 56.8958 33.8161C57.619 36.8544 57.4144 40.0398 56.3084 42.9606C55.2023 45.8814 53.2458 48.4033 50.6915 50.2005C48.1372 51.9977 45.1027 52.9876 41.9799 53.0422C38.8572 53.0968 35.7899 52.2137 33.1744 50.5068C30.5588 48.8 28.5153 46.348 27.3078 43.4677C25.6826 39.7898 25.5698 35.6202 26.9937 31.8599C28.4176 28.0996 31.264 25.0505 34.9176 23.3717Z" fill="#2A2941"/>
<path fill-rule="evenodd" clip-rule="evenodd" d="M62.6648 24.625L16.3281 44.0212L20.4173 53.7521L66.7321 34.3778L62.6648 24.625Z" fill="#A694FE"/>
<path fill-rule="evenodd" clip-rule="evenodd" d="M69.4075 35.4671L63.7658 21.9531L13.668 42.9238L19.4409 56.4159L69.4075 35.4671ZM62.6724 24.5334L16.3358 43.9297L20.4249 53.6606L66.7397 34.2862L62.6724 24.5334Z" fill="#2A2941"/>
<path d="M25.536 49.7378L23.5898 50.5469C23.4832 50.5945 23.3677 50.6192 23.2509 50.6192C23.1341 50.6192 23.0186 50.5945 22.9119 50.5469C22.737 50.5469 22.6058 50.2845 22.4746 50.0002L20.4191 45.0801C20.3291 44.8555 20.3291 44.6049 20.4191 44.3803C20.4191 44.1835 20.6596 44.0523 20.9439 43.9211L22.9994 43.0683C23.2585 42.9511 23.5299 42.863 23.8085 42.8059C24.0397 42.7626 24.277 42.7626 24.5083 42.8059C24.6899 42.8521 24.8659 42.9181 25.0331 43.0027C25.207 43.0993 25.3686 43.2168 25.5141 43.3526C25.6401 43.5124 25.7432 43.6891 25.8203 43.8774C25.9592 44.1821 26.0002 44.5225 25.9375 44.8515C25.8749 45.1805 25.7117 45.4819 25.4704 45.7142C25.8661 45.6366 26.2764 45.7016 26.6287 45.8977C26.981 46.0939 27.2524 46.4085 27.3947 46.7857C27.5422 47.1378 27.595 47.5222 27.5478 47.901C27.487 48.2625 27.3195 48.5976 27.0667 48.8631C26.8918 49.0363 26.693 49.1836 26.4763 49.3005C26.1731 49.4673 25.859 49.6134 25.536 49.7378ZM24.224 46.8513L22.8901 47.4199L23.6773 49.3223L25.0768 48.7538C25.9296 48.382 26.2358 47.8791 25.9734 47.2449C25.9224 47.0993 25.8356 46.969 25.7209 46.8658C25.6063 46.7626 25.4675 46.6899 25.3173 46.6545C24.9416 46.6138 24.562 46.6821 24.224 46.8513ZM21.7749 44.6646L22.4746 46.3703L23.6554 45.8892C23.9087 45.7876 24.1448 45.6474 24.3552 45.4737C24.4313 45.4078 24.4937 45.3275 24.5387 45.2374C24.5837 45.1474 24.6105 45.0493 24.6176 44.9489C24.6596 44.7987 24.6596 44.6399 24.6176 44.4897C24.4645 44.1398 24.2677 43.9867 24.0053 43.9648C23.6197 43.9763 23.2404 44.0656 22.8901 44.2273L21.7749 44.6646Z" fill="#2A2941"/>
<path d="M31.968 43.7278L31.5306 43.9246L32.4053 46.1113C32.4504 46.2186 32.4736 46.3339 32.4736 46.4503C32.4736 46.5667 32.4504 46.6819 32.4053 46.7892C32.3701 46.8783 32.317 46.9591 32.2493 47.0268C32.1816 47.0945 32.1007 47.1476 32.0117 47.1828C31.9273 47.2269 31.8335 47.2499 31.7384 47.2499C31.6432 47.2499 31.5494 47.2269 31.465 47.1828C31.2654 47.0511 31.1123 46.8598 31.0277 46.6361L28.841 41.5848C28.7509 41.3602 28.7509 41.1096 28.841 40.8851C28.9513 40.6757 29.14 40.5185 29.3658 40.4477L31.5525 39.573C31.7947 39.4642 32.0429 39.3693 32.296 39.2887C32.5062 39.2579 32.7199 39.2579 32.9301 39.2887C33.1685 39.2955 33.4032 39.3492 33.6209 39.4468C33.8385 39.5443 34.0347 39.6839 34.1984 39.8573C34.3629 40.038 34.496 40.2449 34.592 40.4696C34.7627 40.9054 34.7627 41.3895 34.592 41.8253C34.4755 41.7737 34.3479 41.752 34.2209 41.7622C34.0939 41.7723 33.9714 41.8141 33.8646 41.8836C33.7578 41.9531 33.67 42.0482 33.6092 42.1602C33.5485 42.2722 33.5167 42.3977 33.5167 42.5251C33.5167 42.6525 33.5485 42.7779 33.6092 42.89C33.67 43.002 33.7578 43.0971 33.8646 43.1666C33.9714 43.2361 34.0939 43.2778 34.2209 43.288C34.3479 43.2982 34.4755 43.2765 34.592 43.2248C34.9035 43.3936 35.2031 43.5836 35.4886 43.7934C35.7271 43.9674 35.9536 44.1574 36.1665 44.3619C36.3043 44.4754 36.4162 44.617 36.4945 44.7774C36.5176 44.8708 36.5176 44.9683 36.4945 45.0617C36.4705 45.1751 36.4178 45.2805 36.3414 45.3678C36.2704 45.4624 36.1707 45.5315 36.0571 45.5646C35.9292 45.6064 35.7914 45.6064 35.6635 45.5646C35.5314 45.5366 35.4054 45.4847 35.2918 45.4116L34.8107 45.0617L33.9141 44.3838C33.6584 44.1817 33.388 43.999 33.1051 43.8371C32.923 43.7404 32.7207 43.688 32.5146 43.6841C32.3045 43.692 32.0973 43.7364 31.9024 43.8153L31.968 43.7278ZM31.5525 40.6664L30.3717 41.1693L31.137 42.9843L32.2741 42.4814C32.5397 42.3869 32.7901 42.2543 33.0176 42.0877C33.1853 41.9666 33.3145 41.7995 33.3893 41.6067C33.4732 41.4036 33.4732 41.1756 33.3893 40.9725C33.3255 40.8035 33.211 40.6583 33.0613 40.557C32.9114 40.462 32.7356 40.4162 32.5584 40.4258C32.2124 40.452 31.8728 40.5332 31.5525 40.6664Z" fill="#2A2941"/>
<path d="M43.7718 41.239L43.1158 40.5393L40.5355 41.6107V42.5948C40.5728 42.8559 40.5728 43.1209 40.5355 43.382C40.5355 43.5351 40.3824 43.6444 40.2074 43.7318C40.1288 43.7689 40.0429 43.7881 39.956 43.7881C39.869 43.7881 39.7832 43.7689 39.7045 43.7318C39.6231 43.7061 39.548 43.6636 39.4839 43.6072C39.4199 43.5507 39.3684 43.4814 39.3328 43.4039C39.3102 43.3031 39.3102 43.1985 39.3328 43.0977C39.3196 42.9449 39.3196 42.7913 39.3328 42.6385L39.1578 37.6965V37.1936C39.1349 37.0194 39.1349 36.8429 39.1578 36.6687C39.1883 36.5269 39.2479 36.3928 39.3328 36.2751C39.4361 36.1468 39.572 36.0486 39.7264 35.9909C39.8916 35.951 40.064 35.951 40.2293 35.9909C40.3711 36.009 40.5062 36.0615 40.6229 36.1439C40.7464 36.221 40.857 36.317 40.9509 36.4282L41.3664 36.8437L44.7996 40.3862C44.9912 40.5719 45.1535 40.7857 45.2806 41.0203C45.3131 41.0964 45.3299 41.1782 45.3299 41.2609C45.3299 41.3436 45.3131 41.4254 45.2806 41.5014C45.2503 41.5897 45.2014 41.6705 45.1373 41.7384C45.0732 41.8062 44.9953 41.8596 44.9089 41.895C44.8153 41.9158 44.7182 41.9158 44.6246 41.895C44.5456 41.9145 44.4631 41.9145 44.3841 41.895L44.0998 41.6545L43.7718 41.239ZM40.448 40.4737L42.3504 39.6864L40.1637 37.3685L40.448 40.4737Z" fill="#2A2941"/>
<path d="M47.8688 33.5014L51.9799 36.3442L50.3398 32.4299C50.2698 32.2243 50.2698 32.0014 50.3398 31.7958C50.3666 31.7116 50.412 31.6345 50.4725 31.5701C50.5331 31.5058 50.6073 31.4559 50.6897 31.424C50.7721 31.3866 50.8616 31.3672 50.9521 31.3672C51.0426 31.3672 51.1321 31.3866 51.2145 31.424C51.3938 31.5478 51.5311 31.7232 51.6081 31.927L53.7948 37.1095C54.0354 37.678 53.926 38.0717 53.4668 38.2466C53.3519 38.2744 53.2319 38.2744 53.117 38.2466C53.0086 38.2673 52.8973 38.2673 52.789 38.2466C52.672 38.2138 52.5612 38.1621 52.4609 38.0935L52.1329 37.8749L47.8688 35.0759L49.487 38.9245C49.5708 39.1276 49.5708 39.3556 49.487 39.5587C49.4602 39.6428 49.4149 39.7199 49.3543 39.7843C49.2938 39.8486 49.2196 39.8986 49.1371 39.9304C49.0567 39.9744 48.9664 39.9975 48.8747 39.9975C48.783 39.9975 48.6928 39.9744 48.6123 39.9304C48.4264 39.8138 48.2872 39.6359 48.2187 39.4274L46.032 34.3542C45.952 34.1891 45.9002 34.0117 45.8789 33.8294C45.8785 33.6739 45.9241 33.5217 46.0101 33.3921C46.1011 33.2556 46.2304 33.1491 46.3819 33.0859H46.688C46.7814 33.0636 46.8788 33.0636 46.9723 33.0859C47.0807 33.1323 47.1835 33.191 47.2784 33.2609L47.8688 33.5014Z" fill="#2A2941"/>
<path d="M55.6252 29.495L57.2871 28.7952C57.6648 28.6305 58.0614 28.513 58.4679 28.4454C58.8232 28.4026 59.1837 28.4476 59.5175 28.5766C60.0198 28.7589 60.4759 29.0492 60.8538 29.427C61.2316 29.8049 61.5219 30.261 61.7042 30.7633C61.864 31.1201 61.9814 31.4944 62.0541 31.8785C62.1076 32.2117 62.1076 32.5513 62.0541 32.8844C62.0309 33.2027 61.9494 33.5141 61.8136 33.8029C61.7136 34.0254 61.5809 34.2318 61.42 34.4151C61.262 34.6095 61.0692 34.7726 60.8514 34.8962L60.0861 35.2898L58.4023 35.9896C58.2248 36.0726 58.0294 36.1102 57.8337 36.0989C57.7624 36.0923 57.6936 36.0691 57.6329 36.0311C57.5721 35.9931 57.5211 35.9415 57.4839 35.8802C57.3701 35.7319 57.2746 35.5704 57.1996 35.3992L55.1878 30.5665C55.1041 30.3408 55.1041 30.0925 55.1878 29.8668C55.2393 29.7608 55.3127 29.667 55.4032 29.5916C55.4937 29.5162 55.5991 29.461 55.7126 29.4294L55.6252 29.495ZM56.5655 30.3478L58.4242 34.7213L59.3863 34.3277L59.8893 34.0871C60.0202 34.0301 60.139 33.9484 60.2391 33.8466C60.3387 33.7446 60.4201 33.6262 60.4797 33.4967C60.6115 33.1415 60.6641 32.7617 60.6339 32.384C60.6037 32.0063 60.4914 31.6398 60.3047 31.31C60.125 30.8013 59.8249 30.3437 59.4301 29.9761C59.1588 29.7554 58.8175 29.6391 58.4679 29.6481C58.1011 29.702 57.7417 29.7974 57.3964 29.9324L56.5655 30.3041V30.3478Z" fill="#2A2941"/>
</svg>
