<svg width="24" height="25" viewBox="0 0 24 25" fill="none" xmlns="http://www.w3.org/2000/svg">
<g clip-path="url(#clip0_244_2879)">
<path d="M16 4.09961H8C5.79086 4.09961 4 5.89047 4 8.09961V16.0996C4 18.3087 5.79086 20.0996 8 20.0996H16C18.2091 20.0996 20 18.3087 20 16.0996V8.09961C20 5.89047 18.2091 4.09961 16 4.09961Z" fill="#4C5EFE"/>
<path d="M12 15.0996C13.6569 15.0996 15 13.7565 15 12.0996C15 10.4428 13.6569 9.09961 12 9.09961C10.3431 9.09961 9 10.4428 9 12.0996C9 13.7565 10.3431 15.0996 12 15.0996Z" stroke="#313467" stroke-width="1.5" stroke-linecap="round" stroke-linejoin="round"/>
<path d="M16.5 7.59961V7.60061" stroke="#313467" stroke-width="1.5" stroke-linecap="round" stroke-linejoin="round"/>
</g>
<defs>
<clipPath id="clip0_244_2879">
<rect width="24" height="24" fill="white" transform="translate(0 0.0996094)"/>
</clipPath>
</defs>
</svg>
