<svg width="24" height="25" viewBox="0 0 24 25" fill="none" xmlns="http://www.w3.org/2000/svg">
<g clip-path="url(#clip0_244_2896)">
<path d="M6.9375 5.10061C6.93724 5.63104 6.72627 6.13964 6.35101 6.51453C5.97575 6.88942 5.46693 7.09987 4.9365 7.09961C4.40607 7.09934 3.89746 6.88838 3.52258 6.51312C3.14769 6.13786 2.93724 5.62904 2.9375 5.09861C2.93777 4.56818 3.14873 4.05957 3.52399 3.68469C3.89925 3.3098 4.40807 3.09934 4.9385 3.09961C5.46893 3.09987 5.97754 3.31084 6.35242 3.6861C6.72731 4.06136 6.93777 4.57018 6.9375 5.10061ZM6.9975 8.58061H2.9975V21.1006H6.9975V8.58061ZM13.3175 8.58061H9.3375V21.1006H13.2775V14.5306C13.2775 10.8706 18.0475 10.5306 18.0475 14.5306V21.1006H21.9975V13.1706C21.9975 7.00061 14.9375 7.23061 13.2775 10.2606L13.3175 8.58061Z" fill="#4C5EFE"/>
</g>
<defs>
<clipPath id="clip0_244_2896">
<rect width="24" height="24" fill="white" transform="translate(0 0.0996094)"/>
</clipPath>
</defs>
</svg>
