<svg width="140" height="40" viewBox="0 0 140 40" fill="none" xmlns="http://www.w3.org/2000/svg">
<path d="M45.4687 33.599H40.0232L34.6213 26.1496L29.1758 33.599H23.6868L31.8768 22.4031L24.1224 11.817H29.5679L34.5777 18.7001L39.5876 11.817H45.0766L37.3223 22.4466L45.4687 33.599Z" fill="white"/>
<path d="M64.3057 11.817H69.0106V33.599H64.3057V30.4624C62.5341 32.931 59.9928 34.1653 56.682 34.1653C53.6906 34.1653 51.1348 33.0617 49.0147 30.8545C46.8946 28.6182 45.8346 25.9027 45.8346 22.708C45.8346 19.4843 46.8946 16.7688 49.0147 14.5616C51.1348 12.3543 53.6906 11.2507 56.682 11.2507C59.9928 11.2507 62.5341 12.4705 64.3057 14.9101V11.817ZM52.4998 27.7179C53.8068 29.0248 55.4477 29.6782 57.4226 29.6782C59.3975 29.6782 61.0384 29.0248 62.3453 27.7179C63.6522 26.3819 64.3057 24.712 64.3057 22.708C64.3057 20.7041 63.6522 19.0486 62.3453 17.7417C61.0384 16.4058 59.3975 15.7378 57.4226 15.7378C55.4477 15.7378 53.8068 16.4058 52.4998 17.7417C51.1929 19.0486 50.5395 20.7041 50.5395 22.708C50.5395 24.712 51.1929 26.3819 52.4998 27.7179Z" fill="white"/>
<path d="M91.7458 5.64549L96.4507 4.19336V33.599H91.7458V30.4624C89.9742 32.931 87.433 34.1653 84.1221 34.1653C81.1307 34.1653 78.575 33.0617 76.4549 30.8545C74.3348 28.6182 73.2747 25.9027 73.2747 22.708C73.2747 19.4843 74.3348 16.7688 76.4549 14.5616C78.575 12.3543 81.1307 11.2507 84.1221 11.2507C87.433 11.2507 89.9742 12.4705 91.7458 14.9101V5.64549ZM79.94 27.7179C81.2469 29.0248 82.8878 29.6782 84.8627 29.6782C86.8376 29.6782 88.4785 29.0248 89.7854 27.7179C91.0924 26.3819 91.7458 24.712 91.7458 22.708C91.7458 20.7041 91.0924 19.0486 89.7854 17.7417C88.4785 16.4058 86.8376 15.7378 84.8627 15.7378C82.8878 15.7378 81.2469 16.4058 79.94 17.7417C78.6331 19.0486 77.9796 20.7041 77.9796 22.708C77.9796 24.712 78.6331 26.3819 79.94 27.7179Z" fill="white"/>
<path d="M112.216 34.1653C109.021 34.1653 106.306 33.0617 104.069 30.8545C101.833 28.6472 100.715 25.9317 100.715 22.708C100.715 19.4843 101.833 16.7688 104.069 14.5616C106.306 12.3543 109.021 11.2507 112.216 11.2507C115.439 11.2507 118.155 12.3543 120.362 14.5616C122.598 16.7688 123.717 19.4843 123.717 22.708C123.717 25.9317 122.598 28.6472 120.362 30.8545C118.155 33.0617 115.439 34.1653 112.216 34.1653ZM107.38 27.6307C108.687 28.9377 110.299 29.5911 112.216 29.5911C114.133 29.5911 115.744 28.9377 117.051 27.6307C118.358 26.3238 119.012 24.6829 119.012 22.708C119.012 20.7331 118.358 19.0922 117.051 17.7853C115.744 16.4784 114.133 15.8249 112.216 15.8249C110.299 15.8249 108.687 16.4784 107.38 17.7853C106.073 19.0922 105.42 20.7331 105.42 22.708C105.42 24.6829 106.073 26.3238 107.38 27.6307Z" fill="white"/>
<path d="M139.7 16.3477H134.298V26.803C134.298 27.7033 134.501 28.3568 134.908 28.7634C135.314 29.141 135.91 29.3588 136.694 29.4169C137.507 29.4459 138.509 29.4314 139.7 29.3733V33.599C136.098 34.0346 133.514 33.7297 131.945 32.6841C130.377 31.6096 129.593 29.6492 129.593 26.803V16.3477H125.585V11.817H129.593V5.66001L134.298 4.26597V11.817H139.7V16.3477Z" fill="white"/>
<path d="M6.18229 26.448C6.94739 27.9568 8.04958 28.9844 9.48888 29.5308C10.9207 30.0492 12.5062 30.0754 14.2455 29.6093C16.658 28.9629 18.2344 27.6084 18.9747 25.5459L23.3061 26.7305C22.0495 30.3446 19.3873 32.6965 15.3196 33.7865C11.8972 34.7035 8.85584 34.4059 6.19562 32.8938C3.52789 31.3536 1.76557 28.9844 0.908655 25.7864C0.0667757 22.6445 0.401917 19.7434 1.91408 17.0832C3.41873 14.3949 5.79813 12.6148 9.05227 11.7428C12.1381 10.916 14.9523 11.3195 17.4948 12.9534C20.0653 14.5798 21.764 16.9359 22.5909 20.0218C22.7187 20.4987 22.8317 21.1449 22.9299 21.9604L6.18229 26.448ZM5.148 22.7562L17.5194 19.4413C16.7523 17.8128 15.6911 16.714 14.336 16.1451C13.0089 15.5686 11.602 15.4795 10.1152 15.8779C8.43198 16.3289 7.15336 17.1676 6.27929 18.3941C5.40522 19.6205 5.02813 21.0745 5.148 22.7562Z" fill="white"/>
<path d="M6.18229 26.448C6.94739 27.9569 8.04958 28.9845 9.48888 29.5309C10.9207 30.0493 12.5062 30.0754 14.2455 29.6094C16.658 28.9629 18.2344 27.6085 18.9747 25.546L23.3061 26.7306C22.0495 30.3446 19.3873 32.6966 15.3196 33.7865C11.8972 34.7036 8.85584 34.406 6.19562 32.8939C3.52789 31.3536 1.76557 28.9845 0.908655 25.7865C0.0667757 22.6445 0.401918 19.7435 1.91408 17.0832C3.41873 14.395 5.79812 12.6149 9.05227 11.7429C12.1381 10.9161 14.9523 11.3196 17.4948 12.9535C20.0653 14.5799 21.764 16.936 22.5909 20.0218C22.7187 20.4987 22.8317 21.145 22.9299 21.9605L6.18229 26.448ZM5.148 22.7563L17.5194 19.4414C16.7523 17.8129 15.6911 16.7141 14.336 16.1451C13.0089 15.5686 11.602 15.4796 10.1152 15.878C8.43198 16.329 7.15335 17.1677 6.27929 18.3941C5.40522 19.6205 5.02813 21.0746 5.148 22.7563Z" fill="#4C5EFE"/>
</svg>
