<svg width="169" height="228" viewBox="0 0 169 228" fill="none" xmlns="http://www.w3.org/2000/svg">
<path d="M105.661 195.151C97.7997 189.957 90.0018 184.077 82.9076 177.875C79.6648 175.315 77.4142 172.157 76.4427 168.144C74.7008 160.348 71.0987 152.591 68.6959 144.952C68.0911 142.989 67.6499 141.524 65.3278 141.405C64.7696 141.441 64.8523 140.961 64.3267 140.769C63.801 140.577 62.7291 139.883 62.3245 139.496C61.9199 139.11 61.5388 139.376 61.3234 138.86C61.1081 138.344 60.9484 137.781 60.9586 137.223C60.8621 134.513 63.7039 133.27 65.7769 131.855C69.7889 137.444 74.3138 142.697 74.0663 149.771C80.1314 150.928 80.6678 151.069 84.7134 155.135C88.4055 158.874 92.5608 161.882 96.4551 165.41C99.5247 168.177 102.251 170.989 106.195 174.413C108.592 175.054 112.598 176.449 116.383 173.864L115.841 179.14C120.584 181.867 125.768 184.318 130.492 187.049C131.157 186.923 131.511 186.961 132.129 186.685C133.259 185.977 134.527 183.994 136.04 184.956C137.808 186.08 137.132 188.168 136.134 189.231C136.088 189.303 136.754 189.931 137.135 189.867C139.06 189.486 141.812 188.996 143.684 188.41C144.321 189.681 144.01 190.715 144.414 191.685C146.199 195.909 148.679 198.012 152.423 196.776C157.556 195.066 160.18 195.702 162.069 201.503C166.096 198.377 169.723 199.985 172.622 202.592C173.45 203.322 174.863 203.694 175.625 204.502C178.534 207.522 180.796 210.671 185 211.867C186.141 212.068 187.854 211.923 188.64 212.775C189.425 213.628 189.263 214.896 189.369 216.05L181.183 217.871C181.838 218.181 182.473 219.013 183.185 219.144C187.022 219.58 191.092 219.84 194.74 220.869C198.374 222.107 202.122 224.213 205.387 226.233C207.805 227.577 210.571 227.484 213.302 227.049C215.508 226.958 218.028 226.932 220.216 227.229C226.085 227.464 226.963 225.272 226.943 218.859L227.579 217.859L231.125 214.492C234.409 213.338 238.047 215.178 241.314 213.944C242.678 210.38 239.224 210.267 238.217 207.759C243.756 206.187 248.407 202.155 254.59 204.117C257.082 204.903 260.105 205.856 262.14 203.296C260.99 202.565 260.008 201.032 260.409 199.385C260.595 198.638 261.073 199.064 261.045 198.385C260.769 194.915 261.309 192.443 263.225 192.745C268.058 193.526 273.013 193.541 277.69 192.104C278.614 191.826 279.757 192.285 280.328 192.376L294.24 181.548C293.956 177.208 298.01 175.003 300.603 171.541C301.819 170.04 303.208 168.291 304.785 167.174C311.578 162.105 315.386 155.555 320.512 149.069C321.615 147.682 322.056 145.347 321.055 143.793C320.133 142.882 319.268 142.332 318.051 141.884L319.96 138.882C322.165 140.521 324.259 141.428 325.967 142.7C326.912 142.283 327.526 141.764 328.24 141.336C331.013 139.889 331.634 136.746 332.694 134.331C334.783 129.547 336.166 124.349 340.964 121.321C338.933 119.809 337.86 122.29 337.053 123.05C334.899 125.076 332.714 126.631 330.598 128.783C329.407 130.128 327.831 131.26 326.051 131.513C324.271 131.765 322.295 131.929 320.774 130.968C320.814 129.007 323.063 128.483 324.32 127.602C324.938 127.859 325.323 127.004 325.957 127.238C325.957 127.238 324.487 127.606 324.32 127.602C324.145 125.657 323.538 122.404 325.499 121.325C330.711 118.476 334.064 113.515 338.41 109.861C344.686 104.409 348.655 98.032 352.135 90.4832C352.866 88.7024 354.688 87.1419 356.317 86.1161C361.35 83.7363 365.479 80.0359 369.594 76.289C368.934 77.5673 369.061 80.0601 368.05 80.9283C361.565 86.2617 357.619 92.707 352.322 99.0333C350.927 100.693 349.488 101.932 350.142 104.673C350.585 106.652 349.115 109.616 348.327 111.95C349.518 113.607 350.676 111.957 351.602 111.222C353.975 109.335 355.779 107.47 358.058 105.49C360.751 103.179 363.682 101.003 366.787 98.3927C368.546 95.3855 371.011 91.8819 373.149 88.3856C374.425 86.3786 376.125 84.1217 374.964 81.1084C374.77 80.6115 375.022 80.589 375.6 80.1077C381.517 75.16 384.031 67.9329 385.05 60.8219C385.942 53.4109 387.814 46.1179 391.496 39.6268C393.21 36.7438 395.933 34.0373 392.946 30.7125C392.264 29.9395 392.591 27.7312 392.853 26.4374C393.339 24.0136 394.13 21.6368 394.668 19.1603C394.998 17.5708 395.288 16.0352 394.574 14.8852C390.426 8.17331 391.907 0.935912 392.469 -6.12568C392.553 -7.46682 392.68 -9.09133 392.375 -10.4007C392.006 -12.3333 390.581 -14.0424 390.28 -15.9487C388.731 -26.1348 385.362 -35.4087 382.075 -45.0533C380.897 -48.1375 379.082 -51.3184 378.248 -54.5119C376.922 -60.4483 373.464 -65.5693 370.323 -70.7915C369.497 -72.1657 368.525 -73.2853 368.593 -74.7022C368.804 -79.4741 365.998 -83.4885 364.036 -87.4352C362.461 -90.6267 361.757 -93.6859 360.21 -96.8939C358.982 -99.6816 357.419 -102.805 355.747 -105.352C353.183 -109.199 351.053 -113.349 349.553 -117.721C348.526 -120.411 347.504 -122.309 344.819 -123.541C341.841 -124.874 340.121 -128.438 338.083 -130.634L338.354 -133.272L338.083 -130.634C337.364 -132.177 336.077 -133.65 335.351 -135.181C331.912 -137.367 329.939 -139.739 331.524 -144.64C332.132 -146.477 331.14 -147.397 327.52 -147.185C326.408 -147.058 324.244 -146.59 323.244 -147.093C322.244 -147.596 322.439 -148.398 321.878 -149.367C320.028 -152.767 317.065 -154.983 314.141 -157.096C310.439 -159.933 306.11 -162.485 302.764 -165.734C298.299 -169.863 294.063 -174.09 289.656 -178.283C287.888 -179.968 285.057 -181.08 284.922 -184.103C284.788 -184.632 284.915 -185.328 284.557 -185.74C284.2 -186.153 284.061 -186.168 283.556 -186.377C281.225 -187.095 279.702 -189.57 278.186 -191.196C277.727 -191.72 277.878 -191.772 277.185 -191.833C276.492 -191.894 275.453 -190.903 274.911 -190.468C272.552 -189.03 272.415 -191.936 270.907 -193.014C267.459 -190.265 263.961 -190.417 260.353 -194.102C258.542 -195.826 256.795 -197.413 254.347 -197.921C248.593 -199.219 242.733 -202.176 237.422 -204.465C235.662 -205.228 234.586 -205.373 232.781 -206.01C231.514 -206.477 228.834 -206.64 228.141 -207.556C223.109 -214.269 215.384 -215.015 208.212 -216.009C198.506 -217.376 190.401 -221.279 181.37 -224.643C180.625 -224.977 179.516 -225.141 178.732 -224.916C177.947 -224.69 176.911 -224.229 176.458 -223.551C176.87 -223.289 177.994 -222.693 178.46 -222.278C175.92 -219.699 172.085 -221.665 169.273 -221.093C166.053 -220.44 163.347 -220.279 160.085 -219.908C156.823 -219.537 153.768 -219.173 150.898 -218.723C150.348 -218.941 149.376 -219.65 148.896 -219.996C147.976 -220.903 146.866 -221.779 145.892 -221.905C144.919 -222.032 144.595 -221.38 143.619 -220.54C142.949 -219.779 142.115 -218.468 141.71 -217.538C139.004 -218.308 137.11 -221.689 134.066 -220.992C131.022 -220.296 131.837 -223.968 129.697 -225.175C123.553 -222.732 116.432 -221.1 110.779 -217.53C93.9421 -206.877 77.963 -194.203 64.224 -179.679C55.8744 -171.212 48 -161.909 42.1345 -151.566C41.6032 -150.597 41.4782 -150.481 40.8621 -149.565C32.5622 -137.152 24.3168 -124.02 19.6895 -109.628C17.0826 -101.49 14.1417 -93.5103 11.3346 -85.4312C10.8902 -83.8416 10.5588 -81.7903 10.7919 -80.1555C11.0482 -78.5097 11.3045 -77.4916 10.8855 -75.8804C10.4665 -74.2693 9.36598 -73.1889 8.34066 -71.8776C4.85516 -67.6252 3.97622 -62.1231 3.07324 -56.959C2.80595 -55.0816 2.80045 -52.7979 3.53168 -51.0468C5.43714 -46.6097 5.95084 -43.0927 1.81017 -39.4945C1.33874 -39.001 0.72411 -38.1497 0.537757 -37.4931C0.351395 -36.8365 0.760879 -36.524 0.902635 -35.8559C2.74736 -31.6442 1.37678 -27.7123 0.182221 -23.6673C0.754771 -22.7215 1.74757 -21.5189 2.54928 -20.7572C5.04806 -18.9649 4.787 -16.7697 4.0088 -14.2086C3.51441 -12.6554 2.91545 -11.1334 2.46506 -9.56928C1.91169 -7.62918 1.30395 -5.09417 2.9235 -3.65708C4.96913 -1.84726 4.2991 0.0369775 3.38194 2.25512C3.19586 2.77657 3.86285 3.35085 3.74683 3.89228C2.29805 8.8453 2.00496 13.0626 7.30209 15.9888C8.96947 16.8961 9.88812 19.3398 11.0351 21.1725C10.7442 17.5921 11.0677 14.5316 10.4831 10.9853C8.50126 -2.16002 7.51893 -16.495 8.27514 -29.7637C8.39661 -33.4044 8.78028 -36.2021 10.3615 -39.6787C10.8529 -36.9216 10.4946 -34.7073 11.1849 -32.1294C11.8959 -28.8754 11.971 -25.2633 11.7368 -21.9421C11.7261 -19.4474 12.3162 -16.876 12.5602 -14.3928C13.7106 0.788971 15.0999 14.9805 18.1363 29.9026C18.4393 31.3515 19.5169 33.6508 17.5937 35.1784C15.5054 33.5961 15.0702 31.3279 14.4968 28.994C13.8273 26.2765 13.2239 23.1582 11.0351 21.1725C10.8311 21.6539 10.0442 23.1322 9.76271 23.1739C8.23319 23.6276 6.73219 23.1709 5.85191 24.9032C4.97163 26.6355 6.38909 27.5627 7.58276 28.814C7.98578 29.223 7.58871 30.5076 7.31144 31.4518C7.11521 32.0855 6.78911 33.475 7.04011 34.0897C7.29111 34.7044 8.45815 35.0463 9.04229 35.3626C9.76482 34.2261 10.0767 33.8341 10.6796 34.9983C12.1618 37.9455 13.4232 41.3415 14.5062 44.457C17.6278 53.3456 21.0388 62.6254 23.9838 71.5602C25.0123 74.6757 25.9729 76.9646 26.8093 80.3824C24.7785 80.0434 22.8934 79.3244 21.1676 78.2009C19.4418 77.0774 17.9302 75.7377 16.7984 74.018C15.5858 71.9088 13.9217 69.7702 12.0643 68.1979C12.0453 68.9498 11.4603 70.3696 11.7929 70.8358C14.1637 73.9262 15.9431 77.0976 16.6206 80.9309C16.7206 81.4766 16.6525 82.1239 16.9855 82.5681C21.9846 89.6 24.3353 98.4705 29.0079 105.668C30.7767 108.155 30.9611 110.808 30.8323 113.854C30.5938 118.134 32.0309 122.33 34.3876 125.951C38.2237 131.683 41.409 137.582 45.3153 144.14C45.9828 143.919 47.4188 143.702 48.5899 143.411C51.0982 142.782 52.8655 143.57 54.2316 145.593C57.6347 150.642 60.7957 155.633 64.4296 160.507C73.5702 172.871 84.3701 184.443 97.3813 192.698C101.268 195.169 104.858 198.219 110.031 199.334C109.349 196.609 107.338 196.285 105.661 195.151ZM83.2538 148.586L81.8879 146.313L82.5241 145.312C82.92 145.722 82.7271 146.403 82.889 146.949C83.0508 147.495 83.3627 148.028 83.2538 148.586ZM280.412 181.188C279.234 182.176 277.915 182.311 276.502 182.917C274.825 183.362 273.516 182.772 274.134 180.007L280.047 179.551L280.412 181.188ZM285.867 174.82C282.386 173.048 282.396 171.114 283.771 169.272C284.738 168.231 286.221 166.81 287.317 165.905L285.867 174.82ZM304.504 154.349C307.907 150.842 310.291 147.529 313.504 144.614C314.746 143.712 316.595 142.372 318.051 141.884C311.361 151.178 309.169 153.937 304.504 154.349ZM310.773 140.067L314.955 135.7C313.341 138.425 313.457 139.294 310.773 140.067ZM387.192 -6.67004C387.209 -7.15151 387.689 -7.16536 388.83 -7.03431C388.505 -6.71009 387.574 -6.92392 387.192 -6.67004ZM16.4336 -77.974C19.3492 -87.4271 21.3974 -97.168 24.6949 -106.446C30.1409 -122.093 38.2538 -137.217 47.4113 -151.022C45.9542 -147.687 44.835 -144.491 43.3227 -142.38C39.5075 -136.86 37.5709 -131.21 35.1456 -125.096C29.5885 -111.006 22.3886 -96.8877 18.9784 -81.9768C18.3048 -79.6963 17.1746 -77.4876 16.1623 -75.3361C15.927 -76.2496 16.2001 -77.2056 16.4336 -77.974ZM17.1634 -74.6996C17.0744 -73.5168 16.4372 -72.2021 16.2558 -71.0611C16.2241 -70.8775 15.5477 -70.9549 14.6185 -70.6968L17.1634 -74.6996ZM9.44466 -51.5031C9.88674 -52.5775 10.6878 -53.5531 11.3533 -54.5053C11.5581 -53.2515 12.1733 -52.4977 12.083 -51.2309C11.9516 -50.7033 11.3062 -49.6614 10.8106 -49.2295C10.6559 -49.9221 9.35187 -50.8491 9.44466 -51.5031ZM23.6751 12.3461C21.9369 -1.15218 22.5718 -14.2376 22.4682 -27.7663C22.5656 -29.1478 23.0021 -30.0717 23.3757 -31.4049C24.3112 -36.0052 25.5419 -40.3407 26.3696 -44.9586C28.1769 -55.0484 29.5499 -66.0635 33.265 -75.7045C37.2312 -86.0346 41.045 -95.7618 45.4371 -105.906C49.1591 -114.225 53.3291 -122.41 58.0677 -130.195C62.5394 -137.835 68.0767 -145.74 73.7016 -152.575C75.1077 -154.279 76.2072 -155.581 76.8826 -157.579C78.3869 -162.004 81.3499 -165.069 84.882 -167.95C84.083 -170.411 83.3351 -172.348 82.4214 -175.135C77.513 -170.463 75.1217 -164.661 71.241 -159.76C67.3602 -154.86 64.0967 -150.44 60.6968 -145.386C57.1651 -140.116 53.8165 -134.849 50.5174 -129.375C47.1466 -124.069 43.5066 -118.704 39.337 -114C42.0006 -121.559 45.0458 -128.899 50.059 -135.287C51.3782 -136.961 52.2454 -139.038 52.2389 -140.927C52.222 -145.42 55.8067 -148.331 58.601 -150.934C60.328 -152.224 61.4251 -153.812 61.7821 -155.938C62.363 -159.21 63.3608 -162.402 65.8706 -164.58C72.0724 -170.091 78.9677 -176.005 84.2364 -182.413C92.116 -192.121 101.264 -199.273 113.062 -203.432C122.168 -206.844 131.999 -209.178 141.168 -212.262C144.321 -213.128 148.104 -213.16 151.356 -212.811C151.237 -210.832 149.995 -211.731 149.083 -211.446C146.351 -210.653 142.829 -208.964 141.626 -206.35C140.423 -203.736 138.673 -203.748 136.443 -202.619C128.967 -198.883 121.057 -194.7 114.344 -189.97C106.658 -184.525 99.7666 -179.294 93.3398 -172.41C83.3507 -161.698 73.5082 -150.461 65.7958 -137.929C59.9362 -128.863 54.8052 -118.294 49.9841 -108.636C38.0195 -82.964 30.467 -56.4773 28.3811 -28.2227C27.707 -19.942 28.1535 -11.5117 27.9414 -3.20895C27.7149 6.05237 27.3809 15.1671 27.2303 24.4427C24.6999 20.8816 24.2758 16.6158 23.6751 12.3461ZM236.945 -90.9488C239.073 -82.9577 241.131 -75.4392 243.054 -67.3921C243.496 -65.4133 243.91 -62.7553 244.514 -60.8435C244.828 -62.576 245.095 -64.3584 245.056 -66.1192C244.696 -69.9646 244.552 -74.0994 244.139 -77.9436C244.021 -78.9869 242.607 -80.9265 245.047 -81.5822C246.042 -78.7085 246.88 -75.6655 247.872 -72.76C251.305 -61.61 253.381 -49.6661 253.898 -38.0153C254.646 -27.5138 254.205 -17.0725 252.279 -6.7251C249.747 6.16333 244.278 18.1466 239.929 30.3893C239.625 31.4628 238.783 32.5768 238.02 33.3915C233.717 37.1919 232.197 41.4546 229.75 46.4008C229.083 47.3691 228.698 48.5973 227.841 49.4029C223.271 46.2427 219.026 43.9382 215.463 40.1284C202.821 27.1549 193.6 11.1062 188.78 -6.34437C182.911 -27.7319 181.283 -48.6913 187.377 -70.4699C189.038 -76.8961 191.611 -83.912 194.188 -90.0278C194.707 -91.1919 194.659 -92.7762 192.457 -93.9386C191.335 -92.0766 190.515 -89.2884 189.641 -87.2979C184.52 -73.8097 180.798 -60.047 180.023 -45.6362C179.62 -37.8622 181.446 -29.6846 181.857 -21.9874C182.372 -12.1016 184.703 -3.18252 188.06 5.8443C192.255 16.9943 198.892 27.1372 206.818 36.0376C212.515 42.4266 218.15 48.9225 224.024 55.4072L219.57 62.4122C218.295 62.3913 216.557 62.6947 215.295 62.5043C205.344 59.8299 196.649 55.4942 188.995 48.5947C181.228 41.7721 175.196 32.4043 169.694 23.6771C165.932 17.7205 164.257 11.9708 161.404 5.76043C158.308 -0.894097 156.467 -8.46062 158.298 -15.8869C158.415 -16.3387 158.08 -17.0063 157.933 -17.5241C155.152 -17.883 153.854 -19.4348 153.564 -21.707C151.557 -35.4612 152.586 -50.1525 156.268 -63.5488C156.995 -65.3382 158.268 -67.2653 158.448 -69.1888C158.2 -76.3407 160.53 -82.1821 163.622 -88.3825C165.445 -92.0789 167.209 -95.4514 167.982 -99.6625C168.167 -101.196 168.645 -103.033 169.525 -104.302C170.406 -105.57 171.699 -106.958 173.071 -107.668C173.359 -107.882 173.564 -108.34 173.708 -108.669C173.851 -108.998 173.746 -108.312 173.708 -108.669C172.66 -110.524 173.51 -112.514 174.25 -113.945C175.243 -115.826 176.506 -117.092 177.431 -118.948C175.79 -119.041 174.681 -118.99 174.157 -118.22C171.624 -114.584 169.623 -110.874 167.158 -107.212C167.028 -107.006 165.947 -106.849 165.521 -106.848C164.864 -108.488 167.18 -111.142 165.063 -112.76C160.194 -104.379 159.101 -100.475 157.615 -92.2011C156.721 -87.0225 154.792 -81.6989 153.349 -76.646C148.754 -60.3535 147.248 -43.4341 148.194 -26.5264C148.24 -20.9904 149.201 -15.2362 150.205 -9.79053C151.762 -2.82522 152.305 3.99226 155.585 10.4918C156.192 11.6759 157.699 13.3727 157.316 14.4026C155.186 19.3302 157.205 23.5833 158.598 27.8641C162.218 39.151 168.096 49.8415 175.083 59.4225C176.523 61.3564 177.852 63.3781 180.182 66.8797C177.645 65.5216 177.018 64.9365 176.177 64.3339C165.414 56.6082 156.329 46.9419 149.232 35.962C141.232 23.5418 134.848 9.75242 131.559 -4.78284C129.61 -13.4576 127.237 -21.8266 128.359 -30.7052C129.183 -39.303 131.438 -48.1849 134.712 -56.1754C138.173 -64.0256 142.332 -72.2281 145.705 -80.1004C146.174 -81.2117 146.874 -81.3695 145.976 -82.7383C140.829 -79.6955 140.616 -72.4707 134.431 -69.0005C137.056 -86.1255 143.596 -101.738 151.506 -115.758C152.035 -116.744 151.902 -117.063 152.778 -117.759C156.895 -120.812 158.66 -125.361 162.05 -130.132C158.674 -128.645 156.357 -127.278 154.135 -130.949C145.057 -113.139 133.738 -96.6609 127.33 -77.7306C126.451 -78.5948 126.497 -79.4787 125.964 -80.0042C126.662 -82.2257 128.246 -83.7631 127.143 -86.2807L131.138 -99.1979C131.541 -100.791 132.977 -101.717 133.683 -103.201C136.95 -108.692 138.677 -115.477 139.858 -121.758C140.498 -125.152 141.82 -127.679 143.946 -130.4C146.072 -133.121 149.536 -136.055 152.675 -137.497C153.937 -138.061 155.398 -138.521 156.586 -139.226C161.089 -142.272 164.812 -142.347 168.777 -138.502C169.411 -138.18 170.082 -137.37 170.779 -137.229C172.759 -138.177 174.587 -139.563 177.328 -138.686C176.091 -136.74 174.492 -135.348 174.147 -133.683C173.185 -129.201 170.51 -125.75 168.15 -122.038C167.668 -121.038 168.073 -120.494 167.879 -119.401C169.933 -120.863 171.412 -122.6 172.697 -124.768C174.075 -127.095 175.452 -129.67 177.151 -131.773C179.072 -133.432 181.135 -133.601 183.335 -134.868C186.155 -132.091 189.088 -130.846 192.981 -130.14C195 -126.497 198.651 -124.489 201.719 -121.774C207.388 -116.883 212.265 -110.161 215.286 -103.313C217.581 -97.9661 219.228 -92.5023 222.209 -87.6704C226.484 -80.81 227.446 -72.6095 228.955 -65.1144C229.681 -61.4438 229.793 -58.1495 232.781 -55.6557C231.056 -50.2674 232.738 -45.6547 234.428 -40.557C236.117 -35.4593 236.302 -30.4614 234.437 -25.094C234.111 -24.1806 235.12 -22.8684 235.167 -21.8197C235.493 -19.6727 235.699 -18.0773 235.625 -15.9075C234.779 -8.21168 234.13 0.167255 233.183 7.83337C232.877 10.018 232.01 11.9034 232.005 14.1098C232.011 15.1157 232.733 16.1821 233.371 16.3834C235.976 17.259 233.495 20.5931 235.466 21.9314C237.84 18.568 239.541 14.7595 239.826 10.6513C241.23 -0.0344036 242.601 -11.2884 243.718 -22.0039C243.874 -23.376 243.525 -24.0045 242.989 -25.2782C241.355 -28.7786 242.1 -33.0103 243.073 -36.4662C241.932 -37.4407 241.269 -37.9867 240.706 -39.3762C240.142 -40.7657 239.471 -42.7958 239.611 -44.2877C239.842 -46.471 240.131 -49.0311 239.789 -51.2006C238.378 -57.3777 235.572 -62.7043 234.138 -68.8451C232.113 -77.721 228.604 -86.5783 227.299 -95.6761C227.061 -96.7496 226.663 -97.1271 225.933 -97.9497C221.359 -103.591 218.992 -110.884 215.641 -117.139C215.122 -118.114 215.321 -119.016 216.913 -119.141C220.12 -115.574 221.794 -110.179 226.382 -107.5C227.35 -106.885 228.03 -105.76 228.749 -104.59C229.285 -103.331 230.058 -102.55 231.116 -101.68C235.152 -99.4711 235.905 -94.9031 236.945 -90.9488ZM259.577 26.0181C257.59 30.2389 255.999 35.1052 253.944 39.2996C251.088 45.157 247.975 50.3819 242.764 54.6746C240.391 56.5615 238.956 57.7558 236.215 56.1317C234.84 55.08 233.963 53.9073 232.847 52.5852C234.856 49.2108 235.847 46.0562 237.571 42.9423C239.207 40.0812 240.984 36.3224 242.296 33.2994C243.91 29.5039 245.327 25.9281 246.656 22.0194C250.039 12.0991 253.532 3.17896 256.555 -6.8172C258.034 -11.8186 258.793 -17.8896 259.82 -23.0087C260.061 -24.1629 259.677 -25.9398 261.729 -26.0109C264.184 -22.9731 260.673 -17.8306 264.283 -14.5508L268.643 -25.8308C269.435 -24.7501 269.942 -24.2278 270.009 -23.5572C270.669 -18.0442 271.493 -11.9477 270.383 -6.45704C268.114 4.93707 264.508 15.5006 259.577 26.0181ZM307.975 27.2786L305.065 29.6444C305.065 29.6444 307.03 26.6266 307.975 27.2786ZM302.427 29.3722C302.482 29.1523 302.52 28.8242 303.063 28.3715C303.766 28.8179 304.204 29.1814 305.065 29.6444C304.387 33.6269 304.85 37.5704 303.344 41.1966C301.255 46.167 298.25 50.9925 295.438 55.843C293.53 54.1376 293.758 52.6815 294.343 50.9315C296.496 43.6416 300.311 36.6852 302.427 29.3722ZM276.866 34.1998C277.027 31.9419 278.85 29.5634 280.319 26.5583L278.504 33.8355L276.866 34.1998ZM261.13 36.8418L260.494 37.8425C260.234 38.17 260.145 38.0156 261.13 36.8418ZM258.407 47.7575C258.685 48.0698 258.627 49.7568 258.136 50.3954C256.515 52.5529 254.559 54.8252 252.681 56.764C252.148 57.308 250.378 55.6523 249.042 55.8554C249.779 49.3467 253.126 45.3834 255.947 40.5725C256.477 39.7382 258.638 39.2903 259.857 38.8432C259.475 41.6902 255.295 44.336 258.407 47.7575ZM280.244 53.2093C280.209 54.3074 280.071 55.0777 279.973 55.8471C279.875 56.6166 279.623 58.8045 278.064 58.8493C277.272 57.3948 277.343 55.1511 280.244 53.2093ZM287.532 70.4895L285.895 70.8538C286.1 70.424 286.438 70.2859 287.532 70.4895ZM276.895 80.5887L277.259 82.2259L275.257 80.953L276.895 80.5887ZM202.103 61.1435C207.194 63.3782 210.887 64.5626 214.387 66.1429C214.714 66.3508 214.515 67.3238 214.752 67.7801C214.421 69.6917 213.713 69.7433 212.479 69.1451C208.519 67.4426 204.484 64.7347 202.103 61.1435ZM186.273 59.5104C187.757 61.4842 189.32 64.0967 190.37 66.3312C190.754 67.1184 190.148 67.7951 190.099 68.9691C184.22 66.5044 181.461 62.9368 173.258 51.2366C166.535 41.6485 160.801 28.8811 160.413 20.587C162.175 23.5916 163.703 26.9583 164.875 29.0449C166.815 33.0101 168.319 36.0619 170.704 39.7765C175.6 46.4369 181.244 52.9522 186.273 59.5104ZM218.756 70.3259C220.061 69.3698 221.157 69.175 222.667 68.5966C226.072 68.0397 229.184 66.5721 232.126 64.7738C233.443 64.5751 234.357 64.6716 235.401 64.0453C238.46 62.2552 242.222 62.6425 244.953 64.4975C246.297 65.352 247.287 65.9811 248.958 67.0433C247.905 68.6997 246.951 71.5371 245.777 72.0469C241.307 73.9422 237.367 76.4103 232.042 75.9618C225.626 75.4647 225.208 75.0728 218.756 70.3259ZM226.485 62.5923C227.421 59.6223 228.56 58.2949 231.668 58.8616C233.414 59.1907 233.457 60.5947 232.126 64.7738C230.213 64.2535 228.356 63.0181 226.485 62.5923ZM92.1795 15.1476C93.2135 16.1954 94.1488 16.0091 95.1828 17.0569C95.0374 16.0116 94.7274 14.802 94.453 13.7826C93.8051 11.673 92.7726 12.4048 91.8146 13.5105C87.4607 11.1329 88.2042 7.0714 85.3497 3.77958L86.7998 -5.13475C86.5189 -5.602 86.8257 -6.55748 86.435 -6.77192C81.0563 -9.78393 77.7474 -14.22 79.8764 -20.7778C80.5321 -22.7718 79.9917 -25.5065 80.0542 -27.6907C80.3019 -35.6483 80.2874 -43.2059 84.1334 -51.7959C85.3496 -47.0501 86.8498 -43.4073 87.6887 -39.6993C87.8609 -38.6065 88.4037 -37.5309 88.4185 -36.425C89.0367 -29.2411 89.2109 -21.5324 89.8873 -14.4134C90.001 -13.0678 89.8134 -11.8537 90.6171 -11.139C93.7728 -8.08022 93.2348 -4.40519 93.8075 -0.67964C95.0709 8.94388 97.8335 18.6145 101.012 27.7885C101.328 29.1414 101.038 30.676 101.105 32.0636C96.5572 27.2368 95.9214 22.0725 94.5466 18.0577C93.7143 17.7385 93.0017 17.5497 92.5444 16.7848C92.0872 16.0199 92.066 16.0307 92.1795 15.1476ZM42.0877 -78.5266C42.3872 -78.9839 43.0034 -80.1136 43.3601 -80.528C43.0363 -79.885 42.498 -78.5034 42.0877 -78.5266ZM80.0355 -58.6167L80.4004 -56.9795L78.7631 -56.6153C78.6615 -56.9135 79.3573 -57.3039 79.3993 -57.616C79.4413 -57.928 78.8576 -58.9927 79.0344 -59.2531L80.0355 -58.6167ZM115.036 -98.1931L111.762 -97.4645C112.647 -100.06 114.815 -102.677 117.216 -103.833C119.91 -105.306 121.466 -107.379 122.671 -110.202C125.346 -115.292 129.477 -119.266 133.58 -122.939C134.149 -123.46 135.209 -123.406 136.854 -123.667C134.908 -117.316 133.059 -111.607 131.316 -106.111C129.33 -99.886 127.377 -92.9059 127.143 -86.2807C126.253 -84.079 125.341 -82.4205 125.964 -80.0042C123.663 -74.9614 121.989 -69.986 121.698 -64.4491C120.992 -53.1499 119.231 -41.8887 119.808 -30.521C120.368 -24.4525 120.909 -17.866 120.547 -11.7837C119.859 -6.03388 120.285 -0.441087 120.921 5.31642C121.153 8.05815 121.242 11.1187 121.108 13.8665C121.101 14.2523 119.575 14.361 118.835 15.2315C116.801 10.4074 114.911 6.43203 113.277 1.86202C109.067 -10.4749 106.455 -22.9745 106.522 -36.1569C106.572 -57.0409 107.094 -77.8109 115.036 -98.1931ZM106.036 -88.4581C106.442 -77.7588 101.659 -68.2795 99.7766 -58.7129C98.9087 -61.8505 98.2808 -65.7868 99.2246 -68.9001C100.014 -72.388 101.146 -76.3358 101.947 -79.8159C102.43 -83.0609 104.14 -85.7815 106.036 -88.4581ZM96.0249 -94.8225C93.6764 -100.034 95.3386 -104.638 98.0177 -109.013C98.4021 -109.617 98.9724 -108.945 99.655 -109.377C100.666 -108.293 100.779 -107.801 102.022 -106.467C100.069 -98.0996 100.778 -97.9127 96.0249 -94.8225ZM82.7581 -69.5325C82.7142 -68.8583 83.6156 -68.3574 83.123 -67.8953C82.6304 -67.4332 81.5255 -66.5315 80.8495 -66.5303C81.3223 -73.8525 82.3027 -82.0377 87.2958 -87.7254C85.9128 -81.9666 84.2159 -75.3286 82.7581 -69.5325ZM115.476 -123.207C117.585 -125.856 115.701 -131.021 121.838 -133.214C119.502 -127.908 117.967 -123.906 116.206 -119.933C115.695 -118.662 114.39 -117.09 113.661 -115.93C113.038 -114.95 112.304 -113.965 110.386 -115.201C111.168 -118.4 113.279 -120.754 115.476 -123.207ZM108.019 -118.111L109.292 -120.113L110.293 -119.476C109.805 -118.543 108.998 -118.502 108.019 -118.111ZM126.881 -68.1798C127.021 -67.693 127.47 -66.9966 127.246 -66.5427C127.077 -66.2767 126.187 -66.4729 125.608 -66.1784L125.244 -67.8156C125.613 -67.8353 126.781 -68.3964 126.881 -68.1798ZM133.037 32.6918C133.858 34.7762 134.578 37.0028 134.497 39.2404C133.632 37.1682 132.911 34.9321 133.037 32.6918ZM146.603 51.1528C137.056 37.2295 130.394 21.354 126.834 4.86004C126.662 4.08832 125.68 3.38686 128.106 2.85861C133.805 24.7826 145.815 43.7888 160.983 61.7002C154.378 59.3343 150.537 56.9984 146.603 51.1528ZM141.392 -141.86C136.103 -138.007 131.228 -135.101 126.479 -131.669C128.542 -140.985 131.162 -142.082 141.392 -141.86ZM135.386 -145.679C141.56 -150.684 142.776 -150.418 149.12 -149.594C145.613 -143.81 140.232 -146.723 135.386 -145.679ZM157.035 -148.777C157.032 -149.441 157.479 -149.663 157.671 -149.778C158.098 -150.042 158.818 -150.249 159.309 -150.142C159.539 -149.996 159.479 -148.867 159.674 -148.505L157.035 -148.777ZM202.262 -127.05C199.75 -129.025 196.135 -129.627 192.981 -130.14C193.62 -131.975 192.986 -134.294 196.162 -135.144C198.714 -132.553 202.245 -131.356 202.262 -127.05ZM167.86 -150.326C168.754 -149.673 169.326 -149.619 168.225 -148.689C167.971 -148.477 167.025 -148.318 166.588 -148.325C166.732 -148.98 167.652 -149.678 167.86 -150.326ZM164.857 -152.236C164.687 -152.344 164.725 -152.91 165.493 -153.237C166.16 -152.575 167.224 -151.037 167.86 -150.326C166.969 -150.607 165.711 -151.859 164.857 -152.236ZM208.811 -128.507C212.328 -127.46 213.19 -125.684 212.909 -121.686C209.78 -123.744 208.998 -125.485 208.811 -128.507ZM89.1856 28.7013C91.2806 33.4286 92.8768 37.2511 94.743 42.0707C94.9537 42.5951 94.7104 43.638 94.4717 44.7086C91.3342 41.7974 88.5713 38.3227 87.0057 34.3413C85.4399 30.3599 84.7718 26.1444 85.0877 21.8805C86.4341 23.8871 88.0938 26.5458 89.1856 28.7013ZM103.837 36.6108C103.837 36.6108 104.587 37.6951 104.202 38.2479C104.036 38.012 104.242 38.5333 104.202 38.2479C104.162 37.9626 103.743 36.883 103.837 36.6108ZM125.047 58.5262C125.513 58.3812 125.857 58.9559 126.048 59.1626C126.715 59.9495 126.879 60.5546 127.414 61.4362L126.778 62.4369C125.934 61.5365 125.511 59.6692 125.047 58.5262ZM105.119 50.0723C103.006 50.0532 102.491 48.0359 102.387 45.5251C104.358 46.6765 106.058 47.9531 105.119 50.0723ZM90.5796 77.3638C88.0146 69.2309 84.8945 60.6979 82.468 52.5342C82.2494 51.0301 82.3612 49.7788 82.3744 48.2592C84.0153 50.1173 85.4656 50.9845 85.7426 51.8057C86.7557 54.9454 86.8792 58.4977 87.9319 61.6287C89.2329 65.5456 90.7629 68.8207 92.1233 72.7245C92.9266 75.0178 93.4742 77.3666 91.9456 79.6374C91.1249 78.9857 91.0833 78.2824 90.5796 77.3638ZM92.9467 80.2739C97.1361 84.1936 96.9763 85.4567 98.5041 93.6433C95.1629 89.9403 94.4408 86.7753 92.9467 80.2739ZM142.112 146.661C139.58 144.09 136.906 141.66 133.739 139.932C128.936 137.647 124.802 133.51 122.633 128.656C117.491 117.73 109.565 107.393 107.42 95.0963C107.02 93.7692 107.319 93.058 106.691 91.822C103.149 82.2026 99.2068 72.136 95.847 62.4452C94.5043 58.6205 93.477 54.9559 92.2918 50.3486C96.1141 53.5087 98.7398 56.1131 99.7578 60.7159C100.109 62.9142 101.476 65.1504 102.855 66.9003C104.233 68.6502 105.804 69.2249 107.86 70.0825C109.623 70.909 111.002 72.7552 112.229 74.2655C115.364 77.786 118.433 80.5575 121.333 84.2685C124.373 88.2045 126.951 92.3106 131.437 94.908C132.977 95.802 133.94 98.6304 135.17 100.092C136.936 102.182 138.716 105.071 140.905 106.548C143.683 108.324 146.169 110.693 147.642 113.641C148.834 116.097 150.412 116.408 153.283 115.823C155.263 115.383 155.085 113.283 155.828 111.82C155.951 111.626 156.988 111.458 157.465 111.456L156.923 116.731C160.323 117.025 163.22 119.541 166.84 118.821C165.611 117.224 164.461 116.25 165.746 113.909C166.345 112.779 165.056 110.58 164.651 108.998C166.063 107.928 167.445 106.53 169.198 106.268C170.951 106.006 172.81 106.202 174.475 106.812C181.079 109.313 188.545 110.637 195.31 111.627C196.245 111.898 197.107 111.412 197.949 111.9L195.404 115.902C195.926 115.963 196.188 116.265 196.405 116.539C198.728 119.357 201.764 119.924 205.321 117.992C207.786 116.656 209.964 117.118 212.235 118.172C213.717 118.933 215.215 119.838 216.876 119.717C218.537 119.596 219.433 118.956 220.787 117.988C221.387 117.605 223.053 117.348 224.061 117.259C225.734 118.934 226.948 121.226 228.795 123.079C230.718 121.874 232.436 120.439 233.979 119.349C235.971 117.899 238.745 116.613 240.799 115.254C246.163 111.737 252.331 109.857 258.173 112.247C265.293 115.195 271.232 112.045 277.914 112.151C278.384 112.161 278.704 110.454 279.187 110.15C279.873 109.704 281.226 109.569 281.46 108.785C281.694 108.001 280.424 107.261 280.094 106.511C279.23 104.446 277.784 103.21 275.725 102.328C271.716 100.611 269.989 96.2995 267.623 92.9616C265.558 89.9514 264.927 86.9758 266.435 83.7751C267.046 82.466 269.347 82.6977 270.71 83.683C273.675 85.8393 274.109 85.0954 277.259 82.2259L282.901 84.4074C287.31 81.9646 291.457 79.6698 295.906 77.2182C296.445 74.2769 297.348 71.2947 297.356 68.3039C297.027 64.4327 297.741 60.3976 299.078 56.7517C300.415 53.1057 302.05 50.4841 304.803 47.7452C308.189 44.0169 310.721 38.4885 311.072 33.463C311.513 29.3463 311.363 25.3987 311.792 21.2743C312.099 18.2778 313.119 15.3885 313.243 12.36C313.137 10.982 313.002 9.45885 313.149 8.08499C315.477 -1.67387 314.044 -11.7002 315.132 -21.5681C315.544 -25.3979 314.501 -28.9835 315.217 -32.756C316.223 -37.9604 316.301 -43.3056 313.57 -47.8548C311.657 -51.2266 310.307 -55.1878 309.379 -58.9506C307.883 -64.2744 305.062 -69.7147 302.455 -74.5937L298.544 -72.8644C298.647 -77.8925 298.129 -81.6366 295.625 -85.9617C294.15 -88.4277 293.908 -92.008 292.8 -94.7839C291.39 -98.2096 288.769 -99.9021 286.063 -101.877C284.008 -103.404 282.921 -107.679 281.601 -110.335C281.28 -110.98 280.177 -111.02 279.599 -111.608C278.287 -112.968 277.507 -113.766 276.23 -115.154C274.589 -117.012 273.17 -119.061 271.496 -120.974C270.619 -121.974 269.333 -122.787 269.129 -123.884C268.612 -126.709 266.56 -128.243 264.395 -129.705C262.894 -130.659 261.637 -133.267 260.662 -134.888C259.07 -137.598 257.505 -139.998 254.291 -140.344C250.058 -140.879 247.112 -142.107 245.281 -146.072C244.779 -146.726 244.021 -146.985 243.279 -147.345C239.384 -149.991 235.175 -152.361 231.266 -154.982C224.124 -159.794 224.487 -160.549 220.796 -167.259C216.381 -165.448 212.214 -167.553 208.241 -169.62C205.045 -171.279 201.835 -172.814 198.595 -174.348C193.902 -176.567 189.034 -179.104 183.4 -176.982C182.24 -176.548 180.507 -176.791 179.125 -176.889C170.545 -177.426 162.216 -176.603 153.836 -174.7C149.756 -173.943 146.156 -173.95 142.01 -173.787C141.638 -173.711 140.737 -173.318 140.372 -173.423C140.008 -173.527 139.646 -173.798 139.371 -174.059C139.097 -174.32 139.129 -175.338 139.006 -175.696C138.884 -176.055 138.949 -175.322 139.006 -175.696C139.653 -176.468 140.048 -178.186 140.915 -178.698C144.466 -180.193 148.447 -181.451 152.011 -182.885C152.421 -183.049 152.373 -183.534 152.647 -183.886C152.106 -185.147 149.951 -183.899 150.28 -186.796C152.749 -188.629 155.048 -190.401 157.737 -191.892C167.548 -196.611 178.408 -198.594 189.21 -197.176C195.476 -196.469 201.847 -193.567 208.044 -193.634C214.241 -193.7 220.011 -192.385 225.877 -190.728C239.487 -186.767 252.219 -181.196 264.096 -173.456C272.777 -167.937 281.401 -161.532 288.215 -153.906C294.095 -147.35 300.733 -141.629 304.785 -133.536C305.055 -133.046 306.334 -132.59 306.787 -132.263C310.814 -129.397 311.536 -125.002 313.617 -120.895C320.951 -106.572 328.134 -91.9862 335.295 -77.604C336.018 -76.544 336.751 -75.599 337.662 -74.694L340.478 -81.3347C343.363 -78.0913 344.969 -75.4808 342.667 -71.5118C342.195 -70.5187 342.5 -68.3058 342.761 -67.2367C343.523 -63.1616 343.863 -59.6611 345.315 -55.7766C348.964 -47.3961 352.622 -39.1114 356.065 -30.6749C358.577 -24.2739 360.832 -17.2388 361.445 -10.3925C362.51 0.384687 362.593 11.3704 361.828 22.1706C361.016 34.6631 356.515 46.1186 349.75 56.6472C345.86 62.9518 342.485 70.0179 338.663 76.2972C339.337 77.2691 339.487 77.8188 340.029 78.5708C337.452 81.1261 334.709 82.5427 332.937 85.3037C330.184 89.7731 326.7 93.6827 322.664 97.0401C320.843 98.5138 318.703 101.149 319.212 104.682C320.513 104.259 322 103.735 323.122 102.952C326.454 99.6376 329.468 95.5742 332.759 92.2166C333.724 91.234 334.964 90.889 336.399 93.1252C334.882 95.6065 333.728 97.8326 331.945 100.13C327.308 105.552 321.831 110.386 318.491 116.87C316.25 121.251 313.249 126.033 309.219 129.243C308.155 130.12 307.959 131.028 307.311 132.245C304.641 137.102 300.596 141.359 296.402 144.982C294.809 146.364 293.401 148.097 293.221 149.986C292.693 155.015 289.729 158.232 286.222 160.994C279.358 166.443 271.886 171.525 264.853 176.917L263.122 173.006C262.01 174.294 260.747 176.511 259.941 178.01C258.935 180.312 257.38 182.273 255.123 183.378C254.586 183.779 254.141 183.602 253.486 183.742C252.83 183.882 252.503 184.253 251.849 184.106C251.194 183.96 250.38 183.24 249.846 182.834C249.313 182.427 248.159 182.153 247.844 181.561C252.767 177.187 258.346 173.343 263.029 168.731C267.95 163.985 272.536 158.934 276.848 153.629C280.857 148.606 287.691 144.953 289.665 137.889C288.692 137.95 288.408 138.003 288.028 138.254C282.144 143.256 275.719 148.333 269.934 153.449C269.221 154.296 268.419 155.416 268.025 156.451C265.527 161.076 260.664 163.706 258.753 168.824C258.513 169.469 257.216 169.859 256.48 170.189C253.463 171.613 251.354 174.228 249.388 176.921C248.42 177.893 246.747 178.132 245.477 178.651C240.343 181.244 234.738 182.132 229.834 185.568C228.917 186.207 226.838 185.947 225.558 185.66C208.997 182.16 192.644 179.109 178.151 169.573C176.939 168.896 176.454 168.135 175.148 167.663C163.2 162.415 151.71 155.504 142.112 146.661ZM193.823 209.045C191.73 208.138 189.212 209.627 188.817 205.862C191.341 204.326 192.5 207.461 194.459 208.044C195.704 208.493 196.917 208.357 198.098 208.952C196.611 210.944 194.891 209.503 193.823 209.045ZM153.686 179.312C153.086 179.655 152.086 180.524 151.412 180.677C151.262 180.191 150.862 179.278 151.047 179.04C151.453 178.492 152.656 177.827 153.321 177.675C153.669 177.608 153.89 178.054 154.322 178.311C154.236 178.768 153.998 178.967 153.686 179.312ZM165.97 184.311C166.2 184.457 166.34 185.459 166.335 185.948L165.334 185.312C161.668 182.761 157.984 180.894 154.322 178.311L154.593 175.673C158.529 178.413 162.072 181.511 165.97 184.311ZM146.313 173.219C146.781 173.899 147.635 174.67 147.679 175.493C147.719 176.232 147.883 177.839 147.408 178.131C146.529 178.633 145.123 179.074 144.133 178.86C143.168 178.586 141.899 176.73 141.766 175.949C140.78 169.907 135.576 166.89 131.933 162.672C132.98 162.546 135.201 162.267 136.209 162.58C140.714 165.224 143.413 168.876 146.313 173.219ZM220.571 213.403C221.309 214.048 222.919 214.586 223.575 215.313L221.301 216.678C220.833 215.759 220.251 215.385 219.935 214.404C219.864 214.223 220.507 213.345 220.571 213.403ZM101.171 140.304C102.026 140.93 103.26 142.193 103.538 143.214C103.815 144.236 103.052 145.883 102.63 146.853C100.241 144.112 100.307 143.134 101.171 140.304ZM107.636 150.035C113.676 147.594 115.534 148.01 120.191 152.397C122.098 154.516 123.475 155.763 124.925 158.217C127.396 159.465 129.546 161.426 131.933 162.672L134.758 171.494C133.846 171.437 132.979 171.536 132.12 171.222C127.387 168.451 122.745 165.228 118.105 162.312C117.211 161.674 116.568 162.033 116.103 161.039C115.09 158.969 114.553 155.978 113.642 153.854C109.211 154.245 108.854 154.698 107.636 150.035ZM101.451 153.13L102.087 152.129C102.59 152.39 103.162 153.917 103.453 154.402C103.745 154.887 103.823 155.474 103.818 156.04C103.099 155.364 102.089 153.882 101.451 153.13ZM178.9 203.773L177.899 203.137C178.119 202.988 178.635 203.784 178.9 203.773C178.668 203.643 179.165 203.762 178.9 203.773Z" fill="#4C5EFE"/>
</svg>
