<svg width="80" height="81" viewBox="0 0 80 81" fill="none" xmlns="http://www.w3.org/2000/svg">
<path d="M61.0551 56.9171C61.1566 55.1361 60.9149 53.3522 60.3432 51.6624C59.9073 50.3935 58.1348 52.631 59.2971 52.0256C59.4085 51.9675 57.4567 46.4706 57.5681 46.4076C56.8465 45.9669 59.9897 48.6209 59.3649 48.0349C59.2801 48.1025 59.1815 48.1506 59.0761 48.1759C58.9707 48.2013 58.861 48.2031 58.7548 48.1814C58.6485 48.1597 58.5484 48.115 58.4613 48.0503C58.3743 47.9857 58.3025 47.9027 58.251 47.8073C56.8554 46.0753 55.0809 44.6868 53.0641 43.7488C52.7977 43.6229 52.5458 43.4679 52.2891 43.3275L52.0809 43.2354C52.3812 42.4121 52.6766 41.5888 52.9672 40.78C52.3521 40.4119 50.4876 44.3397 49.8628 43.9764C49.795 43.9377 49.8628 43.9764 49.2284 43.9425C48.962 44.7707 50.381 41.2159 50.1582 42.0344C50.0178 42.5526 49.8143 42.7318 49.2719 42.6736C47.0575 42.4397 44.8187 42.696 42.7144 43.4243C41.6538 43.7924 41.8669 43.9086 41.2615 42.8722C40.6561 41.8358 40.1573 40.935 39.6197 39.9664L37.5468 41.1142C38.1328 42.1651 38.6317 43.2015 39.2613 44.1459C39.6972 44.7949 39.5374 45.1485 38.9901 45.5989C37.3365 46.9459 36.0045 48.6452 35.0914 50.5727C34.9558 50.8536 34.796 51.1296 34.6458 51.4057L34.5345 51.5897L30.5099 50.1368L29.7059 52.5002L33.9727 53.7788C33.9727 53.9677 33.9727 54.1711 33.9727 54.3745C33.7262 56.6701 34.018 58.9916 34.825 61.1548C34.8841 61.249 34.9204 61.3558 34.9308 61.4665C34.9412 61.5772 34.9256 61.6888 34.8851 61.7924C34.8446 61.896 34.7804 61.9887 34.6976 62.063C34.6149 62.1373 34.5159 62.1912 34.4085 62.2203C33.3188 62.7821 32.2582 63.402 31.1879 63.9928L32.3357 66.0608C33.4254 65.4555 34.486 64.913 35.4934 64.2931C35.5824 64.2091 35.6895 64.1465 35.8064 64.1101C35.9233 64.0737 36.0469 64.0645 36.1679 64.0832C36.2889 64.1019 36.4041 64.148 36.5046 64.2179C36.605 64.2879 36.6882 64.3799 36.7477 64.4868C38.1822 66.2492 40.0058 67.655 42.0751 68.5938C42.2931 68.7003 42.5013 68.8311 42.7193 68.9521L42.9856 69.0829L41.6005 72.9574L43.8574 73.7807C44.269 72.3665 44.671 70.9959 45.073 69.6205C45.1143 69.6009 45.1584 69.5879 45.2038 69.5818C45.412 69.5818 45.6154 69.5818 45.8237 69.5818C48.085 69.817 50.3701 69.5218 52.4974 68.7197C52.5971 68.6584 52.7097 68.6211 52.8262 68.6107C52.9428 68.6003 53.0602 68.6172 53.1691 68.6599C53.2781 68.7026 53.3756 68.7701 53.454 68.8569C53.5324 68.9438 53.5896 69.0477 53.621 69.1604C54.1683 70.2307 54.7785 71.2671 55.3694 72.3278L57.4422 71.1751C56.8368 70.0951 56.2992 69.0393 55.6745 68.0368C55.3452 67.5138 55.3548 67.199 55.8585 66.797C57.5702 65.4481 58.9502 63.7251 59.8928 61.7602C60.0284 61.4793 60.193 61.2081 60.3432 60.932L60.4788 60.656L64.3968 62.0653L65.2395 59.823L60.9776 58.5589C61.0018 58.0165 61.0309 57.4741 61.0551 56.9171ZM51.4852 63.3293C50.0619 64.133 48.4315 64.4948 46.8019 64.3686C45.1722 64.2424 43.617 63.6341 42.3342 62.6209C41.0515 61.6078 40.0994 60.2358 39.5992 58.6797C39.0989 57.1236 39.0732 55.4538 39.5252 53.883C39.9772 52.3122 40.8866 50.9115 42.1374 49.8594C43.3883 48.8072 44.924 48.1511 46.549 47.9748C48.174 47.7984 49.8148 48.1097 51.2622 48.8691C52.7097 49.6284 53.8983 50.8015 54.6768 52.2387C55.7048 54.1367 55.9464 56.3625 55.3494 58.4368C54.7525 60.5112 53.3648 62.2681 51.4852 63.3293Z" fill="#2A2941"/>
<path d="M39.6201 39.9662C40.1576 40.9348 40.7001 41.9276 41.2619 42.9107C41.6106 43.5161 41.6881 43.7292 41.8963 43.7292C42.1778 43.6697 42.4522 43.5804 42.7148 43.4629C44.3047 42.9099 45.9762 42.6283 47.6595 42.6298C48.1971 42.6298 48.7347 42.6589 49.2723 42.7122H49.4466C49.5916 42.7201 49.7354 42.6828 49.8583 42.6056C49.6452 43.0899 49.374 43.7098 49.2626 43.9714H49.2287C49.2107 44.0112 49.1993 44.0538 49.1948 44.0973C49.2211 44.0574 49.2438 44.0153 49.2626 43.9714C49.4999 43.9714 49.6307 43.9714 49.7082 43.9714H49.7808C49.8075 43.9625 49.8364 43.9625 49.8632 43.9714C49.8897 43.9868 49.9197 43.9951 49.9503 43.9956C50.6187 43.9956 52.2217 40.7507 52.8562 40.7507C52.8864 40.7435 52.9179 40.7435 52.9482 40.7507C52.6576 41.5595 52.3622 42.3828 52.0619 43.2062L52.2702 43.2982C52.5268 43.4386 52.7787 43.5936 53.045 43.7195C54.8465 44.5594 56.4568 45.7593 57.7767 47.2453C58.1642 48.4754 58.9197 50.679 59.1861 51.6041C58.9342 51.8462 58.7889 52.1223 58.9681 52.1223C59.0781 52.1073 59.1838 52.0694 59.2781 52.0109C59.2676 51.8715 59.2365 51.7344 59.1861 51.6041C59.367 51.4103 59.6106 51.2868 59.8738 51.2554C60.0578 51.2554 60.2273 51.3619 60.3242 51.6476C60.9043 53.3407 61.1526 55.1298 61.0555 56.9169C61.0555 57.4593 61.0022 58.0018 60.978 58.5248L65.2399 59.7888L64.3972 62.0263L60.4792 60.617L60.3435 60.8931C60.1934 61.1691 60.0288 61.4403 59.8931 61.7212C58.9583 63.7209 57.5724 65.4765 55.8443 66.85C55.36 67.252 55.331 67.5668 55.6603 68.0899C56.2851 69.0924 56.8227 70.1482 57.428 71.2282L55.36 72.3808C54.7692 71.3202 54.159 70.2838 53.6117 69.2135C53.4228 68.8502 53.2291 68.6759 52.9385 68.6759C52.7836 68.6798 52.6309 68.7126 52.4881 68.7727C50.847 69.3964 49.1052 69.7133 47.3496 69.7074C46.8411 69.7074 46.3277 69.7075 45.8143 69.6348C45.6061 69.6348 45.4027 69.6348 45.1944 69.6348C45.1491 69.6409 45.105 69.654 45.0637 69.6736C44.6617 71.049 44.2597 72.4196 43.848 73.8338L41.5912 73.0104L42.9763 69.136L42.7099 69.0052C42.492 68.8841 42.2837 68.7534 42.0658 68.6468C39.9964 67.708 38.1729 66.3023 36.7384 64.5399C36.6685 64.4249 36.5724 64.3281 36.458 64.2574C36.3435 64.1867 36.2139 64.1441 36.0798 64.1331C35.8654 64.1482 35.6594 64.2219 35.4841 64.3462C34.4767 64.9661 33.4161 65.5085 32.3264 66.1139L31.1786 64.0459C32.2489 63.4551 33.3095 62.8351 34.3992 62.2733C34.5065 62.2442 34.6056 62.1903 34.6883 62.116C34.7711 62.0417 34.8353 61.9491 34.8758 61.8455C34.9163 61.7419 34.9319 61.6303 34.9215 61.5195C34.9111 61.4088 34.8748 61.3021 34.8157 61.2079C34.0087 59.0447 33.7168 56.7232 33.9633 54.4276C33.9633 54.2241 33.9633 54.0208 33.9633 53.8319L29.6966 52.5533C29.9484 51.8075 30.1809 51.1004 30.5005 50.1899L34.5251 51.6428L34.6268 51.42C34.777 51.144 34.9368 50.8679 35.0724 50.587C35.9855 48.6595 37.3175 46.9602 38.9711 45.6132C39.5183 45.1725 39.6782 44.8189 39.2423 44.1603C38.6127 43.2159 38.1139 42.1794 37.5278 41.1285L39.6201 39.9662ZM47.5385 64.3849C48.9559 64.3794 50.3475 64.0057 51.577 63.3004C52.8065 62.5951 53.8316 61.5824 54.5519 60.3617C55.2722 59.1409 55.6629 57.7539 55.6857 56.3366C55.7085 54.9194 55.3626 53.5206 54.682 52.2772C53.9649 50.9786 52.9128 49.8959 51.6351 49.1421C50.3574 48.3882 48.9009 47.9908 47.4174 47.9911C45.9987 47.9932 44.6051 48.3649 43.3738 49.0695C42.1426 49.7741 41.1161 50.7873 40.3956 52.0094C39.675 53.2314 39.2854 54.6201 39.2649 56.0386C39.2444 57.4571 39.5938 58.8565 40.2787 60.0988C40.9969 61.3973 42.0491 62.4802 43.3263 63.2355C44.6036 63.9908 46.0595 64.3909 47.5433 64.3946M50.1828 41.9615C50.1828 41.9615 50.1828 41.9954 50.1828 42.0826C50.1477 42.2924 50.0417 42.4839 49.8825 42.625C49.9675 42.3941 50.0745 42.1719 50.2022 41.9615M57.491 46.4074C57.5275 46.4173 57.562 46.4337 57.5927 46.4559C57.5927 46.4559 57.5927 46.4946 57.5927 46.5479C57.5055 46.4607 57.4619 46.4074 57.4862 46.4074M57.5927 46.5479C57.9511 46.9063 59.0456 47.8216 59.3701 48.0928C59.2249 48.185 59.0577 48.2368 58.8858 48.243C58.7585 48.2323 58.6355 48.1917 58.5269 48.1243C58.4183 48.057 58.3272 47.9649 58.261 47.8555C58.1109 47.6763 57.9608 47.4971 57.8058 47.3228C57.6944 46.9644 57.6121 46.6835 57.583 46.5479M59.3749 48.0831C59.4427 48.1413 59.4669 48.1703 59.4621 48.1703L59.3604 48.0928M54.4398 36.9489L50.1683 39.9904C49.8875 39.9854 49.6096 40.0469 49.3571 40.1698C49.1046 40.2927 48.8847 40.4735 48.7154 40.6975C48.3667 40.6781 48.0228 40.6684 47.6838 40.6684C45.98 40.6659 44.2854 40.919 42.6567 41.4191L41.7994 39.8983C41.6348 39.5981 41.4701 39.2978 41.3151 38.9975L40.3756 37.3073L38.6853 38.2469L36.9564 39.1913L36.5883 39.3947L34.8884 40.3342L35.857 42.0293C36.0313 42.3393 36.196 42.6492 36.3413 42.9495C36.6173 43.4677 36.9031 43.9956 37.2179 44.5235C35.7306 45.8459 34.5007 47.4321 33.5904 49.2019L31.7791 48.5529L31.164 48.3301L29.3092 47.6666L28.6747 49.5312L28.1904 50.9551L27.8708 51.8995L27.2218 53.8028L29.159 54.3791L31.6726 55.1298L31.968 55.217C31.8776 57.1595 32.1251 59.103 32.6993 60.9609C32.1714 61.2466 31.6629 61.5323 31.164 61.8132L30.2439 62.3266L28.544 63.2662L29.5126 64.9661L30.1131 66.0413L30.6652 67.0099L31.6048 68.7001L33.295 67.7654L34.2636 67.2472C34.7818 66.9663 35.3146 66.6757 35.8425 66.3706C37.2036 67.8716 38.8267 69.1123 40.6323 70.032L39.8138 72.3227L39.1648 74.134L40.9277 74.8363L42.1578 75.2867L43.1845 75.6596L45.1218 76.3667L45.7029 74.3859C45.9742 73.4592 46.2405 72.5471 46.5021 71.6495C46.783 71.6495 47.0639 71.6495 47.3448 71.6495C49.0252 71.6536 50.6963 71.3987 52.2992 70.894C52.5801 71.4122 52.8659 71.9159 53.1467 72.4147C53.3211 72.715 53.4906 73.0201 53.6601 73.3252L54.6287 75.0155L56.319 74.0759L57.5878 73.3737L58.3918 72.9281L60.0869 71.9885L59.1183 70.2935L58.6049 69.3539C58.324 68.8405 58.0382 68.3175 57.738 67.7945C59.2474 66.4499 60.4924 64.8353 61.409 63.0337L63.7337 63.8715L65.5305 64.5157L66.2085 62.7286L66.5282 61.8762L67.0512 60.4911L67.7873 58.5539L65.792 57.963L62.9879 57.13V57.038C63.0984 55.0123 62.8223 52.9841 62.1742 51.0616C61.9754 50.4366 61.5388 49.9147 60.9586 49.6087L61.0652 49.3327L62.8135 48.364L60.8763 46.8239L61.4284 46.5237L58.5565 44.7753L54.9145 41.1382L55.331 39.971L53.9701 39.1525C53.8418 39.0794 53.7073 39.0179 53.5681 38.9685L54.4447 36.9683L54.4398 36.9489ZM54.4834 42.3005L54.6336 41.8889L54.7498 42.441L54.4834 42.3005ZM47.5385 62.4235C46.403 62.4118 45.2909 62.0989 44.3159 61.517C43.3408 60.935 42.5376 60.1047 41.9883 59.1108C41.5944 58.4086 41.3444 57.6349 41.2529 56.8349C41.1614 56.035 41.2303 55.2248 41.4556 54.4518C41.8167 53.142 42.5971 51.9867 43.6774 51.1627C44.7576 50.3388 46.0782 49.8916 47.4368 49.8896C48.5712 49.8924 49.6842 50.1988 50.6602 50.7771C51.6362 51.3553 52.4396 52.1844 52.9869 53.1781C53.7822 54.6215 53.974 56.3211 53.5202 57.9055C53.0665 59.4899 52.0042 60.8303 50.5654 61.6341C49.6458 62.1519 48.6083 62.4237 47.553 62.4235H47.5385Z" fill="#2A2941"/>
<path d="M61.4332 56.2001L65.4627 57.4012L64.6684 59.5273L60.9635 58.1857L60.8327 58.4473C60.6923 58.7088 60.5373 58.9655 60.4065 59.2367C59.5228 61.1238 58.2151 62.7813 56.5854 64.0798C56.101 64.4624 56.101 64.7578 56.411 65.2566C57.0018 66.2252 57.5152 67.1939 58.0867 68.24L56.1495 69.3297C55.5925 68.3223 55.0114 67.3392 54.4931 66.3221C54.4638 66.2155 54.41 66.1172 54.336 66.035C54.262 65.9528 54.1699 65.889 54.067 65.8485C53.9641 65.8081 53.8531 65.7922 53.743 65.8021C53.6329 65.812 53.5266 65.8475 53.4325 65.9056C51.4256 66.6623 49.2699 66.9409 47.1365 66.7192C46.9428 66.7192 46.7491 66.7192 46.5553 66.7192C46.5116 66.7255 46.4691 66.7385 46.4294 66.758C46.0517 68.0608 45.6691 69.3635 45.2816 70.7051L43.1458 69.9253C43.5284 68.8356 43.9933 67.5377 44.4534 66.2446L44.2016 66.1187C43.9982 66.0025 43.7996 65.8765 43.5914 65.7748C41.634 64.8814 39.9101 63.547 38.5546 61.8762C38.4984 61.7749 38.4197 61.6878 38.3247 61.6215C38.2297 61.5553 38.1208 61.5116 38.0063 61.4938C37.8919 61.4761 37.7749 61.4847 37.6642 61.5191C37.5536 61.5535 37.4523 61.6126 37.368 61.6921C36.3994 62.2781 35.4308 62.7915 34.3847 63.3678L33.295 61.4064C34.3072 60.8397 35.3097 60.2537 36.3413 59.7258C36.8256 59.4788 36.9321 59.2415 36.7336 58.7136C35.971 56.6559 35.6942 54.4498 35.9248 52.2675C35.9248 52.0738 35.9248 51.8801 35.9248 51.7009L31.8905 50.4853L32.6509 48.2381L36.4575 49.6087L36.5544 49.4004C36.6948 49.134 36.8498 48.8725 36.9806 48.6061C37.841 46.7793 39.0985 45.1677 40.6613 43.889C41.1795 43.4676 41.3297 43.1383 40.918 42.5136C40.3223 41.6176 39.8525 40.6393 39.2956 39.6368L41.2328 38.5471C41.7462 39.4721 42.2595 40.4165 42.7923 41.3464C43.325 42.2763 43.1603 42.2181 44.1677 41.8694C46.1566 41.1794 48.2736 40.938 50.3668 41.1623C50.8802 41.2156 51.0739 41.0461 51.2047 40.557C51.5098 39.4334 51.8876 38.3291 52.2556 37.1668L54.3914 37.903L53.0257 41.7096L53.2243 41.7968C53.4664 41.9324 53.7085 42.0777 53.9555 42.1988C55.8664 43.0969 57.545 44.4225 58.8616 46.0732C58.9139 46.17 58.9878 46.2534 59.0776 46.317C59.1673 46.3806 59.2705 46.4227 59.3792 46.44C59.4878 46.4574 59.599 46.4495 59.7041 46.4169C59.8091 46.3844 59.9053 46.3281 59.9852 46.2524C60.9538 45.6616 61.9708 45.1337 63.0121 44.5573L64.1018 46.5188C63.2591 47.0031 62.4067 47.4874 61.5398 47.9378C60.4404 48.5335 60.4307 48.5287 60.8473 49.7346C61.3866 51.3378 61.6151 53.0292 61.5204 54.7181C61.4817 55.1879 61.4575 55.7012 61.4332 56.2001ZM52.4542 60.7429C53.8061 60.0022 54.9082 58.8774 55.6211 57.5105C56.334 56.1437 56.6257 54.5963 56.4595 53.0637C56.2932 51.5312 55.6765 50.0823 54.6871 48.9001C53.6977 47.718 52.38 46.8556 50.9007 46.4221C49.4214 45.9885 47.8468 46.0031 46.3758 46.4641C44.9048 46.9251 43.6034 47.8118 42.6362 49.0122C41.6689 50.2125 41.0792 51.6726 40.9414 53.208C40.8037 54.7434 41.1242 56.2852 41.8624 57.6385C42.3524 58.5394 43.0155 59.3347 43.8136 59.9787C44.6118 60.6226 45.5292 61.1026 46.5134 61.3911C47.4975 61.6795 48.5289 61.7707 49.5484 61.6595C50.5679 61.5483 51.5554 61.2368 52.4542 60.7429Z" fill="#A694FE"/>
<path d="M52.2402 37.138L54.376 37.8741L53.0103 41.6808L53.2088 41.768C53.451 41.9036 53.6932 42.0489 53.9402 42.1699C55.851 43.068 57.5297 44.3937 58.8462 46.0444C58.9099 46.1483 58.9969 46.2361 59.1003 46.3008C59.2036 46.3655 59.3205 46.4054 59.4419 46.4173C59.6323 46.4024 59.8149 46.3354 59.9698 46.2236C60.9384 45.6328 61.9554 45.1049 62.9967 44.5285L64.0864 46.49C63.2437 46.9743 62.3913 47.4586 61.5244 47.909C60.425 48.5047 60.4153 48.4998 60.8318 49.7058C61.3712 51.309 61.5997 53.0004 61.505 54.6893C61.4808 55.2075 61.4566 55.7209 61.4324 56.2197L65.4618 57.4208L64.6675 59.5469L60.9626 58.2054L60.8318 58.4669C60.6914 58.7284 60.5364 58.9851 60.4056 59.2563C59.522 61.1434 58.2142 62.8009 56.5845 64.0994C56.1002 64.482 56.1002 64.7774 56.4101 65.2763C57.001 66.2449 57.5143 67.2135 58.0858 68.2596L56.1486 69.3493C55.5916 68.3419 55.0105 67.3588 54.4923 66.3417C54.3179 65.9979 54.1339 65.8284 53.8578 65.8284C53.7111 65.8349 53.5668 65.8678 53.4316 65.9252C51.8852 66.5146 50.2436 66.8151 48.5886 66.8115C48.1043 66.8115 47.62 66.8115 47.1356 66.7389C46.9419 66.7389 46.7482 66.7389 46.5545 66.7389C46.5123 66.7451 46.4714 66.7582 46.4334 66.7776C46.0556 68.0804 45.673 69.3832 45.2856 70.7247L43.1498 69.945C43.5324 68.8553 43.9973 67.5573 44.4574 66.2642L44.2056 66.1383C44.0022 66.0221 43.8036 65.8962 43.5954 65.7945C41.638 64.9011 39.9141 63.5667 38.5586 61.8958C38.4932 61.7868 38.4029 61.6949 38.2952 61.6275C38.1874 61.5602 38.0653 61.5193 37.9387 61.5083C37.7345 61.5218 37.5382 61.5923 37.372 61.7117C36.4034 62.2978 35.4348 62.8111 34.3887 63.3874L33.299 61.426C34.3112 60.8594 35.3137 60.2734 36.3453 59.7455C36.8296 59.4985 36.9361 59.2612 36.7376 58.7333C35.975 56.6755 35.6982 54.4695 35.9288 52.2871C35.9288 52.0934 35.9288 51.8997 35.9288 51.7205L31.8945 50.5049C32.1366 49.7978 32.3788 49.1294 32.6549 48.2577L36.4615 49.6283C36.4954 49.5605 36.5245 49.4878 36.5584 49.42C36.6988 49.1537 36.8538 48.8921 36.9846 48.6258C37.845 46.799 39.1025 45.1873 40.6653 43.9086C41.1835 43.4873 41.3336 43.1579 40.922 42.5332C40.3263 41.6372 39.8517 40.6589 39.2996 39.6564L41.2368 38.5667C41.7502 39.4917 42.2635 40.4361 42.7962 41.366C43.1256 41.9423 43.1982 42.1457 43.3919 42.1457C43.6597 42.0863 43.921 42.0004 44.1717 41.8891C45.6731 41.3683 47.2512 41.1031 48.8404 41.1045C49.3515 41.1038 49.8624 41.1297 50.3708 41.182H50.5355C50.9278 41.182 51.0924 40.9979 51.2087 40.5669C51.5138 39.4433 51.8915 38.3391 52.2596 37.1767M48.7436 61.7553C50.0519 61.7555 51.3387 61.4222 52.4824 60.7867C53.9812 59.9362 55.1565 58.6137 55.825 57.0253C56.4936 55.4369 56.6177 53.6719 56.1782 52.0056C55.7387 50.3392 54.7601 48.8652 53.3952 47.8131C52.0302 46.7611 50.3555 46.1903 48.6321 46.1897C47.3253 46.1893 46.04 46.5227 44.8982 47.1583C43.1123 48.1633 41.7949 49.832 41.2319 51.8023C40.6688 53.7726 40.9055 55.8855 41.8906 57.6823C42.5673 58.9098 43.559 59.9347 44.7635 60.6515C45.968 61.3683 47.3419 61.751 48.7436 61.7602M51.0004 34.639L50.3902 36.5762C50.2836 36.9152 50.1771 37.2445 50.0705 37.5739C49.9059 38.0921 49.7364 38.6248 49.5862 39.1624H48.8356C47.2526 39.1631 45.6781 39.3948 44.162 39.8501L43.3968 38.4747L42.9125 37.6223L41.9729 35.9272L40.2778 36.8716L38.4084 37.879L38.3164 37.9274L36.6262 38.8718L37.5657 40.5621C37.7304 40.8575 37.8854 41.1481 38.05 41.4338C38.3019 41.9181 38.5343 42.4024 38.8395 42.8867C37.4772 44.1231 36.3443 45.5905 35.4929 47.2213L33.2893 46.427L31.4296 45.7587L30.7951 47.6281L30.4222 48.7372L30.0348 49.8753L29.3906 51.7738L31.3279 52.3501L33.4879 53.0039L33.9092 53.1298C33.837 54.931 34.0661 56.7316 34.5872 58.4572C34.1029 58.709 33.6574 58.9706 33.207 59.2224L32.34 59.7067L30.645 60.6463L31.5845 62.3414L32.4757 63.9396L32.6742 64.3028L33.6138 65.993L35.3088 65.0535L36.2048 64.5692C36.6891 64.3173 37.1444 64.0558 37.6238 63.7846C38.8864 65.1664 40.3834 66.3141 42.0456 67.1747L41.7986 67.814L41.2852 69.2669L40.6411 71.0734L42.4427 71.7321L43.4985 72.1195L44.5785 72.5167L46.5157 73.2286L47.0969 71.2381L47.8282 68.7197C48.0704 68.7197 48.3125 68.7197 48.5498 68.7197C50.1177 68.7323 51.6786 68.5086 53.1798 68.0562C53.4365 68.5405 53.6932 68.9812 53.945 69.4268L54.4293 70.2937L55.3737 71.9887L57.0639 71.0201L58.5169 70.221L59.0399 69.9353L60.735 68.9909L59.7664 67.3007L59.2821 66.4095C59.0302 65.9252 58.7687 65.4651 58.4975 64.9905C59.884 63.7378 61.0325 62.2447 61.8876 60.5833L63.9992 61.3437L65.8008 61.9927L66.4692 60.2007L66.8421 59.2321L67.2683 58.094L67.9996 56.1567L66.0139 55.5465L63.7716 54.8782L63.4374 54.7765C63.5298 52.9755 63.3053 51.1723 62.7739 49.4491L64.2268 48.6306L64.9969 48.1996L66.692 47.2552L65.7524 45.5649L65.4812 45.0806L64.6627 43.6277L63.7232 41.9326L62.0281 42.8722L61.1321 43.3565C60.6478 43.6083 60.1635 43.8699 59.7131 44.1411C58.4764 42.7766 57.0092 41.6405 55.3785 40.7848L56.168 38.5764L56.8315 36.7312L54.9766 36.0919L53.7271 35.6609L52.8408 35.3558L51.0004 34.639ZM48.7387 59.76C47.6818 59.7475 46.6471 59.4549 45.7401 58.9121C44.8332 58.3693 44.0864 57.5957 43.576 56.6701C43.2099 56.0121 42.9786 55.2878 42.8954 54.5394C42.8123 53.7911 42.879 53.0336 43.0917 52.3113C43.4223 51.0936 44.1443 50.0185 45.1465 49.2518C46.1486 48.4851 47.3752 48.0694 48.637 48.0688C49.6934 48.0723 50.7297 48.359 51.6377 48.8991C52.5457 49.4391 53.2923 50.2127 53.7997 51.1393C54.5457 52.4858 54.7269 54.0732 54.3038 55.5532C53.8807 57.0331 52.8878 58.2848 51.5428 59.0335C50.6897 59.5136 49.7272 59.7655 48.7484 59.7648L48.7387 59.76Z" fill="#2A2941"/>
<path fill-rule="evenodd" clip-rule="evenodd" d="M50.2256 13.2905L27.7973 20.1918L14.8566 35.249C11.8588 38.8909 16.5178 43.2545 20.2615 40.2664C20.2615 40.2664 28.054 30.987 28.4076 30.8514C29.0323 30.6916 28.8919 31.1953 29.2696 31.5924C31.0277 33.2778 35.3477 32.3044 38.9122 31.1372C44.4236 34.784 53.0975 30.7352 54.7006 24.0857L50.2256 13.2905Z" fill="#2A2941"/>
<path fill-rule="evenodd" clip-rule="evenodd" d="M37.4403 31.5294C35.7937 31.9072 30.7424 33.6797 29.3282 31.5294C26.8582 27.8729 33.2559 26.3328 38.8981 24.9913" fill="#2A2941"/>
<path fill-rule="evenodd" clip-rule="evenodd" d="M62.8031 24.8459L56.0712 8.60712L48.9374 11.5953L55.5143 27.931L62.8031 24.8459Z" fill="#2A2941"/>
<path fill-rule="evenodd" clip-rule="evenodd" d="M49.3251 9.79364L26.9017 16.7192L13.9561 31.7812C10.9583 35.4183 15.6173 39.7819 19.361 36.7986C19.361 36.7986 27.1583 27.5144 27.5119 27.3788C28.1318 27.2239 27.9962 27.7227 28.374 28.1198C30.1272 29.8052 34.452 28.8366 38.0165 27.6646C43.5231 31.3162 52.2019 27.2674 53.8049 20.6179L49.3251 9.79364Z" fill="white"/>
<path fill-rule="evenodd" clip-rule="evenodd" d="M27.5458 28.6816C27.5991 28.7543 27.662 28.7639 27.7153 28.8414C28.5677 29.6454 29.8947 30.0086 31.5365 30.0231C33.7167 29.864 35.8655 29.4111 37.9245 28.6768C40.8304 30.4348 44.5644 30.3476 47.785 28.856C51.0056 27.3643 53.8873 24.4294 54.7106 20.8068L54.8171 20.5646L49.9402 8.64581L26.3496 15.8039L13.2248 31.1661C11.2876 33.4714 11.8639 36.0092 13.4573 37.4621C14.3447 38.275 15.5012 38.7312 16.7046 38.7428C17.908 38.7544 19.0732 38.3207 19.9761 37.5251L20.0536 37.4718L20.1262 37.4185C20.1262 37.4185 25.6764 30.7351 27.5458 28.6816ZM48.7875 11.0238L52.7346 20.6712C52.295 22.0939 51.5497 23.4032 50.5508 24.5075C49.5519 25.6118 48.3236 26.4844 46.952 27.064C44.2302 28.3135 41.0386 28.4879 38.5541 26.8122L38.2006 26.5507L37.7163 26.6669C35.6822 27.374 33.3914 28.0375 31.4784 28.0375C30.4856 28.0617 29.5896 27.9116 29.0568 27.4272C28.9406 27.3401 28.9503 27.2771 28.897 27.1996C28.8491 27.0694 28.7822 26.947 28.6985 26.8364C28.525 26.631 28.2924 26.4841 28.0324 26.4156C27.7724 26.3471 27.4977 26.3605 27.2455 26.4538C26.93 26.5469 26.6477 26.7284 26.4319 26.9768C25.0565 28.454 19.3368 35.2537 18.683 36.0625C18.1502 36.539 17.4605 36.8024 16.7458 36.8024C16.031 36.8024 15.3413 36.539 14.8085 36.0625C13.8399 35.1713 13.559 33.7329 14.7068 32.4156L27.4877 17.528L48.7875 11.0238Z" fill="#2A2941"/>
<path fill-rule="evenodd" clip-rule="evenodd" d="M36.3218 27.0741C35.3532 27.3066 33.261 27.9991 31.4012 28.0766C30.9223 28.1328 30.437 28.095 29.9725 27.9652C29.8288 27.9406 29.6915 27.8877 29.5684 27.8096C29.4454 27.7314 29.339 27.6296 29.2557 27.51C28.9768 27.1801 28.8378 26.7543 28.8683 26.3234C29.0419 25.9254 29.3303 25.5882 29.6965 25.3548C31.5078 24.0181 35.0238 23.2335 38.2493 22.4054L39.2179 22.1777L38.7336 20.3132L37.765 20.5456C34.2586 21.3932 30.4713 22.323 28.5632 23.7808C28.1453 23.9942 27.7809 24.2992 27.4972 24.673C27.2136 25.0468 27.0179 25.4798 26.9248 25.9397C26.8317 26.3996 26.8436 26.8746 26.9595 27.3293C27.0755 27.7839 27.2926 28.2066 27.5946 28.5658C28.3259 29.6797 29.7643 30.1252 31.4206 30.0768C33.4208 29.9606 35.7212 29.2341 36.748 29.0162L37.7166 28.7837L37.2323 26.8465L36.3218 27.0741Z" fill="#2A2941"/>
<path fill-rule="evenodd" clip-rule="evenodd" d="M62.4453 20.8796L55.7134 4.64081L48.5796 7.62414L55.1565 23.984L62.4453 20.8796Z" fill="#A694FE"/>
<path fill-rule="evenodd" clip-rule="evenodd" d="M54.6382 25.2335L63.7142 21.4268L56.2316 3.367L47.3107 7.0768L54.6382 25.2335ZM61.1812 20.3904L55.6747 22.657L49.863 8.12775L55.1904 5.91446L61.1812 20.3904Z" fill="#2A2941"/>
</svg>
