<svg width="80" height="81" viewBox="0 0 80 81" fill="none" xmlns="http://www.w3.org/2000/svg">
<path fill-rule="evenodd" clip-rule="evenodd" d="M62.7514 45.3056L42.1509 43.5887L48.1187 61.7452L51.2931 55.8399L67.2667 69.3522L74.225 60.4385L57.454 48.5824L62.7514 45.3056Z" fill="#2A2941"/>
<path d="M42.1509 43.5886L62.7515 45.3055L57.4541 48.5822L74.2149 60.4384L67.2566 69.352L51.283 55.8398L48.1086 61.7451L42.1407 43.5886M39.2559 41.3146L40.2056 44.2166L46.1735 62.3781L47.6566 66.8755L49.8964 62.7023L51.8824 59.0051L65.9564 70.8967L67.5715 72.2642L68.8717 70.5979L75.83 61.6843L77.1404 60.013L75.4034 58.7874L61.1262 48.6987L63.8282 47.0274L69.0444 43.7962L62.9242 43.2898L42.3236 41.5729L39.2762 41.3196L39.2559 41.3146Z" fill="#2A2941"/>
<path fill-rule="evenodd" clip-rule="evenodd" d="M51.8062 10.9879L0 33.272L19.4324 80.0991L70.304 57.8656L51.8062 10.9879Z" fill="#2A2941"/>
<path fill-rule="evenodd" clip-rule="evenodd" d="M75.3831 49.1394L56.1589 2.10974L4.45435 24.3736L23.8867 71.226L75.3831 49.1394Z" fill="white"/>
<path d="M23.0691 73.2265L2.46851 23.5683L56.9818 0.0991211L77.3589 49.9447L23.0691 73.2265ZM6.43523 25.1688L24.7198 69.2305L73.4227 48.3392L55.3463 4.13052L6.43523 25.1688Z" fill="#2A2941"/>
<path d="M60.477 12.6931L8.60669 34.3928L9.78565 37.1949L61.656 15.4952L60.477 12.6931Z" fill="#2A2941"/>
<path fill-rule="evenodd" clip-rule="evenodd" d="M11.636 31.3779L15.5215 29.7066L14.0994 26.4197L10.219 28.0606L11.636 31.3779Z" fill="#2A2941"/>
<path fill-rule="evenodd" clip-rule="evenodd" d="M18.3811 28.567L22.2615 26.921L20.8698 23.6088L16.959 25.2497L18.3811 28.567Z" fill="#2A2941"/>
<path fill-rule="evenodd" clip-rule="evenodd" d="M25.0549 25.8018L28.9353 24.1305L27.5132 20.8386L23.6328 22.4845L25.0549 25.8018Z" fill="#2A2941"/>
<path fill-rule="evenodd" clip-rule="evenodd" d="M65.6262 40.7474L45.0256 39.0305L50.9935 57.187L54.1679 51.2817L70.1415 64.794L77.0997 55.8804L60.3288 44.0292L65.6262 40.7474Z" fill="#FEC34E"/>
<path d="M45.0257 39.0305L65.6262 40.7474L60.3288 44.0292L77.0896 55.8803L70.1313 64.7939L54.1527 51.2817L50.9834 57.187L45.0155 39.0305M42.1306 36.7565L43.0804 39.6585L49.0483 57.82L50.5313 62.3174L52.7712 58.1441L54.7571 54.4521L68.8159 66.3386L70.431 67.7061L71.7312 66.0398L78.6895 57.1262L79.9999 55.4549L78.2629 54.2292L63.9857 44.1406L66.6878 42.4693L71.9039 39.2381L65.7837 38.7316L45.1831 37.0148L42.1357 36.7615L42.1306 36.7565Z" fill="#2A2941"/>
<path fill-rule="evenodd" clip-rule="evenodd" d="M20.6565 43.7558L34.5629 37.8911L39.9619 50.5069L25.7457 56.4679L20.6565 43.7558Z" fill="white"/>
<path d="M24.9076 58.4683L18.6858 42.9403L35.3653 35.9006L41.9681 51.3171L24.9076 58.4683ZM22.622 44.5762L26.5837 54.4673L37.9607 49.7015L33.7553 39.8813L22.622 44.5762Z" fill="#2A2941"/>
<path fill-rule="evenodd" clip-rule="evenodd" d="M31.5561 33.9558L37.2904 33.0898L33.3237 50.8614L29.4636 51.9148L20.4026 46.1614L25.441 44.4294L30.3016 47.9999L31.5561 33.9558Z" fill="#A694FE"/>
<path d="M40.7135 33.3328C40.4787 33.3347 40.2504 33.2554 40.0676 33.1084C39.8848 32.9614 39.7587 32.7558 39.7108 32.5265C39.6629 32.2973 39.6962 32.0585 39.8049 31.8509C39.9136 31.6434 40.0912 31.4798 40.3072 31.388L57.2712 24.0241C57.3948 23.9601 57.5304 23.9221 57.6693 23.9126C57.8083 23.903 57.9478 23.922 58.0791 23.9685C58.2104 24.0149 58.3306 24.0878 58.4325 24.1826C58.5343 24.2774 58.6155 24.3921 58.671 24.5195C58.7265 24.6469 58.7552 24.7843 58.7551 24.9232C58.7551 25.0621 58.7264 25.1996 58.6709 25.3269C58.6154 25.4543 58.5341 25.569 58.4323 25.6637C58.3304 25.7585 58.2101 25.8313 58.0788 25.8778L41.1199 33.272C40.9898 33.319 40.8517 33.3397 40.7135 33.3328Z" fill="#2A2941"/>
</svg>
