<svg width="80" height="81" viewBox="0 0 80 81" fill="none" xmlns="http://www.w3.org/2000/svg">
<path fill-rule="evenodd" clip-rule="evenodd" d="M47.6903 16.6226L5 35.0201L21.0141 73.7172L62.8264 55.3408L47.6067 16.6226H47.6903Z" fill="#2A2941"/>
<path fill-rule="evenodd" clip-rule="evenodd" d="M51.3919 9.06006L8.78516 27.5202L24.7993 66.2384L66.716 47.8618L51.4964 9.12284L51.3919 9.06006Z" fill="white"/>
<path fill-rule="evenodd" clip-rule="evenodd" d="M68.515 48.577L52.2291 7.09912L6.69556 26.6882L23.8595 68.1451L68.4523 48.577H68.515ZM50.5775 10.9459L64.7101 46.9045L25.5111 64.2147L10.6259 28.2561L50.5984 11.0504L50.5775 10.9459Z" fill="#2A2941"/>
<path fill-rule="evenodd" clip-rule="evenodd" d="M60.8816 21.2476L42.9023 28.9619L49.3833 44.5997L67.028 36.8853L60.8816 21.2476Z" fill="#A694FE"/>
<path fill-rule="evenodd" clip-rule="evenodd" d="M68.9242 37.6557L61.7116 19.1538L40.9727 28.0808L48.5825 46.4781L68.9242 37.5721V37.6557ZM60.06 23.1887L65.0984 36.0877L50.1713 42.6104L44.8403 29.7323L60.06 23.1887Z" fill="#2A2941"/>
<path fill-rule="evenodd" clip-rule="evenodd" d="M33.0342 49.5314C34.6037 48.9946 36.2963 48.9305 37.9018 49.3473C39.5073 49.7641 40.9551 50.6434 42.0653 51.8758C43.1755 53.1083 43.8992 54.6396 44.1467 56.2798C44.3941 57.92 44.1542 59.5968 43.457 61.1019C42.7597 62.607 41.6357 63.8741 40.2245 64.7459C38.8134 65.6177 37.1772 66.0558 35.5192 66.0058C33.8612 65.9558 32.2544 65.4199 30.8983 64.4647C29.5422 63.5094 28.4966 62.1769 27.8913 60.6326C27.1023 58.4784 27.2007 56.0991 28.1651 54.0175C29.1294 51.9359 30.8808 50.3224 33.0342 49.5314Z" fill="#A694FE"/>
<path fill-rule="evenodd" clip-rule="evenodd" d="M32.5927 48.418C30.8535 49.1696 29.3737 50.4162 28.3376 52.0026C27.3015 53.5889 26.7549 55.445 26.7658 57.3397C26.7767 59.2344 27.3446 61.0841 28.3989 62.6584C29.4532 64.2327 30.9472 65.4623 32.695 66.1938C34.4428 66.9254 36.3672 67.1267 38.2286 66.7728C40.0899 66.4188 41.8061 65.5253 43.1634 64.2033C44.5207 62.8813 45.4592 61.1891 45.8621 59.3377C46.265 57.4863 46.1144 55.5574 45.4291 53.7909C44.4378 51.3775 42.5293 49.456 40.1225 48.4486C37.7158 47.4412 35.0076 47.4302 32.5927 48.418ZM33.4498 50.6341C34.8034 50.1743 36.2622 50.1222 37.6451 50.4844C39.028 50.8466 40.274 51.607 41.2285 52.6712C42.1829 53.7354 42.8036 55.0566 43.0137 56.4707C43.2237 57.8847 43.0137 59.3293 42.4098 60.625C41.8059 61.9207 40.8346 63.0104 39.6167 63.7588C38.3988 64.5073 36.9879 64.8815 35.5591 64.835C34.1304 64.7885 32.7467 64.3232 31.5801 63.4971C30.4135 62.671 29.5152 61.5204 28.9969 60.1882C28.3232 58.3306 28.4136 56.2817 29.2484 54.4907C30.0831 52.6997 31.594 51.3127 33.4498 50.6341Z" fill="#2A2941"/>
<path fill-rule="evenodd" clip-rule="evenodd" d="M35.7701 32.0991L19.5469 38.9772L23.5817 48.6777L39.5123 41.8413L35.7701 32.0991Z" fill="#32EDBB"/>
<path fill-rule="evenodd" clip-rule="evenodd" d="M41.4161 42.635L36.6077 30.0913L17.625 38.1402L22.7888 50.6839L41.4161 42.6768V42.635ZM34.9353 34.0635L37.6113 41.0461L24.3776 46.7117L21.4926 39.7709L34.9353 34.0635Z" fill="#2A2941"/>
<path fill-rule="evenodd" clip-rule="evenodd" d="M68.9522 41.7788L51.2656 49.2423L54.8406 57.8556L72.2136 50.4548L68.9522 41.7788Z" fill="#32EDBB"/>
<path fill-rule="evenodd" clip-rule="evenodd" d="M74.115 51.2666L69.7874 39.8101L49.3203 48.4234L54.0451 59.7963L74.115 51.2457V51.2666ZM68.094 43.7404L70.331 49.6569L55.6967 55.9287L53.2715 50.0541L68.094 43.7404Z" fill="#2A2941"/>
<path fill-rule="evenodd" clip-rule="evenodd" d="M12.0248 38.306L56.6804 18.9888L55.5096 16.271L10.875 35.5673L12.0667 38.306H12.0248Z" fill="#2A2941"/>
<path fill-rule="evenodd" clip-rule="evenodd" d="M14.1629 32.7045L17.3616 31.3247L16.2117 28.6069L12.9922 29.9658L14.1629 32.7045Z" fill="#2A2941"/>
<path fill-rule="evenodd" clip-rule="evenodd" d="M19.7371 30.3843L22.9358 29.0253L21.765 26.2866L18.5664 27.6456L19.7371 30.3843Z" fill="#2A2941"/>
<path fill-rule="evenodd" clip-rule="evenodd" d="M25.2176 28.103L28.4372 26.7231L27.2664 24.0054L24.0469 25.3642L25.2176 28.103Z" fill="#2A2941"/>
</svg>
