<svg width="80" height="81" viewBox="0 0 80 81" fill="none" xmlns="http://www.w3.org/2000/svg">
<path fill-rule="evenodd" clip-rule="evenodd" d="M25.8861 51.2241L17.6016 54.8066L25.4383 73.4113L33.8043 69.7881L25.8861 51.2241Z" fill="#2A2941"/>
<path fill-rule="evenodd" clip-rule="evenodd" d="M36.7829 38.3101L28.5391 41.974L39.3273 67.6012L47.6526 63.8762L36.7829 38.3101Z" fill="#2A2941"/>
<path fill-rule="evenodd" clip-rule="evenodd" d="M46.728 23.1929L38.5859 26.9382L53.1603 61.6439L61.4448 57.8374L46.728 23.1929Z" fill="#2A2941"/>
<path fill-rule="evenodd" clip-rule="evenodd" d="M25.2131 20.5878C19.4526 29.198 13 39.4367 13 39.4367L18.2924 42.9378C18.2924 42.9378 27.5743 27.5492 30.5055 23.641L34.9836 26.1447V11.1226L21.0606 18.0841L25.2335 20.5878H25.2131Z" fill="#2A2941"/>
<path fill-rule="evenodd" clip-rule="evenodd" d="M28.7202 43.7788L20.5781 47.3613L28.252 65.9864L36.3941 62.3428L28.7202 43.7788Z" fill="#FEC34E"/>
<path fill-rule="evenodd" clip-rule="evenodd" d="M39.5037 63.5392L29.9572 40.7007L17.6016 46.1559L27.0667 69.0555L39.5037 63.5392ZM28.7155 43.7743L20.5734 47.3568L28.2473 65.9818L36.3894 62.3382L28.7155 43.7743Z" fill="#2A2941"/>
<path fill-rule="evenodd" clip-rule="evenodd" d="M39.4077 30.8491L31.2656 34.5131L41.8504 60.1403L49.9924 56.4153L39.4077 30.8491Z" fill="#31CEA8"/>
<path fill-rule="evenodd" clip-rule="evenodd" d="M53.0807 57.5805L40.6233 27.7397L28.4102 33.3171L40.7658 63.2189L53.0807 57.5805ZM39.402 30.8337L31.2599 34.4977L41.8446 60.1249L49.9867 56.3999L39.402 30.8337Z" fill="#2A2941"/>
<path fill-rule="evenodd" clip-rule="evenodd" d="M49.1731 15.7476L41.1328 19.4929L55.4832 54.2596L63.6253 50.4328L49.1731 15.829V15.7476Z" fill="#4C5EFD"/>
<path fill-rule="evenodd" clip-rule="evenodd" d="M66.6145 51.595L50.3303 12.6147L38.1172 18.3346L54.2385 57.3758L66.6145 51.595ZM49.1701 15.7494L41.1298 19.4948L55.5006 54.2615L63.6426 50.4347L49.1904 15.8309L49.1701 15.7494Z" fill="#2A2941"/>
<path fill-rule="evenodd" clip-rule="evenodd" d="M25.8431 16.867C19.5533 26.6782 13.5078 35.3088 13.5078 35.3088L19.248 39.2577C19.248 39.2577 28.3671 24.7648 31.6036 20.3274L36.4481 23.1364V6.09912L21.3242 14.0784L25.8431 16.867Z" fill="#7772EE"/>
<path fill-rule="evenodd" clip-rule="evenodd" d="M25.8431 16.867C19.5533 26.6782 13.5078 35.3088 13.5078 35.3088L19.248 39.2577C19.248 39.2577 28.3671 24.7648 31.6036 20.3274L36.4481 23.1364V6.09912L21.3242 14.0784L25.8431 16.867ZM27.2069 17.7423L28.1025 16.3581L24.5811 14.1801L34.8604 8.72493V20.2867L31.1761 18.2512L30.3212 19.4318C27.6954 23.0346 21.1817 33.253 18.8002 37.039L15.7876 35.0035C17.701 32.052 22.3827 25.2126 27.2069 17.6812V17.7423Z" fill="#2A2941"/>
</svg>
