<svg width="80" height="69" viewBox="0 0 80 69" fill="none" xmlns="http://www.w3.org/2000/svg">
<path d="M76.0681 27.8065L53.5703 8.06097L47.6553 14.531L51.8414 18.2142L50.3612 17.3816L35.2644 22.8051L29.9681 28.0552L30.1878 25.7424L29.4246 25.8927C25.9885 26.5534 22.6674 27.7124 19.5663 29.333L12.1653 33.2069L11.4021 38.1505L11.9803 29.3098L3.22056 28.9167L1.26624 58.7518L10.0607 59.2028L10.2688 56.0227L13.2292 56.6009C12.9712 57.3795 13.0245 58.2277 13.378 58.9678C13.7315 59.7078 14.3578 60.2824 15.1256 60.5709C15.8933 60.8595 16.743 60.8397 17.4964 60.5156C18.2499 60.1916 18.8487 59.5885 19.1673 58.8328L19.5894 57.8094L20.3526 57.9597L19.1384 60.9432C18.8059 61.7369 18.8018 62.63 19.127 63.4268C19.4522 64.2235 20.0801 64.8587 20.873 65.193C21.6659 65.5253 22.5582 65.5292 23.354 65.204C24.1498 64.8787 24.7839 64.2509 25.117 63.4584L26.8516 59.226L28.008 59.4514L26.7244 62.5448C26.5549 62.9399 26.4656 63.3647 26.4614 63.7946C26.4573 64.2245 26.5385 64.6509 26.7004 65.0492C26.8623 65.4475 27.1016 65.8097 27.4044 66.1148C27.7072 66.4199 28.0676 66.662 28.4647 66.8268C28.8617 66.9917 29.2875 67.0761 29.7174 67.0752C30.1473 67.0744 30.5728 66.9882 30.9692 66.8217C31.3655 66.6552 31.7249 66.4117 32.0265 66.1054C32.3281 65.799 32.5659 65.4358 32.7261 65.0369L34.5301 60.6946L35.3222 60.8449L34.5417 62.7299C34.2092 63.5235 34.2051 64.4167 34.5303 65.2134C34.8555 66.0101 35.4834 66.6453 36.2763 66.9796C37.0693 67.3103 37.961 67.3135 38.7564 66.9884C39.5517 66.6633 40.1859 66.0365 40.5203 65.245L41.8212 62.1112L42.5844 60.7524L50.1011 63.0652C50.9213 63.3308 51.8124 63.2691 52.5882 62.893C53.364 62.517 53.9644 61.8557 54.2641 61.0473C54.4049 60.6353 54.4614 60.1992 54.4304 59.765C54.3993 59.3307 54.2813 58.9071 54.0834 58.5193C53.8855 58.1315 53.6116 57.7875 53.2782 57.5076C52.9447 57.2277 52.5583 57.0177 52.1421 56.89L45.0071 54.6986L45.0881 54.45L55.0158 57.4971C55.836 57.7612 56.7265 57.6988 57.5019 57.3229C58.2773 56.9471 58.878 56.2867 59.1788 55.4792C59.757 53.7446 58.9186 51.3971 57.1725 50.8536L47.1811 47.8759L47.3546 47.3324L57.184 50.2234C58.0651 50.4292 58.9911 50.3082 59.7897 49.8829C60.5884 49.4575 61.2055 48.7566 61.5263 47.9106C61.6671 47.4986 61.7236 47.0625 61.6926 46.6282C61.6615 46.194 61.5435 45.7704 61.3456 45.3826C61.1477 44.9948 60.8738 44.6508 60.5404 44.3709C60.2069 44.091 59.8205 43.881 59.4043 43.7533L49.4939 40.7062L60.0924 43.418C60.5005 43.5432 60.9293 43.5869 61.3543 43.5465C61.7793 43.506 62.1922 43.3823 62.5693 43.1823C62.9465 42.9823 63.2806 42.7099 63.5526 42.3808C63.8245 42.0517 64.0289 41.6723 64.1542 41.2642C64.2795 40.856 64.3232 40.4272 64.2827 40.0022C64.2423 39.5772 64.1186 39.1643 63.9186 38.7872C63.7186 38.41 63.4462 38.0759 63.1171 37.8039C62.788 37.532 62.4086 37.3276 62.0004 37.2023L51.801 33.4498L38.6585 28.4194L62.9429 35.1439C62.9429 35.1439 65.1748 33.8661 65.7356 32.1719C65.8761 31.7289 65.9767 31.2741 66.0363 30.8132L70.1184 34.4038L76.0681 27.8065Z" fill="#2A2941"/>
<path d="M37.583 68.3615C36.7604 68.3573 35.9553 68.1241 35.2578 67.688C34.5602 67.2519 33.998 66.6302 33.6339 65.8925C33.2129 66.6568 32.5744 67.2788 31.7994 67.6798C31.0244 68.0807 30.1479 68.2425 29.2808 68.1446C28.4138 68.0468 27.5953 67.6937 26.9292 67.1301C26.263 66.5665 25.7792 65.8178 25.5391 64.979C25.0751 65.5428 24.4794 65.9836 23.8045 66.2626C23.2684 66.4878 22.6929 66.6047 22.1114 66.6065C21.5298 66.6082 20.9537 66.4949 20.4162 66.2729C19.8786 66.0509 19.3904 65.7247 18.9796 65.313C18.5687 64.9014 18.2435 64.4125 18.0225 63.8746C17.7298 63.1817 17.6241 62.424 17.7161 61.6775C17.0541 61.9212 16.3426 61.9997 15.6434 61.9063C14.9442 61.8129 14.2783 61.5503 13.7035 61.1413C13.1287 60.7323 12.6624 60.1892 12.345 59.5592C12.0276 58.9292 11.8687 58.2313 11.882 57.526L11.3038 57.4161L11.1072 60.4285L0 59.8503L2.11043 27.6793L13.1772 28.1823L12.969 31.4376L19.0112 28.2806C22.2106 26.6038 25.6395 25.4076 29.1876 24.7304L31.4715 24.291L31.4021 24.9733L34.6169 21.7932L48.4937 16.8091L45.9959 14.6119L53.472 6.43616L77.6986 27.7024L70.2398 35.9533L66.7128 32.8484C65.8918 34.6928 63.8218 35.9302 63.5442 36.0747L63.128 36.3118H63.0586C63.8573 36.7099 64.5163 37.3413 64.9483 38.1222C65.3803 38.9031 65.565 39.7969 65.4779 40.6851C65.3908 41.5733 65.0359 42.4141 64.4604 43.0962C63.8848 43.7783 63.1157 44.2695 62.2549 44.5049C62.3127 44.5974 62.3647 44.6957 62.4167 44.794C62.6865 45.3195 62.8476 45.8939 62.8903 46.483C62.933 47.0722 62.8565 47.6638 62.6654 48.2227C62.4154 48.9219 62.0112 49.5557 61.4826 50.0772C60.9541 50.5988 60.3149 50.9945 59.6125 51.2351C59.7584 51.4365 59.8879 51.6492 59.9999 51.8712C60.6278 53.0942 60.7463 54.516 60.3294 55.8261C59.9744 56.7907 59.2988 57.6042 58.4158 58.1305C57.5327 58.6567 56.4958 58.8638 55.4783 58.7171C55.7351 59.5866 55.7129 60.5148 55.4147 61.371C55.0172 62.462 54.2137 63.3573 53.172 63.8701C52.1302 64.383 50.9306 64.4736 49.8236 64.1232L43.1858 62.088L42.914 62.5794L41.642 65.6439C41.3077 66.4459 40.7443 67.1314 40.0223 67.6148C39.3004 68.0981 38.4519 68.3578 37.583 68.3615ZM33.8652 59.3589L36.9759 59.9371L35.6519 63.1287C35.5328 63.3854 35.4668 63.6634 35.4579 63.9461C35.449 64.2289 35.4974 64.5105 35.6001 64.7741C35.7028 65.0377 35.8577 65.2778 36.0555 65.48C36.2534 65.6823 36.49 65.8424 36.7513 65.9508C37.0126 66.0592 37.2932 66.1137 37.576 66.111C37.8589 66.1082 38.1383 66.0483 38.3975 65.9349C38.6566 65.8214 38.8902 65.6567 39.0841 65.4507C39.278 65.2447 39.4282 65.0017 39.5258 64.7361L40.8788 61.4867L42.0988 59.3068L50.5174 61.8914C51.0501 62.069 51.6307 62.0347 52.1388 61.7957C52.6469 61.5567 53.0436 61.1313 53.2465 60.6078C53.3362 60.3418 53.3719 60.0606 53.3513 59.7806C53.3307 59.5006 53.2543 59.2276 53.1266 58.9776C52.9989 58.7276 52.8225 58.5057 52.6077 58.3249C52.393 58.1441 52.1443 58.0081 51.8762 57.9249L43.6252 55.3924L44.4058 52.9697L55.4321 56.3522C55.9647 56.5293 56.5451 56.494 57.0524 56.2538C57.5597 56.0136 57.9548 55.587 58.1554 55.0628C58.3755 54.346 58.3049 53.5714 57.9588 52.9062C57.7504 52.4533 57.3725 52.1003 56.9065 51.9232L45.7935 48.6159L46.6666 45.8694L57.5657 49.0842C58.1584 49.1924 58.7703 49.0919 59.2973 48.7999C59.8243 48.5079 60.234 48.0425 60.4567 47.4826C60.548 47.2171 60.5848 46.9359 60.5649 46.6558C60.545 46.3758 60.4688 46.1026 60.3409 45.8526C60.2129 45.6027 60.0359 45.3811 59.8203 45.2012C59.6047 45.0213 59.3551 44.8867 59.0863 44.8056L49.2049 41.7469L49.8293 39.5266L60.4335 42.2383C60.6988 42.3245 60.9786 42.3572 61.2566 42.3345C61.5347 42.3118 61.8055 42.2343 62.0534 42.1063C62.3012 41.9783 62.5212 41.8025 62.7007 41.589C62.8802 41.3754 63.0156 41.1284 63.099 40.8622C63.1802 40.5995 63.2087 40.3234 63.1828 40.0496C63.157 39.7759 63.0773 39.51 62.9483 39.2671C62.8194 39.0243 62.6437 38.8093 62.4314 38.6345C62.2191 38.4598 61.9744 38.3287 61.7114 38.2488H61.6535L51.4541 34.4673L38.2942 29.4312L39.017 27.2398L62.7926 33.8313C63.4228 33.3919 64.4058 32.5708 64.6717 31.7498C64.7933 31.373 64.8804 30.9859 64.9319 30.5934L65.2268 28.4656L70.0664 32.7269L74.4202 27.9105L53.6628 9.68566L49.3032 14.45L61.1505 24.8576L50.2688 18.6362L35.9063 23.8111L28.5226 31.1195L28.9043 27.1647C25.8452 27.8223 22.8889 28.8901 20.1156 30.339L13.2292 33.9412L12.5527 38.3124L10.2399 38.058L10.7545 30.4199L4.3076 30.125L2.49783 57.6937L8.97945 58.0232L9.19917 54.6754L14.7499 55.7336L14.322 56.994C14.1609 57.481 14.1907 58.011 14.4053 58.4768C14.62 58.9426 15.0036 59.3096 15.4784 59.5034C15.7228 59.6063 15.9852 59.6593 16.2503 59.6593C16.5155 59.6593 16.7779 59.6063 17.0222 59.5034C17.5167 59.2981 17.9097 58.9051 18.115 58.4106L18.8956 56.5257L21.9832 57.1039L20.1965 61.4057C20.0175 61.9126 20.0397 62.4689 20.2587 62.9599C20.4777 63.4509 20.8768 63.8391 21.3736 64.0445C21.8705 64.2499 22.4272 64.2568 22.9289 64.0639C23.4307 63.8709 23.8393 63.4927 24.0705 63.0073L26.1809 57.9076L29.679 58.5725L27.8115 62.9668C27.6324 63.4738 27.6546 64.0301 27.8736 64.521C28.0926 65.012 28.4917 65.4003 28.9885 65.6057C29.4854 65.8111 30.0421 65.818 30.5439 65.625C31.0456 65.432 31.4542 65.0538 31.6854 64.5685L33.8652 59.3589Z" fill="#2A2941"/>
<path d="M64.348 30.7957L54.1485 27.0432L41.0002 22.0128L30.5059 27.7948L35.039 19.4052L31.7317 19.5555C28.3048 20.2162 24.9932 21.3753 21.9023 22.9958L14.5013 26.8639L11.0321 49.4138L44.2266 55.745L44.9898 54.3805L52.5064 56.6933C53.2917 56.9493 54.144 56.9055 54.8989 56.5702C55.6537 56.235 56.2577 55.632 56.5943 54.8777C56.7692 54.4591 56.8545 54.0085 56.8447 53.5549C56.8349 53.1013 56.7302 52.6548 56.5374 52.2442C56.3446 51.8335 56.0679 51.4677 55.7252 51.1705C55.3825 50.8732 54.9813 50.651 54.5475 50.5181L47.4125 48.3267L47.4934 48.0781L57.4211 51.1252C58.2421 51.3905 59.1338 51.328 59.9097 50.9508C60.6856 50.5736 61.2856 49.911 61.5842 49.1015C62.1624 47.3669 61.324 45.0541 59.5778 44.4759L49.5865 41.4982L49.76 40.9547L59.5894 43.8457C61.2893 44.3661 63.3535 43.1923 63.9317 41.5329C64.0715 41.1205 64.1272 40.6842 64.0954 40.2499C64.0636 39.8156 63.945 39.3921 63.7466 39.0045C63.5482 38.6168 63.274 38.273 62.9403 37.9932C62.6066 37.7134 62.2202 37.5034 61.8039 37.3756L51.8935 34.3343L62.4919 37.046C63.3162 37.2998 64.2075 37.2158 64.9698 36.8124C65.7321 36.4091 66.3029 35.7194 66.5567 34.8951C66.8105 34.0709 66.7265 33.1796 66.3231 32.4173C65.9197 31.655 65.23 31.0842 64.4058 30.8304L64.348 30.7957Z" fill="white"/>
<path d="M53.4836 57.977C53.0231 57.9775 52.5651 57.9093 52.1248 57.7746L45.4986 55.7394L44.7817 57.0172L9.67334 50.3158L13.4201 26.0892L21.3356 21.9493C24.5358 20.2732 27.9643 19.0751 31.512 18.3934H31.6797L37.028 18.1563L33.3854 24.8923L40.902 20.7582L54.5475 25.962L64.7065 29.703C65.6145 29.9886 66.4057 30.5607 66.9615 31.3335C67.5172 32.1064 67.8078 33.0384 67.7896 33.9902C67.7713 34.942 67.4453 35.8623 66.8604 36.6133C66.2754 37.3643 65.4629 37.9056 64.5446 38.1563C64.6024 38.2488 64.6544 38.3471 64.7065 38.4454C64.9775 38.9704 65.1393 39.545 65.182 40.1343C65.2247 40.7236 65.1475 41.3154 64.9551 41.8741C64.7086 42.5701 64.3081 43.2015 63.7835 43.7211C63.2589 44.2408 62.6237 44.6352 61.9253 44.875C62.0744 45.0773 62.2059 45.292 62.3185 45.5168C62.6306 46.122 62.8199 46.7831 62.8755 47.4619C62.9311 48.1406 62.8518 48.8237 62.6423 49.4717C62.2872 50.4363 61.6117 51.2498 60.7286 51.7761C59.8456 52.3023 58.8086 52.5094 57.7912 52.3627C57.9865 53.0236 58.0228 53.7213 57.897 54.399C57.7713 55.0766 57.4871 55.7149 57.0676 56.2617C56.6482 56.8086 56.1054 57.2485 55.4835 57.5456C54.8617 57.8427 54.1783 57.9885 53.4894 57.9712L53.4836 57.977ZM44.3885 52.9698L52.8071 55.5485C53.3173 55.7205 53.8732 55.6974 54.3675 55.4839C54.8618 55.2704 55.2595 54.8815 55.4842 54.3921C55.5982 54.1225 55.6544 53.8319 55.6491 53.5391C55.6438 53.2464 55.5772 52.958 55.4535 52.6926C55.3298 52.4272 55.1518 52.1908 54.931 51.9985C54.7102 51.8062 54.4515 51.6624 54.1717 51.5763L45.9207 49.0438L46.7013 46.5864L57.7218 49.9689C58.2545 50.1465 58.8351 50.1122 59.3432 49.8732C59.8513 49.6343 60.248 49.2089 60.4509 48.6853C60.6673 47.9681 60.5968 47.1949 60.2543 46.5286C60.0451 46.0742 59.6648 45.7209 59.1962 45.5457L48.089 42.2384L48.9621 39.4861L59.8554 42.7067C60.4524 42.8221 61.0711 42.7252 61.6043 42.4327C62.1375 42.1403 62.5517 41.6706 62.7753 41.1051C62.8659 40.8395 62.9025 40.5585 62.8826 40.2785C62.8628 39.9986 62.787 39.7255 62.6598 39.4754C62.5326 39.2252 62.3565 39.0032 62.1419 38.8223C61.9274 38.6414 61.6787 38.5054 61.4107 38.4222L51.5177 35.404L52.148 33.178L62.7464 35.8897C63.016 35.9786 63.3007 36.0127 63.5837 35.9898C63.8667 35.967 64.1423 35.8877 64.3943 35.7567C64.7621 35.5638 65.0642 35.2658 65.2622 34.9007C65.4602 34.5355 65.5451 34.1197 65.506 33.7062C65.4669 33.2927 65.3057 32.9001 65.0429 32.5785C64.78 32.2569 64.4275 32.0207 64.03 31.9001H63.9664L53.7496 28.1071L41.1101 23.2849L27.6438 30.6744L33.0731 20.631L31.9167 20.683C28.62 21.3243 25.4337 22.4402 22.4573 23.9961L15.5768 27.5983L12.3446 48.4598L43.6253 54.4326L44.3885 52.9698Z" fill="#2A2941"/>
<path d="M52.6741 11.0328L37.2073 14.8547L28.6673 25.2913C25.996 28.6506 26.7534 32.8079 31.5236 29.6567L41.0061 22.0129L64.3538 30.7957C64.3538 30.7957 67.5165 27.4595 68.0716 25.7654C68.9331 23.1461 68.1468 19.8851 68.1468 19.8851L52.6741 11.0328Z" fill="white"/>
<path d="M64.6544 32.1546L41.2141 23.337L32.1595 30.6281C28.9621 32.7386 27.372 31.8481 26.7129 31.1254C25.4235 29.7146 25.8571 26.9623 27.7536 24.5801L36.5538 13.8314L52.8417 9.784L69.1528 19.1104L69.2684 19.5961C69.3031 19.7406 70.1126 23.2098 69.1644 26.1066C68.5457 27.9973 65.5275 31.2121 65.1864 31.5764L64.6544 32.1546ZM37.8548 15.8956L29.5461 26.0256C28.2335 27.6735 28.1006 29.2289 28.3897 29.5585C28.4764 29.651 29.1702 29.7897 30.8065 28.7201L40.7631 20.7004L63.9953 29.437C65.1517 28.165 66.6376 26.3147 66.9383 25.3896C67.3435 23.8266 67.3929 22.1926 67.0828 20.6079L52.4659 12.2529L37.8548 15.8956Z" fill="#2A2941"/>
<path d="M29.1229 44.4457L29.1175 44.4435C27.4597 43.7561 25.5586 44.5428 24.8713 46.2006L21.3834 54.6129C20.696 56.2706 21.4827 58.1718 23.1405 58.8591L23.1458 58.8614C24.8036 59.5487 26.7048 58.762 27.3921 57.1042L30.88 48.692C31.5674 47.0342 30.7807 45.1331 29.1229 44.4457Z" fill="white"/>
<path d="M24.4002 60.2551C23.8229 60.2535 23.2514 60.1395 22.7176 59.9197C22.1812 59.697 21.6939 59.3706 21.2838 58.9593C20.8736 58.548 20.5486 58.0599 20.3273 57.5228C20.1061 56.9857 19.9929 56.4103 19.9943 55.8295C19.9957 55.2486 20.1116 54.6737 20.3354 54.1377L23.8047 45.7307C24.2767 44.6866 25.1365 43.8672 26.202 43.4457C27.2675 43.0243 28.4552 43.034 29.5137 43.4727C30.5722 43.9115 31.4185 44.7448 31.8735 45.7965C32.3285 46.8481 32.3565 48.0355 31.9515 49.1074L28.4823 57.5144C28.1494 58.3238 27.5838 59.0163 26.8571 59.5042C26.1305 59.9921 25.2754 60.2534 24.4002 60.2551ZM23.6081 57.7804C23.8635 57.8849 24.137 57.9379 24.413 57.9363C24.689 57.9347 24.9619 57.8786 25.2161 57.7711C25.4702 57.6636 25.7007 57.5069 25.8941 57.3101C26.0875 57.1132 26.24 56.8801 26.3429 56.624L29.8121 48.217C29.9444 47.96 30.022 47.6785 30.0401 47.3902C30.0581 47.1018 30.0163 46.8128 29.9172 46.5414C29.8181 46.27 29.6639 46.022 29.4643 45.8131C29.2647 45.6042 29.024 45.4389 28.7573 45.3276C28.4907 45.2163 28.2039 45.1614 27.915 45.1664C27.6261 45.1714 27.3414 45.2361 27.0787 45.3565C26.8161 45.477 26.5812 45.6505 26.3889 45.8661C26.1966 46.0818 26.051 46.3349 25.9613 46.6096L22.4921 55.0224C22.3876 55.2778 22.3346 55.5513 22.3362 55.8273C22.3378 56.1033 22.3939 56.3762 22.5014 56.6304C22.6089 56.8846 22.7656 57.115 22.9624 57.3084C23.1593 57.5018 23.3925 57.6543 23.6485 57.7573L23.6081 57.7804Z" fill="#2A2941"/>
<path d="M36.7812 46.0259L36.7759 46.0237C35.1181 45.3363 33.217 46.123 32.5296 47.7808L29.0417 56.1931C28.3543 57.8508 29.141 59.752 30.7988 60.4393L30.8042 60.4415C32.462 61.1289 34.3631 60.3422 35.0504 58.6844L38.5383 50.2722C39.2257 48.6144 38.439 46.7133 36.7812 46.0259Z" fill="white"/>
<path d="M32.0611 61.8336C31.4818 61.8336 30.9081 61.7197 30.3728 61.4982C29.8363 61.2755 29.3491 60.9491 28.9389 60.5378C28.5288 60.1265 28.2038 59.6384 27.9825 59.1013C27.7612 58.5642 27.648 57.9888 27.6494 57.408C27.6508 56.8271 27.7667 56.2522 27.9906 55.7162L31.4598 47.3092C31.6815 46.7746 32.0063 46.289 32.4157 45.88C32.8251 45.471 33.3111 45.1466 33.8458 44.9254C34.3806 44.7042 34.9537 44.5905 35.5324 44.5908C36.1111 44.591 36.6841 44.7053 37.2187 44.927C37.7532 45.1487 38.2389 45.4736 38.6479 45.883C39.0569 46.2924 39.3813 46.7783 39.6025 47.3131C39.8237 47.8478 39.9374 48.4209 39.9371 48.9996C39.9368 49.5784 39.8226 50.1513 39.6009 50.6859L36.1317 59.0929C35.7996 59.8946 35.2385 60.5805 34.5186 61.0649C33.7987 61.5493 32.9519 61.8106 32.0843 61.8162L32.0611 61.8336ZM35.5303 46.916C35.2564 46.9178 34.9854 46.9728 34.7324 47.0779C34.4714 47.1823 34.2343 47.3387 34.0355 47.5374C33.8367 47.7362 33.6804 47.9733 33.576 48.2343L30.1068 56.6471C30.0023 56.9025 29.9493 57.1761 29.9508 57.4521C29.9524 57.728 30.0086 58.001 30.1161 58.2551C30.2236 58.5093 30.3802 58.7397 30.5771 58.9331C30.774 59.1265 31.0071 59.2791 31.2632 59.382C31.5186 59.4866 31.7922 59.5396 32.0681 59.538C32.3441 59.5364 32.617 59.4802 32.8712 59.3727C33.1254 59.2653 33.3558 59.1086 33.5492 58.9117C33.7426 58.7149 33.8952 58.4817 33.9981 58.2256L37.4673 49.8186C37.5719 49.5628 37.625 49.2888 37.6235 49.0124C37.622 48.736 37.5659 48.4627 37.4584 48.208C37.351 47.9534 37.1943 47.7225 36.9974 47.5285C36.8004 47.3346 36.5672 47.1815 36.3109 47.0779C36.0684 46.9782 35.8098 46.9234 35.5477 46.916H35.5303Z" fill="#2A2941"/>
<path d="M43.1259 49.7447L43.1206 49.7424C41.4628 49.0551 39.5617 49.8418 38.8743 51.4996L36.8547 56.3706C36.1673 58.0284 36.954 59.9296 38.6118 60.6169L38.6171 60.6191C40.2749 61.3065 42.176 60.5198 42.8634 58.862L44.8831 53.9909C45.5704 52.3331 44.7837 50.432 43.1259 49.7447Z" fill="white"/>
<path d="M39.8785 62.0186C39.1559 62.0125 38.4458 61.8293 37.8105 61.485C37.1752 61.1406 36.6341 60.6457 36.2346 60.0436C35.8351 59.4415 35.5894 58.7505 35.519 58.0313C35.4487 57.3121 35.5558 56.5867 35.8311 55.9186L37.849 51.0501C38.3211 50.006 39.1808 49.1866 40.2464 48.7651C41.3119 48.3437 42.4996 48.3534 43.5581 48.7921C44.6166 49.2309 45.4629 50.0642 45.9179 51.1159C46.3729 52.1675 46.4008 53.3549 45.9959 54.4268L43.9779 59.2952C43.6408 60.0992 43.0745 60.7861 42.3496 61.2704C41.6248 61.7547 40.7734 62.0149 39.9016 62.0186H39.8785ZM41.9022 50.6454C41.488 50.6445 41.0828 50.7666 40.738 50.9961C40.3932 51.2256 40.1243 51.5523 39.9652 51.9347L37.9473 56.8032C37.8418 57.0572 37.7873 57.3295 37.787 57.6045C37.7867 57.8795 37.8405 58.152 37.9455 58.4062C38.0505 58.6604 38.2045 58.8915 38.3987 59.0862C38.593 59.2809 38.8237 59.4354 39.0777 59.541C39.3317 59.6465 39.604 59.701 39.879 59.7013C40.154 59.7016 40.4265 59.6478 40.6807 59.5428C40.9349 59.4378 41.166 59.2838 41.3607 59.0896C41.5554 58.8953 41.7099 58.6646 41.8155 58.4106L43.8334 53.5421C43.938 53.2863 43.9911 53.0124 43.9896 52.736C43.9881 52.4596 43.932 52.1862 43.8245 51.9316C43.7171 51.6769 43.5604 51.446 43.3635 51.2521C43.1665 51.0581 42.9332 50.905 42.677 50.8015C42.4306 50.7034 42.1674 50.6543 41.9022 50.6569V50.6454Z" fill="#2A2941"/>
<path d="M22.3889 50.186C23.0603 48.5665 22.2918 46.7094 20.6724 46.0379C19.0529 45.3665 17.1958 46.135 16.5243 47.7544L15.5676 50.0618C14.8962 51.6812 15.6647 53.5384 17.2841 54.2098C18.9036 54.8813 20.7607 54.1128 21.4322 52.4933L22.3889 50.186Z" fill="white"/>
<path d="M18.5256 55.6064C17.8124 55.606 17.1104 55.4299 16.4814 55.0938C15.8524 54.7577 15.3159 54.2718 14.9192 53.6792C14.5226 53.0865 14.278 52.4052 14.2072 51.6956C14.1363 50.986 14.2413 50.2698 14.5129 49.6104L15.4669 47.2976C15.9123 46.2415 16.7582 45.405 17.8193 44.9715C18.8803 44.538 20.07 44.5428 21.1275 44.9848C22.1874 45.4248 23.0293 46.2674 23.4684 47.3277C23.9074 48.388 23.9077 49.5791 23.4692 50.6396L22.5152 52.9524C22.2986 53.4756 21.9807 53.9508 21.5798 54.3507C21.1789 54.7506 20.7029 55.0673 20.1792 55.2826C19.6553 55.5004 19.0929 55.6105 18.5256 55.6064ZM19.4796 46.9334C19.0799 46.9345 18.6895 47.0536 18.3572 47.2758C18.025 47.498 17.7657 47.8133 17.612 48.1823L16.658 50.4951C16.5035 50.8641 16.4622 51.2707 16.5393 51.6632C16.6163 52.0557 16.8084 52.4165 17.0909 52.6997C17.3735 52.9829 17.7338 53.1757 18.1262 53.2536C18.5186 53.3316 18.9252 53.2911 19.2946 53.1374C19.5399 53.0366 19.7628 52.8881 19.9504 52.7005C20.138 52.5129 20.2865 52.29 20.3874 52.0446L21.3472 49.7318C21.4733 49.4248 21.522 49.0915 21.4889 48.7612C21.4559 48.4309 21.342 48.1138 21.1575 47.8379C20.973 47.5619 20.7234 47.3356 20.4308 47.1789C20.1382 47.0222 19.8116 46.9398 19.4796 46.9391V46.9334Z" fill="#2A2941"/>
<path d="M12.3561 52.8715L14.2758 22.9497L5.51602 22.5507L3.55591 52.4205L12.3561 52.8715Z" fill="#A694FE"/>
<path d="M13.4374 54.0799L2.32434 53.5017L4.44054 21.3364L15.5073 21.8395L13.4374 54.0799ZM4.76435 51.3277L11.2517 51.6573L13.05 24.0597L6.59723 23.7649L4.76435 51.3277Z" fill="#2A2941"/>
<path d="M72.4487 27.9972L49.9452 8.18802L55.866 1.71796L78.3579 21.4635L72.4487 27.9972Z" fill="#32EDBB"/>
<path d="M72.5412 29.622L48.2972 8.27489L55.7734 0.0991211L80 21.3653L72.5412 29.622ZM51.593 8.09564L72.333 26.3726L76.6869 21.5562L55.9295 3.33126L51.593 8.09564Z" fill="#2A2941"/>
</svg>
