<svg width="80" height="81" viewBox="0 0 80 81" fill="none" xmlns="http://www.w3.org/2000/svg">
<path fill-rule="evenodd" clip-rule="evenodd" d="M45.9123 26.2007L9.57031 41.8623L23.203 74.8228L58.7975 59.179L45.8411 26.2007H45.9123Z" fill="#2A2941"/>
<path fill-rule="evenodd" clip-rule="evenodd" d="M19.5222 55.9059L29.9514 51.5456L28.9192 48.9116L18.5078 53.4499L19.5222 55.9059Z" fill="#31CEA8"/>
<path fill-rule="evenodd" clip-rule="evenodd" d="M16.3711 52.4983L18.6136 58.0867L32.1217 52.4627L29.8436 46.732L16.3711 52.4983ZM19.539 55.9154L29.9682 51.555L28.936 48.9211L18.5068 53.4594L19.539 55.9154Z" fill="#2A2941"/>
<path fill-rule="evenodd" clip-rule="evenodd" d="M23.9559 66.6481L34.385 62.2878L33.3528 59.6538L22.9414 64.1387L23.9559 66.6659V66.6481Z" fill="#31CEA8"/>
<path fill-rule="evenodd" clip-rule="evenodd" d="M20.7852 63.2248L23.0454 68.8132L36.5357 63.1892L34.2576 57.4585L20.7852 63.2248ZM23.9531 66.6419L34.3822 62.2815L33.35 59.6476L22.9386 64.1325L23.9531 66.6597V66.6419Z" fill="#2A2941"/>
<path fill-rule="evenodd" clip-rule="evenodd" d="M41.8023 58.935L51.8933 54.6814L46.5542 41.3335L36.125 45.7828L41.7667 58.935H41.8023Z" fill="#4C5EFD"/>
<path fill-rule="evenodd" clip-rule="evenodd" d="M33.9922 44.9115L40.9331 61.0892L54.0319 55.5898L47.5003 39.2163L33.9922 45.0004V44.9115ZM41.8052 58.9357L51.8962 54.6821L46.557 41.3342L36.1279 45.7835L41.7696 58.9357H41.8052Z" fill="#2A2941"/>
<path fill-rule="evenodd" clip-rule="evenodd" d="M45.185 14.1353C47.3239 14.2099 49.3928 14.916 51.131 16.1647C52.8691 17.4134 54.1987 19.1487 54.952 21.1519C55.7054 23.1551 55.8489 25.3365 55.3644 27.4211C54.8798 29.5057 53.789 31.4002 52.2293 32.8657C50.6697 34.3313 48.7111 35.3023 46.6004 35.6564C44.4898 36.0105 42.3215 35.7318 40.369 34.8554C38.4164 33.979 36.7671 32.5441 35.6288 30.7318C34.4906 28.9194 33.9144 26.8106 33.9728 24.6713C34.0658 21.7884 35.2984 19.0601 37.4004 17.0849C39.5023 15.1097 42.302 14.0489 45.185 14.1353Z" fill="#2A2941"/>
<path fill-rule="evenodd" clip-rule="evenodd" d="M41.0431 12.5288L44.6025 20.413C42.8228 21.2317 41.0431 25.3072 40.8829 27.1403L32.8207 29.4006C32.2136 26.2943 32.4408 23.0826 33.4792 20.0926C34.5293 17.9748 37.3234 13.7568 41.0075 12.5288H41.0431Z" fill="#2A2941"/>
<path fill-rule="evenodd" clip-rule="evenodd" d="M50.2975 35.5203L47.4143 28.0098C46.6418 28.3149 45.7959 28.383 44.9845 28.2055C44.1731 28.028 43.4329 27.6129 42.8582 27.0132L34.3867 30.4124C34.9918 32.7617 38.0352 35.2177 40.7582 36.1076C43.9296 36.8164 47.2369 36.6128 50.2975 35.5203Z" fill="#2A2941"/>
<path fill-rule="evenodd" clip-rule="evenodd" d="M41.293 14.4185L44.2829 21.751C45.197 21.7785 46.0874 22.0485 46.863 22.5332C47.6385 23.0179 48.2713 23.7 48.6966 24.5096L55.9757 22.0358C55.1903 19.5066 53.6193 17.2935 51.4908 15.7178C48.3374 14.1401 44.7412 13.6819 41.293 14.4185Z" fill="#2A2941"/>
<path fill-rule="evenodd" clip-rule="evenodd" d="M55.8127 21.3179L48.6938 24.2188C48.8585 25.0427 48.7777 25.8968 48.4613 26.6751C48.1449 27.4535 47.6069 28.1217 46.9141 28.5969L49.7616 35.5735C51.9605 34.5587 53.749 32.8266 54.8338 30.6614C56.044 28.5436 56.2042 23.8807 55.8127 21.3179Z" fill="#2A2941"/>
<path fill-rule="evenodd" clip-rule="evenodd" d="M43.7195 21.8769C44.3337 21.6446 45.0029 21.5991 45.6429 21.7463C46.2828 21.8934 46.865 22.2266 47.316 22.7039C47.767 23.1812 48.0667 23.7813 48.1774 24.4285C48.2882 25.0758 48.205 25.7413 47.9383 26.3414C47.6716 26.9414 47.2333 27.4492 46.6787 27.8007C46.124 28.1523 45.4778 28.3319 44.8213 28.3169C44.1648 28.302 43.5274 28.0932 42.9893 27.7168C42.4513 27.3404 42.0366 26.8132 41.7974 26.2016C41.6396 25.7914 41.5641 25.3542 41.5753 24.9149C41.5865 24.4755 41.6841 24.0427 41.8626 23.6411C42.0411 23.2395 42.2969 22.877 42.6156 22.5743C42.9342 22.2716 43.3093 22.0346 43.7195 21.8769Z" fill="#2A2941"/>
<path fill-rule="evenodd" clip-rule="evenodd" d="M61.0063 36.8804L51.3068 47.4341C51.3068 47.4341 48.4237 53.5208 49.0822 54.1259C49.7407 54.731 55.151 51.225 55.2756 51.0826L64.9573 40.3152L61.0063 36.8804Z" fill="#2A2941"/>
<path fill-rule="evenodd" clip-rule="evenodd" d="M68.7846 27.844L62.1641 35.5502L66.204 39.2343L72.9136 31.2433C72.944 30.7229 72.8511 30.2027 72.6425 29.725C72.4339 29.2474 72.1154 28.8257 71.7129 28.4944C71.3105 28.1631 70.8356 27.9315 70.3267 27.8185C69.8178 27.7055 69.2895 27.7142 68.7846 27.844Z" fill="#2A2941"/>
<path fill-rule="evenodd" clip-rule="evenodd" d="M47.4926 20.7476L11.1328 36.4092L24.7655 69.3519L60.36 53.7081L47.4036 20.7476H47.4926Z" fill="white"/>
<path fill-rule="evenodd" clip-rule="evenodd" d="M10.0009 45.0934L52.8033 27.047L48.4074 16.5288L6.12109 34.4684L10.0187 45.1468L10.0009 45.0934Z" fill="#A694FE"/>
<path fill-rule="evenodd" clip-rule="evenodd" d="M4 33.5489L9.05447 47.3062L54.9892 27.925L49.2941 14.3101L4 33.5133V33.5489ZM10.0155 45.0993L52.7289 27.0529L48.4042 16.5347L6.10012 34.4743L10.0155 45.1527V45.0993Z" fill="#2A2941"/>
<path fill-rule="evenodd" clip-rule="evenodd" d="M21.0848 50.4584L31.5318 46.0981L30.4817 43.4819L20.0703 47.9312L21.0848 50.4584Z" fill="#31CEA8"/>
<path fill-rule="evenodd" clip-rule="evenodd" d="M17.918 47.0373L20.1783 52.6257L33.6686 47.0017L31.4083 41.271L17.918 47.0373ZM21.0859 50.4544L31.5329 46.094L30.4828 43.4779L20.0714 47.9272L21.0859 50.4544Z" fill="#2A2941"/>
<path fill-rule="evenodd" clip-rule="evenodd" d="M25.5184 61.1872L35.9653 56.8269L34.9331 54.1929L24.5039 58.66L25.5184 61.1872Z" fill="#31CEA8"/>
<path fill-rule="evenodd" clip-rule="evenodd" d="M22.3711 57.7717L24.6136 63.36L38.1039 57.7361L35.8436 52.0054L22.3711 57.7717ZM25.5212 61.1888L35.9682 56.8285L34.9182 54.1945L24.5068 58.6616L25.5212 61.1888Z" fill="#2A2941"/>
<path fill-rule="evenodd" clip-rule="evenodd" d="M43.3883 53.4663L53.4615 49.2127L48.1223 35.8647L37.7109 40.3141L43.3527 53.4663H43.3883Z" fill="#4C5EFD"/>
<path fill-rule="evenodd" clip-rule="evenodd" d="M35.5664 39.4535L42.5073 55.6491L55.6061 50.1319L49.0745 33.6694L35.5664 39.4535ZM43.3794 53.4778L53.4704 49.2242L48.1313 35.8763L37.7199 40.3256L43.3616 53.4778H43.3794Z" fill="#2A2941"/>
<path fill-rule="evenodd" clip-rule="evenodd" d="M62.0731 54.3954L48.1912 19.0679L9.5 35.6727L24.0937 70.9825L62.0731 54.3242V54.3954ZM46.7852 22.3603L58.8162 52.9716L25.4463 67.7078L12.8103 37.0787L46.803 22.4315L46.7852 22.3603Z" fill="#2A2941"/>
<path d="M28.5742 33.8941L34.8033 31.3491" stroke="#2A2941" stroke-width="1.65514" stroke-miterlimit="1.22" stroke-linecap="square"/>
<path fill-rule="evenodd" clip-rule="evenodd" d="M46.7658 8.69167C48.9045 8.76987 50.9723 9.47951 52.7083 10.7311C54.4443 11.9826 55.7709 13.7201 56.5209 15.7245C57.271 17.7289 57.4108 19.9105 56.9228 21.9942C56.4349 24.078 55.3409 25.9706 53.7789 27.4336C52.2169 28.8966 50.2568 29.8644 48.1456 30.215C46.0344 30.5657 43.8666 30.2835 41.9156 29.404C39.9645 28.5245 38.3176 27.087 37.1822 25.2729C36.0469 23.4587 35.4739 21.3491 35.5358 19.2099C35.5794 17.7809 35.9049 16.3746 36.4935 15.0717C37.0821 13.7688 37.9223 12.5951 38.9657 11.6178C40.0092 10.6405 41.2354 9.87891 42.574 9.37677C43.9125 8.87463 45.3371 8.64178 46.7658 8.69167Z" fill="white"/>
<path fill-rule="evenodd" clip-rule="evenodd" d="M42.6156 7.09131L46.1751 14.9755C44.3954 15.7942 42.6157 19.8697 42.4733 21.7028L34.3933 23.9631C33.8021 20.8547 34.0352 17.6455 35.0696 14.6551C36.1197 12.5373 38.9138 8.31932 42.5978 7.09131H42.6156Z" fill="#4C5EFD"/>
<path fill-rule="evenodd" clip-rule="evenodd" d="M48.4025 15.7775L43.5261 5.09912L42.1201 5.56181C37.9733 6.95 34.7876 11.5951 33.613 13.9799C32.4387 17.3392 32.1687 20.9482 32.8299 24.4447L33.257 26.0643L44.0778 23.0387L44.1667 21.8819C44.4031 20.5357 44.8988 19.2483 45.6261 18.0911C45.9268 17.4668 46.3796 16.9282 46.9431 16.5249L48.4025 15.8309V15.7775ZM42.6362 7.09241L46.1957 14.9766C44.4159 15.7953 42.6362 19.8708 42.4938 21.7039L34.4139 23.9642C33.8226 20.8558 34.0557 17.6466 35.0901 14.6562C36.1402 12.5384 38.9344 8.32042 42.6184 7.09241H42.6362Z" fill="#2A2941"/>
<path fill-rule="evenodd" clip-rule="evenodd" d="M51.8561 30.075L48.9907 22.5645C48.2154 22.8711 47.3666 22.94 46.552 22.7625C45.7375 22.585 44.9942 22.1691 44.4168 21.5679L35.9453 25.0027C36.5682 27.352 39.6115 29.808 42.3167 30.6979C45.4914 31.3962 48.7991 31.1803 51.8561 30.075Z" fill="#32EDBB"/>
<path fill-rule="evenodd" clip-rule="evenodd" d="M52.6888 31.5146L53.9169 30.8027L49.9837 20.5337L48.5065 20.9786C48.0123 21.1809 47.469 21.2314 46.946 21.1237C46.4229 21.0159 45.9439 20.7547 45.5699 20.3735L44.8402 19.6616L34.0195 24.0042L34.3933 25.4279C35.1229 28.2043 38.6468 31.2298 41.8681 32.2799C44.0727 32.7896 46.3494 32.9101 48.5954 32.6358C50.0328 32.5326 51.4387 32.1645 52.7422 31.5502L52.6888 31.5146ZM51.8524 30.073L48.987 22.5626C48.2117 22.8691 47.3629 22.938 46.5483 22.7606C45.7338 22.5831 44.9905 22.1672 44.4131 21.5659L35.9416 25.0008C36.5645 27.35 39.6078 29.8061 42.313 30.6959C45.4877 31.3943 48.7954 31.1783 51.8524 30.073Z" fill="#2A2941"/>
<path fill-rule="evenodd" clip-rule="evenodd" d="M42.8359 8.98112L45.8259 16.3136C46.7391 16.3447 47.6281 16.6161 48.403 17.1005C49.1779 17.5848 49.8114 18.2649 50.2396 19.0722L57.5009 16.5983C56.7245 14.0647 55.1517 11.849 53.016 10.2803C49.869 8.7026 46.2783 8.24433 42.8359 8.98112Z" fill="#A694FE"/>
<path fill-rule="evenodd" clip-rule="evenodd" d="M42.5068 7.34576L40.5312 7.71954L44.7314 18.0419H45.9238C47.223 17.9529 48.1485 19.0208 48.8426 20.053L49.5367 21.1386L59.5031 17.7394L59.076 16.102C58.1766 13.1918 56.3677 10.6468 53.9148 8.84078C50.3902 7.02911 46.3505 6.48247 42.4712 7.29237L42.5068 7.34576ZM42.8271 8.96532L45.817 16.2978C46.7303 16.3289 47.6193 16.6004 48.3942 17.0847C49.1691 17.569 49.8026 18.2491 50.2308 19.0564L57.5099 16.5825C56.7244 14.0534 55.1535 11.8403 53.025 10.2645C49.8712 8.68822 46.2754 8.23011 42.8271 8.96532Z" fill="#2A2941"/>
<path fill-rule="evenodd" clip-rule="evenodd" d="M57.3908 15.8726L50.2719 18.7735C50.4343 19.5973 50.3524 20.4507 50.0362 21.2285C49.72 22.0064 49.1833 22.6748 48.4922 23.1516L51.322 30.1282C53.5275 29.1167 55.3227 27.3842 56.412 25.2161C57.6044 23.2228 57.7824 18.4354 57.3908 15.8726Z" fill="#FEC34E"/>
<path fill-rule="evenodd" clip-rule="evenodd" d="M59.0775 15.6189L58.7571 13.5366L48.3991 17.7368L48.5949 19.0182C48.6969 19.5505 48.64 20.101 48.4311 20.6011C48.2222 21.1012 47.8707 21.5287 47.4203 21.8302L46.4414 22.5954L50.339 32.2059L51.834 31.6898C54.4082 30.5401 56.5164 28.5511 57.8139 26.0481C59.1309 23.7522 59.4156 18.4665 58.9707 15.6189H59.0775ZM57.4401 15.8681L50.3212 18.769C50.4836 19.5928 50.4017 20.4462 50.0855 21.224C49.7693 22.0019 49.2326 22.6703 48.5415 23.1471L51.3713 30.1237C53.5767 29.1122 55.3719 27.3797 56.4613 25.2116C57.6003 23.2183 57.7782 18.4309 57.3867 15.8681H57.4401Z" fill="#2A2941"/>
<path fill-rule="evenodd" clip-rule="evenodd" d="M46.8005 7.01522C44.3441 6.97082 41.9293 7.65369 39.86 8.97798C37.7907 10.3023 36.1591 12.2088 35.1705 14.4579C34.1818 16.707 33.8802 19.1982 34.3036 21.6183C34.727 24.0383 35.8565 26.2792 37.55 28.059C39.2436 29.8388 41.4256 31.0782 43.8216 31.6212C46.2176 32.1642 48.7208 31.9868 51.0162 31.111C53.3116 30.2352 55.2968 28.7003 56.7222 26.6993C58.1476 24.6982 58.9495 22.3204 59.0272 19.8648C59.0793 18.2155 58.8032 16.5722 58.215 15.0304C57.6267 13.4886 56.738 12.079 55.6005 10.8835C54.463 9.68807 53.0993 8.73051 51.5886 8.06645C50.0779 7.40238 48.4504 7.04504 46.8005 7.01522ZM46.8005 8.68817C48.9401 8.76289 51.0096 9.46961 52.748 10.7191C54.4865 11.9687 55.8159 13.705 56.5686 15.7093C57.3214 17.7135 57.4637 19.8958 56.9777 21.9808C56.4916 24.0658 55.399 25.9601 53.8376 27.4249C52.2762 28.8896 50.3159 29.8591 48.2042 30.2111C46.0924 30.5631 43.9237 30.2819 41.9716 29.4027C40.0195 28.5236 38.3715 27.0861 37.2355 25.2714C36.0994 23.4568 35.5262 21.3464 35.5881 19.2064C35.6765 16.3298 36.9034 13.606 38.9992 11.6337C41.095 9.66134 43.8882 8.60189 46.7648 8.68817H46.8005Z" fill="#2A2941"/>
<path fill-rule="evenodd" clip-rule="evenodd" d="M45.3101 16.4079C45.9245 16.1803 46.5925 16.1392 47.2302 16.2896C47.8679 16.4401 48.447 16.7755 48.8949 17.2537C49.3428 17.732 49.6396 18.3317 49.7481 18.9779C49.8565 19.6241 49.7718 20.288 49.5046 20.8862C49.2373 21.4845 48.7994 21.9905 48.2458 22.341C47.6921 22.6914 47.0473 22.8706 46.3922 22.8561C45.7372 22.8415 45.101 22.634 44.5634 22.2594C44.0258 21.8848 43.6107 21.3599 43.3702 20.7504C43.0517 19.9173 43.0771 18.9918 43.4409 18.1775C43.8047 17.3631 44.4771 16.7266 45.3101 16.4079Z" fill="white"/>
<path fill-rule="evenodd" clip-rule="evenodd" d="M44.6994 14.8691C43.7885 15.2378 43.0069 15.8676 42.4529 16.6794C41.899 17.4911 41.5975 18.4485 41.5863 19.4312C41.575 20.4138 41.8545 21.3779 42.3897 22.2021C42.9249 23.0263 43.6919 23.6738 44.5941 24.0633C45.4964 24.4528 46.4936 24.5669 47.4605 24.3911C48.4274 24.2153 49.3206 23.7576 50.0281 23.0755C50.7355 22.3934 51.2254 21.5172 51.4363 20.5574C51.6472 19.5976 51.5695 18.5969 51.2131 17.6811C50.718 16.4478 49.7555 15.4602 48.5354 14.9335C47.3153 14.4068 45.9365 14.3836 44.6994 14.8691ZM45.3045 16.4174C45.9189 16.1898 46.5869 16.1487 47.2246 16.2992C47.8623 16.4496 48.4414 16.7851 48.8893 17.2633C49.3373 17.7415 49.634 18.3413 49.7425 18.9875C49.8509 19.6337 49.7663 20.2975 49.499 20.8958C49.2318 21.494 48.7939 22.0001 48.2402 22.3505C47.6865 22.7009 47.0417 22.8801 46.3867 22.8656C45.7316 22.8511 45.0954 22.6436 44.5578 22.269C44.0202 21.8944 43.6051 21.3694 43.3646 20.7599C43.0461 19.9268 43.0716 19.0014 43.4353 18.187C43.7991 17.3727 44.4715 16.7362 45.3045 16.4174ZM44.6994 14.8691L43.934 15.1716L44.6994 14.8691Z" fill="#2A2941"/>
<path fill-rule="evenodd" clip-rule="evenodd" d="M62.6409 31.4194L52.9592 41.9733C52.9592 41.9733 50.076 48.0599 50.7345 48.665C51.393 49.2701 56.8034 45.764 56.9101 45.6217L66.5919 34.9433L62.6409 31.4194Z" fill="#FFB800"/>
<path fill-rule="evenodd" clip-rule="evenodd" d="M68.8919 34.7052L62.4493 29.0991L51.4861 41.0233L51.3794 41.2547C50.437 43.2328 49.6457 45.2793 49.0123 47.3769C48.9178 47.8588 48.9178 48.3544 49.0123 48.8363C49.0755 49.2414 49.2767 49.6124 49.5818 49.8863C49.9511 50.145 50.3802 50.3053 50.8286 50.352C51.2771 50.3987 51.73 50.3303 52.1446 50.1533C53.9826 49.3689 55.7408 48.4094 57.3948 47.2879C57.6815 47.1218 57.9448 46.9183 58.1779 46.6828C58.2847 46.5404 67.8062 36.0045 67.8062 36.0045L68.9453 34.7409L68.8919 34.7052ZM62.645 31.4127L52.9633 41.9666C52.9633 41.9666 50.0623 48.0532 50.7386 48.6583C51.4149 49.2634 56.8075 45.7574 56.9143 45.615L66.596 34.9366L62.645 31.4127Z" fill="#2A2941"/>
<path fill-rule="evenodd" clip-rule="evenodd" d="M70.3611 22.3681L63.7227 30.0743L67.6915 33.7227L74.4188 25.7318C74.4367 25.223 74.3377 24.7168 74.1293 24.2523C73.9209 23.7879 73.6087 23.3774 73.2168 23.0525C72.8248 22.7276 72.3635 22.4969 71.8685 22.3783C71.3734 22.2596 70.8577 22.2561 70.3611 22.3681Z" fill="#FFB800"/>
<path fill-rule="evenodd" clip-rule="evenodd" d="M69.761 20.829L69.3516 20.9891L61.4141 30.2259L67.8389 36.1346L75.9544 26.4885L76.0434 26.0791C76.1548 25.2705 76.0485 24.4469 75.7357 23.693C75.4229 22.9391 74.9148 22.2823 74.2637 21.79C73.656 21.2554 72.9209 20.8862 72.1292 20.7178C71.3375 20.5495 70.5158 20.5878 69.7432 20.829H69.761ZM70.3483 22.3773L63.7099 30.0835L67.6787 33.732L74.406 25.741C74.4239 25.2323 74.3249 24.7261 74.1165 24.2616C73.9081 23.7971 73.5959 23.3866 73.204 23.0617C72.812 22.7368 72.3508 22.5062 71.8557 22.3875C71.3606 22.2689 70.8449 22.2654 70.3483 22.3773Z" fill="#2A2941"/>
<path fill-rule="evenodd" clip-rule="evenodd" d="M63.2159 27.5054L61.2227 29.9258L68.4483 35.9769L70.4772 33.592L63.2159 27.5054Z" fill="#4C5EFD"/>
<path fill-rule="evenodd" clip-rule="evenodd" d="M72.8376 33.3883L62.9957 25.1304L58.9023 30.1315L68.6374 38.2826L72.8376 33.3883ZM63.2093 27.4974L61.216 29.9178L68.4417 35.969L70.4706 33.5841L63.2093 27.4974Z" fill="#2A2941"/>
</svg>
