<svg width="81" height="80" viewBox="0 0 81 80" fill="none" xmlns="http://www.w3.org/2000/svg">
<path fill-rule="evenodd" clip-rule="evenodd" d="M15.6157 51.1214C9.23638 47.6943 6.75897 39.3949 7.02735 31.5704C21.0247 26.8427 33.5149 20.0093 43.1355 8.17969C53.1484 17.4493 57.3187 27.4415 57.6903 44.0608C40.4104 41.7692 27.3421 45.9188 15.6157 51.1214V51.1214Z" fill="#2A2941"/>
<path fill-rule="evenodd" clip-rule="evenodd" d="M7.72711 38.4453C7.72711 38.4453 0.707776 41.0672 2.93744 46.2904C5.16711 51.5136 11.8561 47.7769 11.8561 47.7769C9.83096 44.9959 8.42322 41.8144 7.72711 38.4453V38.4453Z" fill="#2A2941"/>
<path fill-rule="evenodd" clip-rule="evenodd" d="M22.2812 48.2122C25.8015 54.6084 28.0781 61.6136 28.9909 68.8572L41.4812 63.2418C37.8117 57.541 34.9036 51.3848 32.8309 44.9297C29.2364 45.7731 25.71 46.8841 22.2812 48.2535V48.2122Z" fill="#2A2941"/>
<path fill-rule="evenodd" clip-rule="evenodd" d="M44.6992 11.8219C44.6992 11.8219 58.2217 6.37172 62.8049 17.871C67.0991 28.689 54.0721 34.7587 54.0721 34.7587C53.0398 30.4025 49.3031 17.4786 44.6992 11.8219V11.8219Z" fill="#A694FE"/>
<path fill-rule="evenodd" clip-rule="evenodd" d="M44.1644 10.4911L42.3477 11.2136L43.5864 12.7413C48.0663 18.2536 51.6586 30.8677 52.6702 35.1L53.0831 36.8135L54.6934 36.0703C57.0774 34.8829 59.2416 33.2981 61.0934 31.3839C62.969 29.6361 64.2665 27.3575 64.8125 24.8525C65.3585 22.3476 65.1269 19.7358 64.1488 17.3659C63.2734 14.8854 61.631 12.748 59.4596 11.2633C57.2883 9.77856 54.7006 9.02371 52.0715 9.10791C49.3741 9.09002 46.6956 9.55855 44.1644 10.4911V10.4911ZM47.0547 12.5556C48.673 12.1401 50.3389 11.9388 52.0096 11.9568C54.0637 11.8821 56.088 12.4644 57.7885 13.6191C59.4889 14.7738 60.7768 16.4407 61.465 18.3775C62.222 20.2373 62.3923 22.284 61.9532 24.2434C61.5141 26.2028 60.4865 27.9812 59.0082 29.34C57.8219 30.5722 56.4829 31.6475 55.0237 32.54C53.2633 25.5553 50.5835 18.8352 47.0547 12.5556V12.5556Z" fill="#2A2941"/>
<path fill-rule="evenodd" clip-rule="evenodd" d="M18.1313 46.0745C11.752 42.6474 9.27459 34.348 9.54298 26.5236C23.5403 21.7752 36.0306 14.9624 45.6511 3.13281C55.664 12.4024 59.8343 22.374 60.2059 38.9932C42.926 36.7223 29.8577 40.8719 18.1313 46.0745V46.0745Z" fill="white"/>
<path fill-rule="evenodd" clip-rule="evenodd" d="M17.4499 47.3275L18.0693 47.6784L18.7299 47.3895C30.2292 42.2695 43.0704 38.1818 60.02 40.4321L61.6922 40.6385V38.9663C61.3 21.8515 56.9852 11.5909 46.6833 2.05292L45.5478 1L44.5775 2.19745C35.1221 13.8206 22.8589 20.4889 9.10935 25.1341L8.18029 25.4645V26.4554C7.89126 34.8373 10.699 43.6527 17.5325 47.3275H17.4499ZM18.2344 44.4373C13.0112 41.2166 10.9467 34.2798 10.9674 27.5495C24.3454 22.9044 36.3401 16.2773 45.7749 5.23221C54.3632 13.6141 58.162 22.8218 58.6987 37.3559C42.1827 35.5391 29.5892 39.4205 18.2344 44.4373Z" fill="#2A2941"/>
<path fill-rule="evenodd" clip-rule="evenodd" d="M10.0201 33.4766C10.0201 33.4766 2.98016 36.0778 5.20983 41.301C7.43949 46.5242 14.1285 42.7874 14.1285 42.7874C12.1071 40.0119 10.6996 36.838 9.99949 33.4766H10.0201Z" fill="#4C5EFD"/>
<path fill-rule="evenodd" clip-rule="evenodd" d="M11.4209 33.1879L11.1112 31.5156L9.50089 32.1143C8.16162 32.6503 6.92 33.4036 5.82608 34.344C4.69473 35.188 3.8856 36.393 3.53268 37.7597C3.17976 39.1263 3.3042 40.5726 3.88544 41.8588C4.30168 42.9241 5.03673 43.8349 5.99008 44.4668C6.94342 45.0987 8.0686 45.4207 9.2119 45.389C11.1429 45.3511 13.0435 44.9006 14.7861 44.0677L16.3138 43.3039L15.2815 41.9207C13.3942 39.314 12.0786 36.3382 11.4209 33.1879V33.1879ZM9.0261 35.562C9.69301 37.8562 10.6651 40.0505 11.9164 42.0859C11.3854 42.26 10.8394 42.3844 10.2854 42.4575C9.55518 42.6517 8.78004 42.5847 8.09396 42.2681C7.40788 41.9514 6.85402 41.4049 6.52806 40.7232C6.24163 39.9996 6.20376 39.2014 6.42052 38.454C6.63727 37.7065 7.09633 37.0523 7.72545 36.5942C8.13234 36.2427 8.56735 35.9252 9.0261 35.6446V35.562Z" fill="#2A2941"/>
<path fill-rule="evenodd" clip-rule="evenodd" d="M25.0251 43.3401C28.549 49.7347 30.826 56.7406 31.7348 63.9851L44.1218 58.3697C40.4521 52.6764 37.5439 46.5268 35.4715 40.0781C31.8719 40.9026 28.344 42.0142 24.9219 43.4021L25.0251 43.3401Z" fill="white"/>
<path fill-rule="evenodd" clip-rule="evenodd" d="M24.4891 42.0057L23.0233 42.6044L23.7252 44.0083C27.1672 50.2127 29.3953 57.0162 30.2903 64.0547L30.4761 66.1192L46.3729 58.9553L45.4645 57.5514C41.8692 51.9605 39.0234 45.9219 37 39.5902L36.5871 38.3516L35.3071 38.6406C31.631 39.4826 28.0275 40.6147 24.5304 42.0263L24.4891 42.0057ZM27.0285 44.0702C29.5219 43.1382 32.0651 42.3457 34.6465 41.6961C36.5319 47.2753 39.0315 52.6276 42.0993 57.6546L32.9329 61.7836C31.9011 55.6138 29.9088 49.6437 27.0285 44.0908V44.0702Z" fill="#2A2941"/>
<path fill-rule="evenodd" clip-rule="evenodd" d="M12.9922 25.0724C13.1941 32.3264 15.917 39.2833 20.6928 44.7471C20.9666 45.0209 21.3379 45.1747 21.7251 45.1747C22.1122 45.1747 22.4835 45.0209 22.7573 44.7471C23.0311 44.4733 23.1849 44.102 23.1849 43.7149C23.1849 43.3277 23.0311 42.9564 22.7573 42.6826C18.4886 37.7737 16.0585 31.534 15.8825 25.0311C15.8825 24.6478 15.7302 24.2802 15.4592 24.0092C15.1882 23.7382 14.8206 23.5859 14.4374 23.5859C14.0541 23.5859 13.6865 23.7382 13.4155 24.0092C13.1445 24.2802 12.9922 24.6478 12.9922 25.0311V25.0724Z" fill="#2A2941"/>
<path fill-rule="evenodd" clip-rule="evenodd" d="M55.9954 74.9519L50.0703 60.5004L53.4974 58.8488L52.2793 55.7521C59.0922 55.1533 72.305 54.245 74.0392 58.1263C75.7734 62.0076 67.8457 73.1971 62.6431 78.9984L59.2573 73.4242L55.9954 74.9106V74.9519Z" fill="#2A2941"/>
<path fill-rule="evenodd" clip-rule="evenodd" d="M44.1436 66.3155C47.0675 63.9242 50.3672 62.0337 53.9088 60.7206L55.2507 60.2045L54.1978 57.5L52.8558 58.0368C49.0237 59.4581 45.4524 61.5019 42.2856 64.0858L41.1914 65.0148L43.0288 67.2445L44.1436 66.3155V66.3155Z" fill="#2A2941"/>
<path fill-rule="evenodd" clip-rule="evenodd" d="M46.5649 69.6174C49.2803 67.701 52.2651 66.1982 55.4217 65.1581L56.7636 64.642L55.7726 61.9375L54.4307 62.433C51.0181 63.5743 47.7908 65.2088 44.8514 67.2845L43.6953 68.131L45.3882 70.4639L46.5649 69.6174V69.6174Z" fill="#2A2941"/>
<path fill-rule="evenodd" clip-rule="evenodd" d="M48.7575 73.1628C51.3924 71.6591 54.2 70.4806 57.1188 69.6531L58.5019 69.2196L57.6142 66.4531L56.231 66.9074C53.0964 67.801 50.0811 69.0694 47.2504 70.6853L46.0117 71.4492L47.5188 73.906L48.7575 73.1628Z" fill="#2A2941"/>
<path fill-rule="evenodd" clip-rule="evenodd" d="M58.0775 70.6916L52.1523 56.24L55.5794 54.5678L53.5149 49.0556C60.3278 48.4775 74.3458 49.5924 76.2245 53.8453C78.1032 58.0981 69.7007 68.8748 64.4981 74.6761L61.4426 69.1639L58.1807 70.6502L58.0775 70.6916Z" fill="white"/>
<path fill-rule="evenodd" clip-rule="evenodd" d="M50.2969 55.5945L57.3162 72.6473L60.7227 71.0783L64.1291 77.2718L65.471 75.7648C69.9308 70.9947 73.7102 65.6313 76.7019 59.8267C77.7721 57.8636 78.0385 55.5618 77.4451 53.4061C76.8684 52.447 76.1055 51.6132 75.2013 50.9536C74.2971 50.2941 73.2701 49.8224 72.1806 49.5662C66.0485 47.8831 59.6735 47.2616 53.3317 47.7287L51.4117 47.9146L53.7446 53.9636L50.2969 55.6565V55.5945ZM58.844 68.7661L54.013 56.9983L57.3988 55.3468L55.4994 50.4332C60.8132 50.2013 66.1301 50.8146 71.2516 52.25C72.1301 52.5274 72.9696 52.916 73.7497 53.4061C74.1889 53.6585 74.5469 54.031 74.7819 54.4797C75.0368 55.2294 75.0368 56.0423 74.7819 56.7919C74.3793 58.1635 73.8108 59.4808 73.089 60.7146C70.7179 64.8142 67.9521 68.6724 64.831 72.2344L61.982 67.3415L58.8852 68.7661H58.844Z" fill="#2A2941"/>
<path fill-rule="evenodd" clip-rule="evenodd" d="M62.2709 57.2188C63.1415 57.2187 63.9764 57.5646 64.592 58.1802C65.2076 58.7958 65.5535 59.6307 65.5535 60.5012C65.5535 61.3718 65.2076 62.2068 64.592 62.8224C63.9764 63.438 63.1415 63.7839 62.2709 63.7839C61.4003 63.7839 60.5653 63.438 59.9497 62.8224C59.3341 62.2068 58.9883 61.3718 58.9883 60.5012C58.9883 59.6307 59.3341 58.7958 59.9497 58.1802C60.5653 57.5646 61.4003 57.2187 62.2709 57.2188V57.2188Z" fill="#A694FE"/>
<path fill-rule="evenodd" clip-rule="evenodd" d="M62.2533 55.7658C61.3157 55.7576 60.3968 56.0284 59.6134 56.5438C58.8301 57.0592 58.2177 57.796 57.8542 58.6603C57.4906 59.5247 57.3923 60.4775 57.5717 61.3978C57.7511 62.3182 58.2001 63.1645 58.8617 63.829C59.5233 64.4935 60.3676 64.9462 61.2871 65.1297C62.2067 65.3131 63.16 65.219 64.026 64.8593C64.8919 64.4995 65.6313 63.8903 66.1501 63.1093C66.669 62.3282 66.9438 61.4105 66.9397 60.4728C66.9398 59.228 66.4467 58.0339 65.5684 57.1518C64.6901 56.2696 63.4982 55.7713 62.2533 55.7658ZM62.2533 58.656C62.49 58.656 62.7243 58.7032 62.9425 58.795C63.1606 58.8868 63.3582 59.0213 63.5236 59.1906C63.689 59.3598 63.8189 59.5605 63.9057 59.7807C63.9924 60.0009 64.0343 60.2362 64.0288 60.4728C64.0207 60.8221 63.9097 61.1612 63.7097 61.4477C63.5098 61.7342 63.2297 61.9554 62.9047 62.0834C62.5796 62.2115 62.224 62.2408 61.8823 62.1677C61.5407 62.0946 61.2282 61.9224 60.984 61.6725C60.7398 61.4227 60.5748 61.1062 60.5095 60.763C60.4443 60.4198 60.4818 60.065 60.6173 59.743C60.7528 59.4209 60.9804 59.146 61.2714 58.9527C61.5624 58.7593 61.904 58.6561 62.2533 58.656V58.656Z" fill="#2A2941"/>
<path fill-rule="evenodd" clip-rule="evenodd" d="M65.5575 50.9605C69.0053 53.665 71.1936 59.9412 71.2762 64.0495C71.2762 64.4328 71.4284 64.8003 71.6995 65.0713C71.9705 65.3423 72.3381 65.4946 72.7214 65.4946C73.1047 65.4946 73.4722 65.3423 73.7432 65.0713C74.0143 64.8003 74.1665 64.4328 74.1665 64.0495C74.1665 59.1979 71.4001 51.8895 67.3537 48.7308C67.2032 48.6083 67.0296 48.5173 66.8432 48.4633C66.6568 48.4093 66.4615 48.3934 66.2688 48.4166C66.0761 48.4397 65.8901 48.5013 65.7218 48.5979C65.5535 48.6945 65.4063 48.8239 65.2892 48.9785C65.0746 49.2815 64.983 49.6545 65.0328 50.0224C65.0826 50.3902 65.2702 50.7256 65.5575 50.9605V50.9605Z" fill="#2A2941"/>
</svg>
