<svg width="81" height="80" viewBox="0 0 81 80" fill="none" xmlns="http://www.w3.org/2000/svg">
<path d="M14.8256 21.949C16.9299 19.1575 16.2818 15.2545 13.378 13.2315C10.4743 11.2085 6.41445 11.8316 4.31016 14.6232C2.20587 17.4147 2.85396 21.3177 5.75773 23.3407C8.66149 25.3637 12.7213 24.7406 14.8256 21.949Z" fill="#2A2941"/>
<path d="M9.56075 12.0349C11.1683 12.0763 12.703 12.6882 13.8692 13.7526C15.0355 14.817 15.7507 16.2587 15.8771 17.7999C16.0036 19.3411 15.5322 20.8727 14.554 22.0998C13.5757 23.3268 12.1597 24.1623 10.5788 24.4455C10.2361 24.4972 9.88987 24.5238 9.543 24.5251C7.93079 24.4891 6.38985 23.8792 5.21863 22.8135C4.04741 21.7478 3.32924 20.3021 3.20324 18.7565C3.07725 17.2109 3.55239 15.6754 4.53663 14.4473C5.52086 13.2192 6.94416 12.3859 8.53085 12.1089C8.87169 12.059 9.21599 12.0343 9.56075 12.0349M9.56075 9.75879C9.09113 9.75872 8.62218 9.79296 8.15795 9.86122C5.98291 10.2301 4.02898 11.3652 2.67769 13.0447C1.3264 14.7242 0.674763 16.8276 0.850039 18.9442C1.02531 21.0608 2.01492 23.0386 3.6256 24.4915C5.23628 25.9443 7.35239 26.7678 9.56075 26.8013C10.0325 26.7994 10.5034 26.7633 10.9695 26.6931C13.1384 26.3177 15.0845 25.1802 16.4295 23.5018C17.7744 21.8235 18.422 19.7242 18.2463 17.6123C18.0706 15.5005 17.0842 13.5268 15.4789 12.0753C13.8736 10.6238 11.7642 9.79809 9.56075 9.75879V9.75879Z" fill="#2A2941"/>
<path d="M27.9925 51.2585L32.6922 61.558L38.3093 59.0144L33.29 48.0093C33.29 48.0093 32.1476 46.3023 31.1118 45.9722L26.3766 44.4301L17.9953 26.0562L9.78564 29.5159L11.5022 33.2885L10.7445 49.1531C10.7249 49.3934 10.7557 49.6351 10.8351 49.8637C10.9146 50.0924 11.041 50.3033 11.207 50.484C11.3729 50.6647 11.5749 50.8115 11.8011 50.9157C12.0272 51.0198 12.2728 51.0792 12.5233 51.0902C12.7738 51.1013 13.024 51.0638 13.2591 50.9801C13.4943 50.8963 13.7095 50.768 13.8919 50.6026C14.0744 50.4373 14.2205 50.2384 14.3214 50.0177C14.4223 49.7971 14.476 49.5592 14.4794 49.3181L14.8878 40.6859L18.3149 48.1971L17.5159 48.5329L29.0047 73.7295L34.6928 71.3339L25.0981 50.2798L27.9925 51.2585Z" fill="#2A2941"/>
<path d="M18.0013 26.0561L26.3827 44.4301L31.1179 45.9721C32.1537 46.3136 33.2961 48.0093 33.2961 48.0093L38.3154 59.0143L32.6982 61.5579L27.9985 51.2584L25.1101 50.3138L34.7048 71.368L29.0166 73.7636L17.5278 48.5669L18.3269 48.2312L14.8879 40.6858L14.4736 49.2953C14.4494 49.7552 14.2424 50.1887 13.8955 50.5063C13.5486 50.8239 13.0882 51.0015 12.6091 51.0024H12.5203C12.0262 50.9788 11.5619 50.7679 11.2291 50.416C10.8963 50.0641 10.7221 49.5997 10.7446 49.1246L11.5082 33.2884L9.79169 29.5158L18.0013 26.0561M19.2207 23.0573L17.0543 23.9677L8.83872 27.4331L6.67236 28.3493L7.61941 30.4319L9.11691 33.7152L8.37704 49.0449C8.35078 49.5796 8.43437 50.1141 8.62306 50.6177C8.81175 51.1213 9.10185 51.5843 9.47674 51.9801C9.85163 52.3759 10.304 52.6968 10.8079 52.9245C11.3119 53.1522 11.8576 53.2821 12.4138 53.3069H12.615C13.3379 53.3082 14.0491 53.131 14.6803 52.7923C15.3115 52.4535 15.8415 51.9645 16.2197 51.3722L26.8443 74.6626L27.7973 76.751L29.9636 75.8348L35.6459 73.4392L37.8182 72.5231L36.8652 70.4405L33.7459 63.6121L39.3157 61.0913L41.4051 60.1467L40.4758 58.1152L35.4565 47.1102L35.3795 46.9452L35.2789 46.7915C34.7995 46.0803 33.5032 44.3732 31.8755 43.8383L28.1347 42.6149L20.1736 25.157L19.2207 23.0459V23.0573Z" fill="#2A2941"/>
<path d="M43.8495 30.8814L48.9517 41.4881L35.4623 47.48L40.8781 58.7525L28.6436 63.6348L34.894 76.9785L60.5352 65.5809L75.9837 58.7184L69.8161 45.8924L59.2981 24.0132L43.8495 30.8814Z" fill="#2A2941"/>
<path d="M59.2804 24.0132L69.7985 45.8925L75.9661 58.7184L60.5175 65.5809L34.8764 76.9615L28.6259 63.6178L40.8605 58.7355L35.4446 47.463L48.934 41.4711L43.8318 30.8644L59.2804 24.0132ZM60.4642 20.9917L58.3156 21.9477L42.867 28.8159L40.7184 29.7661L41.7128 31.8317L45.8206 40.3672L34.4798 45.4031L32.3194 46.3761L33.3138 48.4417L37.6938 57.5462L27.738 61.5294L25.4829 62.4285L26.4832 64.5624L32.7396 77.9061L33.7222 80.0002L35.8885 79.0385L61.5296 67.6579L76.9783 60.7954L79.1269 59.8394L78.1324 57.7568L71.9648 44.9308L61.4468 23.0459L60.4642 20.9917Z" fill="#2A2941"/>
<path d="M25.3108 42.7179L19.6245 45.1152L31.1161 70.3062L36.8023 67.9088L25.3108 42.7179Z" fill="#32EDBB"/>
<path d="M30.5083 71.8232L18.0784 44.5439L25.9211 41.2549L38.351 68.5342L30.5083 71.8232ZM21.1858 45.7161L31.7276 68.8244L35.2435 67.3449L24.7017 44.2309L21.1858 45.7161Z" fill="#2A2941"/>
<path d="M48.5434 24.992L53.3141 34.9102L41.0854 40.3444L47.5608 53.8077L36.6284 58.542L40.9138 67.7717L64.1459 57.4438L78.1443 51.2243L72.3792 39.2291L62.5359 18.7725L48.5434 24.992Z" fill="white"/>
<path d="M40.0259 70.0477L34.2844 57.6827L45.1991 52.9597L38.7296 39.5079L50.9523 34.0793L46.1816 24.1839L63.4237 16.502L80.5 52.0664L40.0259 70.0477ZM38.9723 59.4012L41.8016 65.4955L75.7885 50.3934L61.648 21.0371L50.8754 25.8227L55.6461 35.7466L43.4234 41.1751L49.9047 54.6554L38.9723 59.4012Z" fill="#2A2941"/>
<path d="M39.3061 8.73304L27.5454 33.2021L29.6947 34.1569L41.4554 9.68776L39.3061 8.73304Z" fill="#2A2941"/>
<path d="M34.9531 11.2328L42.488 14.3738L43.3936 3.01025L34.9531 11.2328Z" fill="#2A2941"/>
<path d="M43.5417 16.058L32.8875 11.6139L44.8024 0L43.5417 16.058ZM37.0308 10.8514L41.4582 12.6951L41.9909 6.02034L37.0308 10.8514Z" fill="#2A2941"/>
<path d="M11.668 21.0939C15.254 21.0939 18.1611 18.2991 18.1611 14.8516C18.1611 11.4041 15.254 8.60938 11.668 8.60938C8.08189 8.60938 5.1748 11.4041 5.1748 14.8516C5.1748 18.2991 8.08189 21.0939 11.668 21.0939Z" fill="#FEC34E"/>
<path d="M11.6739 8.60376C13.2865 8.63853 14.8283 9.24755 16.0005 10.3128C17.1727 11.3781 17.8919 12.8237 18.0186 14.3696C18.1454 15.9156 17.6707 17.4517 16.6866 18.6804C15.7025 19.909 14.279 20.7428 12.6919 21.02C12.3493 21.0717 12.003 21.0984 11.6561 21.0997C10.0439 21.0637 8.50294 20.4537 7.33172 19.388C6.1605 18.3223 5.44235 16.8767 5.31635 15.3311C5.19036 13.7855 5.6655 12.2499 6.64974 11.0218C7.63397 9.79371 9.05725 8.96045 10.6439 8.68342C10.9846 8.63169 11.329 8.60506 11.6739 8.60376M11.6739 6.32764C11.2041 6.32947 10.7351 6.36561 10.2711 6.43575C8.0972 6.80409 6.14401 7.93772 4.79246 9.61551C3.44092 11.2933 2.78794 13.3949 2.96091 15.5105C3.13388 17.6261 4.1204 19.6038 5.72802 21.058C7.33564 22.5122 9.44908 23.3385 11.6561 23.3758C12.1278 23.3737 12.5987 23.3376 13.0648 23.2677C15.2391 22.8991 17.1925 21.7651 18.544 20.0867C19.8954 18.4083 20.548 16.3061 20.3742 14.1902C20.2005 12.0743 19.2129 10.0965 17.6043 8.64278C15.9957 7.18905 13.8813 6.36365 11.6739 6.32764Z" fill="#2A2941"/>
<path d="M20.1061 22.6138L11.8938 26.0762L20.516 44.9772L28.7283 41.5148L20.1061 22.6138Z" fill="#A694FE"/>
<path d="M19.9072 46.4896L10.3362 25.5038L20.7181 21.1279L30.2773 42.1138L19.9072 46.4896ZM13.4555 26.676L21.1502 43.4908L27.1935 40.9416L19.4988 24.1267L13.4555 26.676Z" fill="#2A2941"/>
<path fill-rule="evenodd" clip-rule="evenodd" d="M40.4165 55.5889L35.3972 44.5838C35.3972 44.5838 34.2548 42.8767 33.219 42.5467L26.1754 40.2706C25.7895 40.1444 25.3815 40.0926 24.9747 40.1182C24.568 40.1437 24.1704 40.2461 23.8049 40.4194C23.4393 40.5927 23.1129 40.8337 22.8442 41.1284C22.5756 41.4231 22.37 41.7658 22.2392 42.137V42.137C21.9758 42.8863 22.0323 43.7055 22.3962 44.4149C22.7602 45.1242 23.4019 45.6659 24.1807 45.921L30.0997 47.8557L34.7934 58.1552L40.4165 55.5889Z" fill="#32EDBB"/>
<path d="M34.2015 59.6573L29.2237 48.749L23.7959 46.9736C23.2631 46.7992 22.7712 46.5255 22.3484 46.1683C21.9256 45.811 21.5801 45.3772 21.3317 44.8916C21.0832 44.406 20.9367 43.8782 20.9005 43.3381C20.8643 42.7981 20.939 42.2565 21.1205 41.7443C21.302 41.232 21.5867 40.7591 21.9583 40.3527C22.3299 39.9462 22.7811 39.614 23.2862 39.3752C24.3063 38.8929 25.484 38.8198 26.5601 39.1722L33.5978 41.4484C34.9592 41.8922 36.1607 43.605 36.3916 43.9407L36.4804 44.1L41.9613 56.1237L34.2015 59.6573ZM25.1751 41.2549C24.7738 41.2539 24.3824 41.3742 24.0563 41.5989C23.7302 41.8236 23.4859 42.1412 23.3579 42.5068C23.1966 42.9687 23.2303 43.4731 23.4516 43.9115C23.673 44.3498 24.0644 44.6872 24.5417 44.8512L30.9757 46.9452L35.3913 56.6187L38.8657 55.0482L34.3495 45.1471C33.9701 44.5437 33.4542 44.0303 32.8402 43.6448L25.7965 41.3402C25.5952 41.2811 25.3856 41.2523 25.1751 41.2549V41.2549Z" fill="#2A2941"/>
<path d="M17.3759 29.6065C17.4237 28.6145 16.6259 27.7731 15.594 27.7272C14.5621 27.6813 13.6869 28.4482 13.6391 29.4403L12.8553 45.7199C12.8076 46.7119 13.6054 47.5533 14.6373 47.5992C15.6692 47.6451 16.5444 46.8781 16.5922 45.8861L17.3759 29.6065Z" fill="#72A3FB"/>
<path d="M15.4796 27.7286H15.5625C15.8074 27.7395 16.0477 27.7968 16.2696 27.8972C16.4915 27.9975 16.6906 28.139 16.8555 28.3134C17.0205 28.4878 17.148 28.6918 17.2308 28.9137C17.3137 29.1356 17.3501 29.371 17.3382 29.6064L16.5569 45.8864C16.5326 46.3463 16.3257 46.7798 15.9788 47.0974C15.6319 47.415 15.1715 47.5926 14.6924 47.5935H14.6036C14.3587 47.5825 14.1184 47.5252 13.8965 47.4249C13.6746 47.3245 13.4755 47.1831 13.3106 47.0087C13.1456 46.8342 13.0181 46.6303 12.9353 46.4084C12.8525 46.1865 12.816 45.9511 12.8279 45.7157L13.6092 29.43C13.6335 28.9691 13.8413 28.5348 14.1894 28.217C14.5376 27.8992 14.9996 27.7223 15.4796 27.7229M15.4796 25.4468C14.3888 25.4443 13.3393 25.8474 12.5505 26.5718C11.7618 27.2961 11.2949 28.2856 11.2475 29.3333L10.4603 45.6132C10.4333 46.1478 10.5164 46.6823 10.7049 47.1859C10.8933 47.6896 11.1834 48.1524 11.5585 48.548C11.9337 48.9435 12.3864 49.2638 12.8906 49.4906C13.3949 49.7174 13.9409 49.8462 14.4971 49.8696H14.6983C15.7881 49.8706 16.8361 49.4668 17.6236 48.7426C18.4111 48.0184 18.8772 47.0298 18.9245 45.9831L19.7117 29.7031C19.7616 28.6246 19.3647 27.571 18.608 26.7732C17.8514 25.9754 16.7967 25.4984 15.675 25.4468H15.4796Z" fill="#2A2941"/>
</svg>
