<svg width="24" height="25" viewBox="0 0 24 25" fill="none" xmlns="http://www.w3.org/2000/svg">
<g clip-path="url(#clip0_244_2891)">
<path d="M22 4.10865C21 4.59865 20.02 4.79765 19 5.09865C17.879 3.83365 16.217 3.76365 14.62 4.36165C13.023 4.95965 11.977 6.42165 12 8.09865V9.09865C8.755 9.18165 5.865 7.70365 4 5.09865C4 5.09865 -0.182 12.5316 8 16.0986C6.128 17.3456 4.261 18.1866 2 18.0986C5.308 19.9016 8.913 20.5216 12.034 19.6156C15.614 18.5756 18.556 15.8926 19.685 11.8736C20.0218 10.6513 20.189 9.38851 20.182 8.12065C20.18 7.87165 21.692 5.34865 22 4.10765V4.10865Z" fill="#4C5EFE"/>
</g>
<defs>
<clipPath id="clip0_244_2891">
<rect width="24" height="24" fill="white" transform="translate(0 0.0996094)"/>
</clipPath>
</defs>
</svg>
